<svg xmlns="http://www.w3.org/2000/svg" width="750" height="222" viewBox="166 114 750 222" role="img" aria-labelledby="title desc">
  <title id="title">How it works animated flow</title>
  <desc id="desc">Three animated cards showing book your test, home collection, and results ready, connected by a moving blue line.</desc>
  <defs>
    <filter id="softShadow" x="-30%" y="-30%" width="160%" height="160%">
      <feDropShadow dx="0" dy="10" stdDeviation="12" flood-color="#0f2b55" flood-opacity="0.09"/>
    </filter>
    <filter id="checkShadow" x="-40%" y="-40%" width="180%" height="180%">
      <feDropShadow dx="0" dy="4" stdDeviation="5" flood-color="#1e9b5a" flood-opacity="0.22"/>
    </filter>
    <linearGradient id="cardFill" x1="0" y1="0" x2="0" y2="1">
      <stop offset="0" stop-color="#ffffff"/>
      <stop offset="1" stop-color="#fbfdff"/>
    </linearGradient>
    <linearGradient id="lineGradient" x1="0" y1="0" x2="1" y2="0">
      <stop offset="0" stop-color="#7ab0ff"/>
      <stop offset="0.5" stop-color="#2f7df4"/>
      <stop offset="1" stop-color="#7ab0ff"/>
    </linearGradient>

    <!-- Dr Swift leaf logo (drswift_leaf_logo_precise_trace.svg) -->
    <linearGradient id="drswift-grad-purple" gradientUnits="userSpaceOnUse" x1="175" y1="32" x2="304" y2="207"><stop offset="0" stop-color="#8532e4"/><stop offset="1" stop-color="#43109b"/></linearGradient>
    <linearGradient id="drswift-grad-red" gradientUnits="userSpaceOnUse" x1="31" y1="150" x2="207" y2="300"><stop offset="0" stop-color="#f1561e"/><stop offset="1" stop-color="#b82103"/></linearGradient>
    <linearGradient id="drswift-grad-yellow" gradientUnits="userSpaceOnUse" x1="96" y1="310" x2="211" y2="419"><stop offset="0" stop-color="#ffd644"/><stop offset="1" stop-color="#ffb000"/></linearGradient>
    <linearGradient id="drswift-grad-green" gradientUnits="userSpaceOnUse" x1="302" y1="321" x2="402" y2="399"><stop offset="0" stop-color="#6bd87a"/><stop offset="1" stop-color="#28a343"/></linearGradient>
    <linearGradient id="drswift-grad-blue" gradientUnits="userSpaceOnUse" x1="213" y1="349" x2="314" y2="488"><stop offset="0" stop-color="#20a8f7"/><stop offset="1" stop-color="#006fcf"/></linearGradient>
    <symbol id="icon-drswift-leaf" viewBox="0 0 479 521" preserveAspectRatio="xMidYMid meet">
      <path fill="url(#drswift-grad-purple)" d="M 240.0 32.0 C 239.4 32.6 238.4 33.6 236.8 35.1 C 235.1 36.7 233.0 38.8 230.2 41.4 C 227.5 44.0 224.3 47.1 220.5 50.8 C 216.7 54.4 211.4 59.3 207.5 63.2 C 203.6 67.2 200.1 71.0 196.9 74.6 C 193.8 78.1 191.1 81.5 188.8 84.7 C 186.5 87.9 184.6 90.8 183.1 93.6 C 181.6 96.4 180.8 98.9 179.9 101.4 C 178.9 103.9 178.1 106.3 177.5 108.6 C 176.9 111.0 176.4 113.2 176.0 115.4 C 175.6 117.5 175.4 119.6 175.4 121.6 C 175.3 123.6 175.5 125.5 175.6 127.4 C 175.8 129.2 176.0 131.1 176.3 132.9 C 176.6 134.7 177.0 136.4 177.4 138.1 C 177.9 139.8 178.4 141.5 179.0 143.1 C 179.6 144.8 179.9 146.0 181.0 147.9 C 182.1 149.8 183.6 152.0 185.6 154.6 C 187.5 157.2 189.9 160.1 192.7 163.4 C 195.5 166.6 198.7 170.2 202.4 174.1 C 206.0 178.0 211.0 183.3 214.6 186.9 C 218.3 190.4 221.5 193.3 224.2 195.5 C 227.0 197.7 229.4 199.2 231.2 200.0 C 233.1 200.8 234.6 200.9 235.6 200.4 C 236.6 199.8 236.8 198.2 237.4 196.6 C 238.0 195.1 238.6 193.3 239.2 191.2 C 239.8 189.1 240.4 186.7 241.1 184.1 C 241.7 181.4 242.3 178.5 243.0 175.2 C 243.7 172.0 244.4 168.6 245.0 164.8 C 245.6 160.9 246.0 156.6 246.3 151.9 C 246.6 147.3 246.8 142.2 246.9 136.8 C 247.0 131.4 247.0 125.6 246.9 119.4 C 246.7 113.2 246.3 105.2 246.1 99.6 C 246.0 94.1 246.0 89.6 246.1 86.1 C 246.2 82.7 246.4 80.2 246.7 78.9 C 247.0 77.5 247.4 77.2 248.0 77.9 C 248.6 78.6 249.4 81.2 250.0 83.1 C 250.6 85.0 251.3 87.1 251.9 89.2 C 252.5 91.4 253.1 93.8 253.6 96.2 C 254.2 98.7 254.7 101.4 255.2 104.1 C 255.8 106.9 256.3 109.9 256.8 112.9 C 257.2 115.8 257.5 118.8 257.8 121.8 C 258.1 124.8 258.3 127.9 258.4 130.9 C 258.6 134.0 258.6 137.1 258.6 140.2 C 258.6 143.4 258.5 146.6 258.4 149.8 C 258.2 152.9 258.0 156.1 257.7 159.2 C 257.4 162.3 257.0 165.4 256.6 168.6 C 256.1 171.7 255.6 174.8 255.0 177.9 C 254.4 181.0 253.1 184.9 253.0 187.1 C 252.9 189.4 253.2 190.8 254.1 191.4 C 255.0 192.0 256.4 191.7 258.4 190.6 C 260.3 189.5 262.8 187.6 265.8 184.9 C 268.7 182.1 273.1 177.6 276.2 174.1 C 279.4 170.7 282.3 167.4 284.8 164.3 C 287.3 161.2 289.6 158.2 291.4 155.4 C 293.3 152.6 294.9 150.0 296.1 147.5 C 297.4 145.0 298.1 142.8 298.9 140.5 C 299.7 138.2 300.3 136.0 300.9 133.8 C 301.4 131.5 301.8 129.4 302.1 127.2 C 302.4 125.1 302.6 123.0 302.6 121.0 C 302.7 119.0 302.5 116.9 302.4 115.0 C 302.2 113.1 302.0 111.2 301.7 109.3 C 301.4 107.5 301.0 105.7 300.6 103.9 C 300.1 102.2 299.6 100.5 299.0 98.9 C 298.4 97.2 298.1 96.0 297.0 94.1 C 295.9 92.2 294.5 90.1 292.6 87.6 C 290.8 85.2 288.5 82.4 285.9 79.4 C 283.2 76.3 280.2 73.0 276.8 69.4 C 273.3 65.8 268.6 61.1 265.2 57.6 C 261.9 54.2 259.0 51.3 256.6 48.8 C 254.2 46.4 252.3 44.4 250.9 42.9 C 249.4 41.5 249.8 41.8 248.0 40.0 C 246.2 38.2 241.4 33.4 240.0 32.0 Z"/>
      <path fill="url(#drswift-grad-red)" d="M 31.0 175.0 C 31.2 175.9 31.7 177.5 32.3 179.9 C 33.0 182.4 33.8 185.7 34.9 189.8 C 36.0 193.9 37.3 198.9 38.9 204.6 C 40.4 210.4 42.5 218.4 44.1 224.4 C 45.8 230.4 47.4 235.7 48.9 240.5 C 50.4 245.3 51.8 249.4 53.1 253.0 C 54.5 256.6 55.7 259.5 56.9 261.9 C 58.0 264.2 59.0 265.5 60.1 267.1 C 61.2 268.8 62.4 270.4 63.5 271.9 C 64.6 273.4 65.8 274.8 67.0 276.1 C 68.2 277.5 69.4 278.7 70.6 279.9 C 71.9 281.0 73.0 282.1 74.4 283.1 C 75.7 284.2 77.2 285.2 78.8 286.2 C 80.4 287.3 82.1 288.3 83.9 289.2 C 85.8 290.2 87.7 291.2 89.8 292.1 C 91.8 293.1 94.1 294.1 96.2 294.9 C 98.4 295.7 100.6 296.4 102.7 296.9 C 104.8 297.5 106.9 298.0 109.1 298.3 C 111.2 298.7 113.3 298.9 115.4 299.0 C 117.5 299.1 119.0 299.2 121.6 299.0 C 124.2 298.8 127.3 298.3 130.9 297.6 C 134.5 296.9 138.5 296.0 143.1 294.9 C 147.7 293.7 152.8 292.4 158.4 290.8 C 164.0 289.1 171.7 287.2 176.6 285.2 C 181.6 283.3 185.4 281.2 188.2 279.0 C 190.9 276.8 192.6 274.5 193.1 272.0 C 193.6 269.5 193.0 267.0 191.2 264.2 C 189.5 261.5 185.5 258.4 182.8 255.8 C 180.0 253.1 177.3 250.5 174.7 248.1 C 172.1 245.7 169.5 243.5 167.1 241.4 C 164.6 239.3 162.2 237.3 159.9 235.5 C 157.6 233.7 155.4 232.2 153.1 230.5 C 150.8 228.8 148.4 227.2 146.0 225.6 C 143.6 223.9 141.1 222.3 138.5 220.7 C 135.9 219.1 133.3 217.5 130.6 215.9 C 127.9 214.3 125.2 212.7 122.4 211.1 C 119.6 209.6 116.8 208.1 113.9 206.7 C 111.1 205.3 108.2 203.9 105.3 202.6 C 102.4 201.2 99.5 200.0 96.5 198.8 C 93.5 197.5 89.9 196.2 87.5 195.2 C 85.1 194.3 83.4 193.4 82.4 192.8 C 81.3 192.2 80.9 191.7 81.1 191.4 C 81.4 191.2 82.2 191.1 83.8 191.1 C 85.3 191.2 87.9 191.5 90.2 191.9 C 92.6 192.2 95.0 192.8 97.6 193.4 C 100.2 194.0 103.0 194.8 105.9 195.6 C 108.8 196.5 111.8 197.5 115.0 198.6 C 118.2 199.8 121.7 201.1 125.0 202.4 C 128.3 203.7 131.5 205.1 134.6 206.5 C 137.8 207.9 140.9 209.4 143.9 211.0 C 146.9 212.6 149.9 214.2 152.8 215.9 C 155.6 217.6 158.4 219.3 161.2 221.1 C 164.1 223.0 166.9 224.9 169.6 226.9 C 172.4 228.9 175.1 231.0 177.9 233.1 C 180.6 235.3 183.3 237.5 186.0 239.9 C 188.7 242.2 191.9 245.7 194.0 247.1 C 196.1 248.5 197.7 248.9 198.8 248.2 C 199.9 247.6 200.4 245.9 200.4 243.2 C 200.4 240.6 199.9 236.9 198.9 232.1 C 197.8 227.4 195.6 220.1 194.1 214.9 C 192.6 209.7 191.2 205.0 189.9 200.9 C 188.5 196.8 187.3 193.3 186.1 190.3 C 185.0 187.3 183.9 184.9 182.9 183.0 C 181.9 181.1 181.1 180.3 180.1 179.0 C 179.2 177.7 178.1 176.4 177.1 175.2 C 176.0 173.9 174.9 172.7 173.7 171.6 C 172.5 170.4 171.3 169.2 170.0 168.1 C 168.7 167.0 167.3 165.9 166.0 164.9 C 164.7 163.8 163.3 162.9 161.9 161.9 C 160.6 161.0 159.2 160.1 157.8 159.3 C 156.4 158.5 155.0 157.7 153.6 157.0 C 152.2 156.3 150.9 155.6 149.4 155.0 C 147.8 154.4 146.1 153.9 144.2 153.4 C 142.4 152.9 140.4 152.5 138.2 152.1 C 136.1 151.8 133.8 151.5 131.4 151.2 C 128.9 151.0 126.7 150.7 123.6 150.8 C 120.6 150.8 117.0 151.2 112.9 151.8 C 108.9 152.4 104.3 153.3 99.3 154.4 C 94.3 155.6 88.8 157.0 82.8 158.6 C 76.7 160.3 68.9 162.7 63.2 164.4 C 57.6 166.1 52.7 167.5 48.6 168.7 C 44.6 169.9 41.3 170.8 38.9 171.6 C 36.4 172.3 35.3 172.4 34.0 173.0 C 32.7 173.6 31.5 174.6 31.0 175.0 Z"/>
      <path fill="url(#drswift-grad-yellow)" d="M 96.0 411.0 C 96.5 411.1 98.0 411.2 99.9 411.4 C 101.9 411.7 104.5 411.9 107.8 412.3 C 111.1 412.7 115.0 413.1 119.6 413.6 C 124.2 414.1 130.5 415.0 135.4 415.4 C 140.2 415.8 144.7 416.0 148.8 416.1 C 152.8 416.1 156.5 416.0 159.8 415.7 C 163.0 415.4 165.9 414.9 168.4 414.2 C 170.9 413.6 172.7 412.6 174.6 411.8 C 176.6 410.9 178.4 410.0 180.1 409.1 C 181.7 408.2 183.3 407.3 184.7 406.4 C 186.1 405.4 187.4 404.5 188.5 403.5 C 189.6 402.5 190.5 401.6 191.5 400.5 C 192.5 399.4 193.4 398.3 194.2 397.2 C 195.1 396.0 196.0 394.8 196.8 393.6 C 197.5 392.3 198.3 391.0 199.0 389.6 C 199.7 388.3 200.4 387.2 201.0 385.4 C 201.6 383.5 202.3 381.3 202.9 378.6 C 203.5 376.0 204.1 372.9 204.6 369.4 C 205.2 365.9 205.7 362.0 206.2 357.6 C 206.8 353.3 207.8 347.3 207.8 343.4 C 207.7 339.5 207.1 336.4 205.9 334.1 C 204.8 331.9 203.1 330.5 200.8 329.9 C 198.6 329.3 195.7 329.5 192.4 330.6 C 189.0 331.7 184.5 334.3 180.6 336.4 C 176.8 338.4 173.0 340.6 169.4 342.8 C 165.7 345.1 162.1 347.4 158.6 349.9 C 155.1 352.4 151.7 355.0 148.4 357.8 C 145.0 360.5 141.4 363.9 138.6 366.2 C 135.9 368.6 133.6 370.4 131.8 371.7 C 130.0 373.0 128.7 373.8 127.9 374.1 C 127.1 374.3 126.8 374.1 127.0 373.4 C 127.2 372.6 128.2 370.9 129.0 369.6 C 129.8 368.3 130.6 367.0 131.6 365.6 C 132.6 364.2 133.7 362.8 134.9 361.4 C 136.1 359.9 137.4 358.4 138.8 356.9 C 140.1 355.3 141.4 353.8 143.2 352.1 C 145.1 350.4 147.2 348.6 149.6 346.7 C 152.1 344.8 154.8 342.7 157.9 340.6 C 160.9 338.4 164.3 336.1 168.0 333.8 C 171.7 331.4 177.1 328.5 180.0 326.2 C 182.9 324.0 184.8 322.0 185.6 320.3 C 186.4 318.6 186.2 317.1 184.9 315.9 C 183.6 314.7 181.2 313.8 177.8 313.1 C 174.3 312.4 168.4 312.1 164.2 311.9 C 160.1 311.6 156.3 311.5 152.8 311.5 C 149.3 311.5 146.2 311.7 143.4 312.0 C 140.7 312.3 138.2 312.8 136.1 313.4 C 134.0 314.0 132.6 314.7 130.9 315.6 C 129.1 316.6 127.4 317.7 125.7 319.0 C 124.0 320.3 122.3 321.8 120.6 323.5 C 118.9 325.2 117.2 327.1 115.5 329.1 C 113.8 331.2 112.0 333.3 110.5 335.9 C 109.0 338.4 107.6 341.3 106.3 344.6 C 105.1 347.8 103.9 351.3 102.9 355.2 C 101.9 359.1 101.1 363.2 100.4 367.8 C 99.7 372.3 99.1 378.0 98.6 382.2 C 98.1 386.5 97.7 390.1 97.3 393.1 C 96.9 396.1 96.7 398.6 96.4 400.4 C 96.2 402.2 96.1 402.2 96.0 404.0 C 95.9 405.8 96.0 410.2 96.0 411.0 Z"/>
      <path fill="url(#drswift-grad-green)" d="M 401.0 373.0 C 400.8 372.7 400.3 371.9 399.7 370.8 C 399.0 369.6 398.2 368.1 397.1 366.2 C 396.0 364.4 394.7 362.1 393.1 359.5 C 391.6 356.9 389.6 353.3 387.9 350.5 C 386.1 347.7 384.3 345.2 382.6 342.8 C 380.8 340.5 379.0 338.3 377.2 336.4 C 375.4 334.5 373.6 332.8 371.8 331.4 C 369.9 329.9 368.1 328.7 366.2 327.6 C 364.4 326.5 362.6 325.6 360.8 324.9 C 359.0 324.1 357.2 323.5 355.4 323.1 C 353.7 322.7 351.9 322.5 350.1 322.4 C 348.4 322.3 346.8 322.3 344.9 322.6 C 343.0 322.9 340.9 323.4 338.8 324.1 C 336.6 324.8 334.2 325.8 331.8 326.9 C 329.3 328.0 326.6 329.3 323.9 330.9 C 321.1 332.4 317.3 334.4 315.1 336.1 C 312.9 337.8 311.4 339.5 310.7 341.2 C 309.9 342.8 309.9 344.5 310.6 346.1 C 311.2 347.7 312.6 349.2 314.8 350.8 C 316.9 352.3 320.4 353.9 323.2 355.2 C 326.1 356.6 329.0 357.9 331.9 359.1 C 334.9 360.3 337.8 361.4 340.8 362.4 C 343.8 363.4 346.8 364.2 349.9 365.0 C 352.9 365.8 356.8 366.4 359.1 367.0 C 361.5 367.6 363.0 368.1 363.9 368.4 C 364.7 368.8 364.8 369.1 364.1 369.3 C 363.5 369.5 362.0 369.6 359.9 369.6 C 357.7 369.6 354.0 369.6 351.1 369.4 C 348.2 369.2 345.3 368.8 342.4 368.3 C 339.5 367.8 336.5 367.2 333.6 366.4 C 330.7 365.7 327.8 364.8 324.9 363.8 C 322.0 362.7 318.5 361.0 316.1 360.2 C 313.8 359.5 312.0 359.3 310.8 359.5 C 309.5 359.7 308.9 360.4 308.8 361.5 C 308.6 362.6 309.1 364.2 310.1 366.2 C 311.1 368.3 313.3 371.4 314.9 373.8 C 316.4 376.1 317.9 378.2 319.4 380.1 C 320.9 382.0 322.4 383.7 323.8 385.2 C 325.2 386.7 326.6 388.0 328.0 389.1 C 329.4 390.2 330.6 391.1 332.0 391.9 C 333.4 392.7 335.0 393.4 336.6 393.9 C 338.3 394.5 340.0 395.0 341.9 395.3 C 343.7 395.7 345.7 395.9 347.8 396.0 C 349.8 396.1 352.0 396.2 354.2 396.0 C 356.5 395.8 358.9 395.3 361.4 394.6 C 363.9 393.9 366.4 393.0 369.1 391.9 C 371.8 390.7 374.6 389.4 377.5 387.8 C 380.4 386.1 383.9 383.9 386.5 382.2 C 389.1 380.6 391.4 379.3 393.2 378.1 C 395.1 377.0 396.6 376.1 397.8 375.4 C 398.9 374.7 399.5 374.4 400.0 374.0 C 400.5 373.6 400.9 373.1 401.0 373.0 Z"/>
      <path fill="url(#drswift-grad-blue)" d="M 270.0 487.0 C 270.3 486.7 271.1 485.7 272.2 484.4 C 273.3 483.1 274.7 481.3 276.6 479.1 C 278.4 476.9 280.6 474.3 283.1 471.2 C 285.7 468.2 289.2 464.1 291.9 460.8 C 294.5 457.4 296.9 454.2 298.9 451.1 C 301.0 448.1 302.8 445.1 304.3 442.4 C 305.8 439.6 307.1 437.0 308.0 434.5 C 308.9 432.0 309.5 429.8 310.0 427.5 C 310.5 425.2 311.0 423.1 311.2 421.0 C 311.5 418.9 311.7 416.9 311.8 415.0 C 311.8 413.1 311.7 411.2 311.5 409.5 C 311.3 407.8 310.9 406.1 310.5 404.5 C 310.1 402.9 309.7 401.4 309.2 399.9 C 308.8 398.5 308.3 397.1 307.8 395.8 C 307.2 394.5 306.6 393.3 306.0 392.1 C 305.4 391.0 305.0 390.2 304.0 388.9 C 303.0 387.6 301.6 386.0 299.9 384.2 C 298.1 382.5 296.1 380.5 293.6 378.2 C 291.2 376.0 288.4 373.6 285.2 370.9 C 282.1 368.2 277.9 364.0 274.8 362.1 C 271.6 360.2 268.9 359.4 266.6 359.5 C 264.2 359.6 262.3 360.8 260.7 363.0 C 259.1 365.2 257.9 368.4 257.1 372.6 C 256.3 376.9 256.2 383.4 255.9 388.4 C 255.6 393.4 255.4 398.2 255.4 402.7 C 255.3 407.2 255.4 411.5 255.6 415.6 C 255.8 419.6 256.2 423.4 256.6 427.0 C 257.1 430.6 257.9 434.2 258.4 437.0 C 258.8 439.8 259.1 442.0 259.2 443.6 C 259.3 445.3 259.3 446.4 259.1 446.9 C 258.9 447.4 258.5 447.4 258.0 446.8 C 257.5 446.1 256.7 444.6 256.0 443.2 C 255.3 441.9 254.7 440.4 254.1 438.8 C 253.4 437.1 252.8 435.2 252.2 433.2 C 251.6 431.2 251.0 429.1 250.4 426.8 C 249.8 424.4 249.1 422.0 248.6 419.2 C 248.1 416.5 247.7 413.5 247.4 410.2 C 247.1 407.0 246.9 403.5 246.8 399.8 C 246.7 396.0 246.7 392.0 246.8 387.8 C 246.8 383.5 247.4 377.8 247.2 374.2 C 247.1 370.7 246.6 368.1 245.8 366.4 C 245.0 364.7 243.9 363.9 242.4 364.1 C 241.0 364.3 239.2 365.4 237.1 367.5 C 235.0 369.6 232.1 373.7 229.9 376.5 C 227.7 379.3 225.8 381.9 224.1 384.4 C 222.4 386.8 220.9 389.1 219.7 391.1 C 218.5 393.2 217.5 395.1 216.8 396.8 C 216.0 398.4 215.7 399.8 215.2 401.2 C 214.8 402.7 214.4 404.2 214.1 405.6 C 213.8 407.1 213.6 408.5 213.4 409.9 C 213.2 411.3 213.1 412.6 213.0 414.0 C 212.9 415.4 212.9 416.6 213.0 418.0 C 213.1 419.4 213.3 420.9 213.6 422.4 C 213.9 424.0 214.4 425.6 214.9 427.3 C 215.4 429.0 216.0 430.8 216.8 432.6 C 217.5 434.5 218.1 436.3 219.2 438.4 C 220.4 440.5 222.0 442.7 223.9 445.2 C 225.9 447.6 228.2 450.3 230.8 453.1 C 233.5 455.9 236.5 458.8 239.9 462.0 C 243.3 465.2 247.8 469.1 251.1 472.0 C 254.4 474.9 257.2 477.4 259.6 479.5 C 261.9 481.6 263.8 483.2 265.2 484.5 C 266.6 485.8 267.2 486.6 268.0 487.0 C 268.8 487.4 269.8 487.0 270.0 487.0 Z"/>
    </symbol>

    <!-- From noun-house-8416531.svg — full artwork so the house reads at icon size -->
    <symbol id="icon-house" viewBox="72 148 1057 904" preserveAspectRatio="xMidYMid meet">
      <path fill="#3b82f6" d="m524.86 626.29c0-22.969-13.781-43.641-34.969-52.453-21.234-8.7656-45.609-3.9375-61.875 12.281-16.219 16.172-21.094 40.594-12.375 61.781 8.7656 21.234 29.391 35.062 52.359 35.156 15.094 0 29.531-5.9531 40.219-16.594s16.641-25.125 16.641-40.172zm-101.53 0h0.046875c0-18.141 10.922-34.453 27.656-41.391 16.734-6.8906 36-3.0469 48.797 9.75 12.797 12.844 16.594 32.109 9.6094 48.844s-23.344 27.609-41.438 27.562c-24.656-0.09375-44.625-20.109-44.625-44.766zm-139.55 141.71v138.84c0 1.5938 0.65625 3.0938 1.7812 4.2188s2.625 1.7812 4.2188 1.7812h139.22c1.5938 0 3.1406-0.65625 4.2656-1.7812s1.7344-2.625 1.7344-4.2188v-138.84c0-1.5938-0.60938-3.1406-1.7344-4.2656s-2.6719-1.7344-4.2656-1.7344h-139.22c-3.2812 0-6 2.6719-6 6zm81.609 6h57.609v57.609h-57.609zm0 69.609h57.609v57.703h-57.609zm-69.609-69.609h57.609v57.609h-57.609zm0 69.609h57.609v57.703h-57.609zm305.16 132v-37.547c0-3.3281 2.7188-6 6-6 1.5938 0 3.1406 0.60938 4.2656 1.7344s1.7344 2.6719 1.7344 4.2656v36.844-0.046875c0 1.5938-0.60938 3.1406-1.7344 4.2656s-2.6719 1.7344-4.2656 1.7344c-3.2812 0-6-2.6719-6-6zm521.53 65.391h-65.391v-50.156h13.078c15.562-0.046875 30.188-7.3125 39.609-19.688 9.375-12.375 12.516-28.453 8.3906-43.453l-50.156-186.94c-2.0156-7.4062-8.7656-12.562-16.453-12.562s-14.391 5.1562-16.406 12.562l-51.141 186.94c-4.125 15-0.98438 31.078 8.3906 43.453 9.4219 12.375 24.047 19.641 39.609 19.688h13.078v49.453h-42.469v-28.453c0-3.3281-2.7188-6-6-6-3.3281 0-6 2.6719-6 6v28.453h-110.39v-555.37h93c9.6094 0.046875 17.391 7.875 17.391 17.531v282c0 3.2812 2.6719 6 6 6 3.2812 0 6-2.7188 6-6v-282c0-16.266-13.172-29.484-29.391-29.531h-93v-57.375h15.703c1.5938 0 3.0938-0.60938 4.2188-1.7344s1.7812-2.6719 1.7812-4.2656v-17.766h76.922c1.5938 0 3.0938-0.60938 4.2188-1.7344s1.7812-2.6719 1.7812-4.2656v-43.641c23.531-3.1875 40.594-24.047 39-47.766-1.5469-23.672-21.234-42.094-45-42.094s-43.453 18.422-45.047 42.094c-1.5469 23.719 15.516 44.578 39.047 47.766v37.547h-72c-2.8594-13.969-15.141-24-29.391-24h-126.14v-85.547c23.531-3.1875 40.594-24.047 39.047-47.766-1.5938-23.672-21.281-42.094-45.047-42.094s-43.406 18.422-45 42.094c-1.5938 23.719 15.469 44.578 39 47.766v85.688l-126.71-0.046875c-16.594 0-30 13.453-30 30v24c0 1.5938 0.60938 3.1406 1.7344 4.2656s2.6719 1.7344 4.2656 1.7344h15.703v129.52l-126.47-102.61c-2.2031-1.7812-5.3438-1.7812-7.5469 0l-196.69 159.71v-187.45c23.531-3.1406 40.594-24 39-47.719-1.5938-23.672-21.234-42.094-45-42.094s-43.453 18.422-45.047 42.094c-1.5469 23.719 15.516 44.578 39.047 47.719v197.06l-81.609 66.141c-1.9219 1.6406-2.6719 4.3125-1.7812 6.7031 0.84375 2.3906 3.0938 3.9375 5.625 3.9375h38.156v207.61c0 1.5938 0.60938 3.1406 1.7344 4.2656s2.6719 1.7344 4.2656 1.7344 3.1406-0.60938 4.2656-1.7344 1.7344-2.6719 1.7344-4.2656v-213.47c0-1.5938-0.60938-3.1406-1.7344-4.2656s-2.6719-1.7344-4.2656-1.7344h-27.234l273.24-221.86 130.55 105.94c0.65625 2.4844 2.8594 4.2188 5.3906 4.3125l137.39 111.61h-27.703c-3.2812 0-6 2.6719-6 6v357.37h-67.781v-198.61c0-1.5938-0.65625-3.1406-1.7812-4.2656s-2.625-1.7344-4.2188-1.7344h-124.08c-3.3281 0-6 2.6719-6 6v198.61h-184.92c12.797-10.547 17.625-27.984 11.953-43.547-5.625-15.609-20.484-25.922-37.031-25.828h-2.625c-3.5156-17.109-18.562-29.344-36-29.297-6.7031 0-13.266 1.875-18.984 5.4375-10.031-15.562-27.234-24.891-45.703-24.844-27.891 0.046875-51.281 21-54.375 48.703h-12c-16.594-0.09375-31.406 10.219-37.031 25.828-5.6719 15.562-0.84375 33 11.953 43.547h-21.469c-3.3281 0-6 2.6719-6 6 0.046875 3.2812 2.7188 5.9062 6 6h1044.9c3.2812-0.09375 5.9531-2.7188 6-6 0-1.5938-0.60938-3.1406-1.7344-4.2656s-2.6719-1.7344-4.2656-1.7344zm-176.76-743.39c0-13.406 8.1094-25.5 20.484-30.609s26.578-2.2969 36.094 7.1719c9.4688 9.4688 12.281 23.719 7.1719 36.094-5.1562 12.375-17.203 20.438-30.609 20.438-8.7656 0-17.203-3.4688-23.438-9.7031-6.1875-6.1875-9.7031-14.625-9.7031-23.391zm-717.71 72.938c-0.046875-13.406 7.9688-25.5 20.344-30.656s26.672-2.3906 36.141 7.0781c9.5156 9.4688 12.375 23.719 7.2656 36.141-5.1562 12.375-17.203 20.438-30.609 20.438-18.234-0.046875-33-14.766-33.141-33zm65.297 666.94-169.45 0.046875c-7.5469 0.46875-15-2.1562-20.531-7.3125-5.4844-5.2031-8.625-12.422-8.625-20.016 0-7.5469 3.1406-14.766 8.625-19.969 5.5312-5.1562 12.984-7.8281 20.531-7.3125h18.141-0.046875c3.3281-0.046875 5.9531-2.7188 6-6 0.046875-19.875 13.828-37.078 33.188-41.484 19.406-4.3594 39.234 5.2031 47.812 23.109 0.84375 1.7344 2.4375 3 4.3594 3.375 1.8281 0.28125 3.75-0.28125 5.1562-1.5469 6.7969-7.1719 17.25-9.4219 26.391-5.7188 9.1875 3.7031 15.094 12.656 15 22.5 0.14062 3.2344 2.7656 5.7656 6 5.7656h7.9219c7.5469-0.51562 14.953 2.1562 20.484 7.3125 5.5312 5.2031 8.6719 12.422 8.6719 19.969 0 7.5938-3.1406 14.812-8.6719 20.016-5.5312 5.1562-12.938 7.7812-20.484 7.3125zm334.08 2.7656-111.38 0.046875v-156h112.08zm0-168-111.38 0.046875v-24.609h112.08zm78.375-646.92-0.046875 0.046875c-0.046875-13.406 8.0156-25.547 20.391-30.703s26.625-2.3438 36.141 7.125c9.4688 9.4219 12.328 23.719 7.2188 36.094s-17.203 20.484-30.609 20.484c-17.906-0.32812-32.344-14.766-32.625-32.672zm162 253.22-0.046875 561.74h-147.71v-351.37h38.391c2.5312 0 4.8281-1.6406 5.625-4.0312 0.84375-2.3906 0.09375-5.0625-1.875-6.6562l-151.82-123.24v-139.45h257.9zm-264-75.375-15.141 0.046874v-17.438c0-9.9375 8.0625-18 18-18h265.31c9.9375 0 18 8.0625 18 18v17.766h-285.61zm428.26 575.68c-11.719-0.1875-22.734-5.7656-29.766-15.188-7.0781-9.375-9.375-21.516-6.2344-32.812l50.297-186.84c0.51562-2.2031 2.4844-3.7969 4.7812-3.7031 2.3438-0.14062 4.4062 1.4531 4.9219 3.7031l50.859 187.08c3.1875 11.438 0.79687 23.719-6.4219 33.141s-18.422 14.906-30.281 14.859zm-67.781-451.92c0-1.5938-0.65625-3.1406-1.7812-4.2656s-2.625-1.7344-4.2188-1.7344h-45.609c-3.3281 0-6 2.6719-6 6v207.24c0 1.5938 0.60937 3.1406 1.7344 4.2656s2.6719 1.7344 4.2656 1.7344h45.609c1.5938 0 3.0938-0.60938 4.2188-1.7344s1.7812-2.6719 1.7812-4.2656zm-12 201.24h-33.609v-195.24h33.609zm6 56.859h-45.609v0.046875c-3.3281 0-6 2.6719-6 6v207.24c0 1.5938 0.60937 3.0938 1.7344 4.2188s2.6719 1.7812 4.2656 1.7812h45.609c1.5938 0 3.0938-0.65625 4.2188-1.7812s1.7812-2.625 1.7812-4.2188v-207.24c0-1.5938-0.65625-3.1406-1.7812-4.2656s-2.625-1.7344-4.2188-1.7344zm-6 207.24h-33.609v-195.19h33.609zm-293.68-428.26h161.39c1.5938 0 3.1406-0.60938 4.2656-1.7344s1.7344-2.6719 1.7344-4.2656v-102c0-1.5938-0.60938-3.1406-1.7344-4.2656s-2.6719-1.7344-4.2656-1.7344h-161.39c-3.2812 0.046875-5.9062 2.7188-6 6v102c0.09375 3.2812 2.7188 5.9531 6 6zm86.766-102.47h68.625v90.469h-68.625zm-80.766 0h68.766v90.469h-68.766zm-295.69-157.92h150.61c13.734 0.65625 27.094-4.3125 37.031-13.781 9.9844-9.4688 15.609-22.594 15.609-36.328s-5.625-26.859-15.609-36.328c-9.9375-9.4688-23.297-14.438-37.031-13.781-4.0312 0-8.0625 0.42188-12 1.3125-8.1562-34.359-39.656-58.031-74.953-56.297-35.25 1.7344-64.312 28.406-69.047 63.375-24.047 3.0469-41.625 24.141-40.266 48.328s21.188 43.219 45.422 43.5zm0-80.062c3.1875-0.046875 5.7656-2.4844 6-5.625 1.5-30.844 25.781-55.781 56.625-57.984 30.797-2.25 58.453 18.891 64.359 49.219-11.391 5.9062-20.484 15.469-25.781 27.141-1.2656 3.0469 0.1875 6.5156 3.2344 7.7812 0.75 0.09375 1.5 0.09375 2.25 0 2.4375 0.046875 4.6875-1.4531 5.5312-3.7031 4.875-10.266 13.453-18.281 24-22.453 4.6406-1.5938 9.5156-2.25 14.391-1.9219 10.5-0.60938 20.766 3.1406 28.359 10.359 7.6406 7.2188 11.953 17.25 11.953 27.75s-4.3125 20.531-11.953 27.703c-7.5938 7.2188-17.859 10.969-28.359 10.406h-150.61c-9.375 0.51562-18.562-2.8125-25.359-9.2344-6.8438-6.4219-10.734-15.422-10.734-24.797s3.8906-18.375 10.734-24.797c6.7969-6.4688 15.984-9.7969 25.359-9.2344zm32.625-17.766h0.046875c7.2656-14.156 22.078-22.875 38.016-22.406 3.3281 0 6 2.6719 6 6 0 3.2812-2.6719 6-6 6-11.25-0.51562-21.844 5.3906-27.328 15.234-1.0781 2.1094-3.1875 3.4219-5.5312 3.4688-0.79688 0.1875-1.6406 0.1875-2.3906 0-1.4531-0.75-2.5312-2.0625-2.9531-3.6094-0.46875-1.5938-0.28125-3.2812 0.51562-4.6875z"/>
    </symbol>

    <style><![CDATA[
      :root { --ink:#0f1b2d; --muted:#63728a; }
      svg { background:#fff; font-family: Inter, -apple-system, BlinkMacSystemFont, "Segoe UI", Roboto, Arial, sans-serif; }
      .card { fill:url(#cardFill); stroke:#cfe2fb; stroke-width:1.4; filter:url(#softShadow); opacity:0; transform-box:fill-box; transform-origin:center; animation: cardIn .7s cubic-bezier(.2,.8,.2,1) forwards; }
      .card1 { animation-delay:.15s; }
      .card2 { animation-delay:3.1s; }
      .card3 { animation-delay:6.05s; }
      .headline { fill:var(--ink); font-size:19px; font-weight:700; letter-spacing:-.35px; opacity:0; animation:textIn .55s ease forwards; }
      .sub { fill:var(--muted); font-size:12px; font-weight:500; opacity:0; animation:textIn .55s ease forwards; }
      .t1 { animation-delay:.75s; } .s1 { animation-delay:.95s; }
      .t2 { animation-delay:3.65s; } .s2 { animation-delay:3.85s; }
      .t3 { animation-delay:6.6s; } .s3 { animation-delay:6.8s; }
      .checkGroup { opacity:0; transform:scale(.8); transform-box:fill-box; transform-origin:center; filter:url(#checkShadow); animation: checkPop .55s cubic-bezier(.2,1.2,.45,1) forwards; }
      .c1 { animation-delay:1.15s; } .c2 { animation-delay:4.05s; } .c3 { animation-delay:7s; }
      .flash { fill:#2fb36a; font-size:11.5px; font-weight:700; opacity:0; animation: flashFade 1.4s ease forwards; }
      .f1 { animation-delay:1.35s; } .f2 { animation-delay:4.25s; }
      .connectorBase { stroke:#e6f0ff; stroke-width:5; stroke-linecap:round; }
      .connector { stroke:url(#lineGradient); stroke-width:5; stroke-linecap:round; stroke-dasharray:44; stroke-dashoffset:44; }
      #conn1 { animation: drawLine 1.1s ease forwards; animation-delay:1.55s; }
      #conn2 { animation: drawLine 1.1s ease forwards; animation-delay:4.5s; }
      .cardIcon { opacity:0; transform:translateY(5px); transform-box:fill-box; transform-origin:center; animation: iconIn .55s ease forwards; }
      .i1 { animation-delay:.55s; } .i2 { animation-delay:3.45s; } .i3 { animation-delay:6.35s; }
      .skeleton { fill:#edf5ff; opacity:0; animation: skeletonIn .45s ease forwards; }
      .sk1 { animation-delay:1.05s; } .sk2 { animation-delay:1.15s; } .sk3 { animation-delay:6.95s; }
      @keyframes cardIn { from{opacity:0; transform:translateY(10px) scale(.985)} to{opacity:1; transform:translateY(0) scale(1)} }
      @keyframes textIn { from{opacity:0; transform:translateY(4px)} to{opacity:1; transform:translateY(0)} }
      @keyframes checkPop { 0%{opacity:0; transform:scale(.7)} 70%{opacity:1; transform:scale(1.05)} 100%{opacity:1; transform:scale(1)} }
      @keyframes flashFade { 0%{opacity:0} 18%{opacity:1} 72%{opacity:1} 100%{opacity:0} }
      @keyframes drawLine { to{stroke-dashoffset:0} }
      @keyframes iconIn { to{opacity:1; transform:translateY(0)} }
      @keyframes skeletonIn { to{opacity:1} }
      @media (prefers-reduced-motion: reduce) {
        .card,.headline,.sub,.checkGroup,.flash,.connector,.cardIcon,.skeleton { animation:none!important; opacity:1!important; transform:none!important; stroke-dashoffset:0!important; }
        .flash { opacity:0!important; }
        .flowDot { opacity:0!important; }
      }
    ]]></style>
  </defs>

  <!-- Connectors sit in the 48px gap between cards, inset 2px from card edges -->
  <line class="connectorBase" x1="394" y1="220" x2="438" y2="220"/>
  <line class="connectorBase" x1="642" y1="220" x2="686" y2="220"/>
  <line id="conn1" class="connector" x1="394" y1="220" x2="438" y2="220"/>
  <line id="conn2" class="connector" x1="642" y1="220" x2="686" y2="220"/>

  <!-- Dot travels in the gap only, then fades out (never rests on card edge) -->
  <g transform="translate(394, 220)">
    <circle r="5" fill="#fff" stroke="#3b82f6" stroke-width="3" opacity="0">
      <animate attributeName="opacity" values="0;1;1;0" keyTimes="0;0.08;0.82;1" dur="1.1s" begin="1.55s" fill="freeze"/>
      <animateTransform attributeName="transform" type="translate" from="0 0" to="44 0" dur="1.1s" begin="1.55s" fill="freeze"/>
    </circle>
  </g>
  <g transform="translate(642, 220)">
    <circle r="5" fill="#fff" stroke="#3b82f6" stroke-width="3" opacity="0">
      <animate attributeName="opacity" values="0;1;1;0" keyTimes="0;0.08;0.82;1" dur="1.1s" begin="4.5s" fill="freeze"/>
      <animateTransform attributeName="transform" type="translate" from="0 0" to="44 0" dur="1.1s" begin="4.5s" fill="freeze"/>
    </circle>
  </g>

  <!-- Card 1 -->
  <g id="step1">
    <rect class="card card1" x="192" y="140" width="200" height="160" rx="18"/>
    <g class="checkGroup c1">
      <circle cx="364" cy="166" r="19" fill="#2fb36a"/>
      <path d="M355 165.5l5.5 5.5 12-13.5" fill="none" stroke="#fff" stroke-width="3.5" stroke-linecap="round" stroke-linejoin="round"/>
    </g>
    <g class="cardIcon i1">
      <rect x="208" y="158" width="48" height="66" rx="7" fill="#fff" stroke="#162033" stroke-width="1.3"/>
      <rect x="213" y="165" width="38" height="48" rx="3" fill="#fafcff" stroke="#dce3ee" stroke-width=".8"/>
      <use href="#icon-drswift-leaf" x="221" y="169" width="22" height="24"/>
      <rect x="218" y="190" width="28" height="12" rx="3" fill="#fff" stroke="#dce3ee" stroke-width=".7"/>
      <rect x="222" y="194" width="18" height="2" rx="1" fill="#1e5bd7" opacity=".45"/>
      <rect x="218" y="206" width="28" height="7" rx="3.5" fill="#1e5bd7"/>
    </g>
    <text class="headline t1" x="208" y="248">Book your test</text>
    <text class="sub s1" x="208" y="266">Choose test, date &amp; address</text>
    <rect class="skeleton sk1" x="208" y="276" width="108" height="8" rx="4"/>
    <text class="flash f1" x="208" y="292">Booking confirmed</text>
  </g>

  <!-- Card 2 -->
  <g id="step2">
    <rect class="card card2" x="440" y="140" width="200" height="160" rx="18"/>
    <g class="checkGroup c2">
      <circle cx="612" cy="166" r="19" fill="#2fb36a"/>
      <path d="M603 165.5l5.5 5.5 12-13.5" fill="none" stroke="#fff" stroke-width="3.5" stroke-linecap="round" stroke-linejoin="round"/>
    </g>
    <g class="cardIcon i2">
      <use href="#icon-house" x="448" y="156" width="64" height="55"/>
    </g>
    <text class="headline t2" x="456" y="248">Home collection</text>
    <text class="sub s2" x="456" y="266">Sample picked up safely</text>
    <text class="flash f2" x="456" y="292">Sample collected</text>
  </g>

  <!-- Card 3 -->
  <g id="step3">
    <rect class="card card3" x="688" y="140" width="200" height="160" rx="18"/>
    <g class="checkGroup c3">
      <circle cx="860" cy="166" r="19" fill="#2fb36a"/>
      <path d="M851 165.5l5.5 5.5 12-13.5" fill="none" stroke="#fff" stroke-width="3.5" stroke-linecap="round" stroke-linejoin="round"/>
    </g>
    <g class="cardIcon i3">
      <circle cx="716" cy="192" r="20" fill="#eef6ff" stroke="#b9d8ff" stroke-width="1.5"/>
      <path d="M716 180v10l7 5" fill="none" stroke="#3b82f6" stroke-width="3" stroke-linecap="round" stroke-linejoin="round"/>
      <rect x="744" y="182" width="56" height="22" rx="5" fill="#fff" stroke="#dce3ee" stroke-width=".8"/>
      <circle cx="754" cy="193" r="3.5" fill="#2fb36a"/>
      <rect x="762" y="190" width="32" height="5" rx="2.5" fill="#edf5ff"/>
    </g>
    <text class="headline t3" x="704" y="248">Results ready</text>
    <text class="sub s3" x="704" y="266">View insights online</text>
    <rect class="skeleton sk3" x="704" y="276" width="96" height="8" rx="4"/>
  </g>
</svg>
