<?xml version="1.0" encoding="UTF-8"?>
<svg width="1200pt" height="1200pt" version="1.1" viewBox="0 0 1200 1200" xmlns="http://www.w3.org/2000/svg">
 <path d="m524.86 626.29c0-22.969-13.781-43.641-34.969-52.453-21.234-8.7656-45.609-3.9375-61.875 12.281-16.219 16.172-21.094 40.594-12.375 61.781 8.7656 21.234 29.391 35.062 52.359 35.156 15.094 0 29.531-5.9531 40.219-16.594s16.641-25.125 16.641-40.172zm-101.53 0h0.046875c0-18.141 10.922-34.453 27.656-41.391 16.734-6.8906 36-3.0469 48.797 9.75 12.797 12.844 16.594 32.109 9.6094 48.844s-23.344 27.609-41.438 27.562c-24.656-0.09375-44.625-20.109-44.625-44.766zm-139.55 141.71v138.84c0 1.5938 0.65625 3.0938 1.7812 4.2188s2.625 1.7812 4.2188 1.7812h139.22c1.5938 0 3.1406-0.65625 4.2656-1.7812s1.7344-2.625 1.7344-4.2188v-138.84c0-1.5938-0.60938-3.1406-1.7344-4.2656s-2.6719-1.7344-4.2656-1.7344h-139.22c-3.2812 0-6 2.6719-6 6zm81.609 6h57.609v57.609h-57.609zm0 69.609h57.609v57.703h-57.609zm-69.609-69.609h57.609v57.609h-57.609zm0 69.609h57.609v57.703h-57.609zm305.16 132v-37.547c0-3.3281 2.7188-6 6-6 1.5938 0 3.1406 0.60938 4.2656 1.7344s1.7344 2.6719 1.7344 4.2656v36.844-0.046875c0 1.5938-0.60938 3.1406-1.7344 4.2656s-2.6719 1.7344-4.2656 1.7344c-3.2812 0-6-2.6719-6-6zm521.53 65.391h-65.391v-50.156h13.078c15.562-0.046875 30.188-7.3125 39.609-19.688 9.375-12.375 12.516-28.453 8.3906-43.453l-50.156-186.94c-2.0156-7.4062-8.7656-12.562-16.453-12.562s-14.391 5.1562-16.406 12.562l-51.141 186.94c-4.125 15-0.98438 31.078 8.3906 43.453 9.4219 12.375 24.047 19.641 39.609 19.688h13.078v49.453h-42.469v-28.453c0-3.3281-2.7188-6-6-6-3.3281 0-6 2.6719-6 6v28.453h-110.39v-555.37h93c9.6094 0.046875 17.391 7.875 17.391 17.531v282c0 3.2812 2.6719 6 6 6 3.2812 0 6-2.7188 6-6v-282c0-16.266-13.172-29.484-29.391-29.531h-93v-57.375h15.703c1.5938 0 3.0938-0.60938 4.2188-1.7344s1.7812-2.6719 1.7812-4.2656v-17.766h76.922c1.5938 0 3.0938-0.60938 4.2188-1.7344s1.7812-2.6719 1.7812-4.2656v-43.641c23.531-3.1875 40.594-24.047 39-47.766-1.5469-23.672-21.234-42.094-45-42.094s-43.453 18.422-45.047 42.094c-1.5469 23.719 15.516 44.578 39.047 47.766v37.547h-72c-2.8594-13.969-15.141-24-29.391-24h-126.14v-85.547c23.531-3.1875 40.594-24.047 39.047-47.766-1.5938-23.672-21.281-42.094-45.047-42.094s-43.406 18.422-45 42.094c-1.5938 23.719 15.469 44.578 39 47.766v85.688l-126.71-0.046875c-16.594 0-30 13.453-30 30v24c0 1.5938 0.60938 3.1406 1.7344 4.2656s2.6719 1.7344 4.2656 1.7344h15.703v129.52l-126.47-102.61c-2.2031-1.7812-5.3438-1.7812-7.5469 0l-196.69 159.71v-187.45c23.531-3.1406 40.594-24 39-47.719-1.5938-23.672-21.234-42.094-45-42.094s-43.453 18.422-45.047 42.094c-1.5469 23.719 15.516 44.578 39.047 47.719v197.06l-81.609 66.141c-1.9219 1.6406-2.6719 4.3125-1.7812 6.7031 0.84375 2.3906 3.0938 3.9375 5.625 3.9375h38.156v207.61c0 1.5938 0.60938 3.1406 1.7344 4.2656s2.6719 1.7344 4.2656 1.7344 3.1406-0.60938 4.2656-1.7344 1.7344-2.6719 1.7344-4.2656v-213.47c0-1.5938-0.60938-3.1406-1.7344-4.2656s-2.6719-1.7344-4.2656-1.7344h-27.234l273.24-221.86 130.55 105.94c0.65625 2.4844 2.8594 4.2188 5.3906 4.3125l137.39 111.61h-27.703c-3.2812 0-6 2.6719-6 6v357.37h-67.781v-198.61c0-1.5938-0.65625-3.1406-1.7812-4.2656s-2.625-1.7344-4.2188-1.7344h-124.08c-3.3281 0-6 2.6719-6 6v198.61h-184.92c12.797-10.547 17.625-27.984 11.953-43.547-5.625-15.609-20.484-25.922-37.031-25.828h-2.625c-3.5156-17.109-18.562-29.344-36-29.297-6.7031 0-13.266 1.875-18.984 5.4375-10.031-15.562-27.234-24.891-45.703-24.844-27.891 0.046875-51.281 21-54.375 48.703h-12c-16.594-0.09375-31.406 10.219-37.031 25.828-5.6719 15.562-0.84375 33 11.953 43.547h-21.469c-3.3281 0-6 2.6719-6 6 0.046875 3.2812 2.7188 5.9062 6 6h1044.9c3.2812-0.09375 5.9531-2.7188 6-6 0-1.5938-0.60938-3.1406-1.7344-4.2656s-2.6719-1.7344-4.2656-1.7344zm-176.76-743.39c0-13.406 8.1094-25.5 20.484-30.609s26.578-2.2969 36.094 7.1719c9.4688 9.4688 12.281 23.719 7.1719 36.094-5.1562 12.375-17.203 20.438-30.609 20.438-8.7656 0-17.203-3.4688-23.438-9.7031-6.1875-6.1875-9.7031-14.625-9.7031-23.391zm-717.71 72.938c-0.046875-13.406 7.9688-25.5 20.344-30.656s26.672-2.3906 36.141 7.0781c9.5156 9.4688 12.375 23.719 7.2656 36.141-5.1562 12.375-17.203 20.438-30.609 20.438-18.234-0.046875-33-14.766-33.141-33zm65.297 666.94-169.45 0.046875c-7.5469 0.46875-15-2.1562-20.531-7.3125-5.4844-5.2031-8.625-12.422-8.625-20.016 0-7.5469 3.1406-14.766 8.625-19.969 5.5312-5.1562 12.984-7.8281 20.531-7.3125h18.141-0.046875c3.3281-0.046875 5.9531-2.7188 6-6 0.046875-19.875 13.828-37.078 33.188-41.484 19.406-4.3594 39.234 5.2031 47.812 23.109 0.84375 1.7344 2.4375 3 4.3594 3.375 1.8281 0.28125 3.75-0.28125 5.1562-1.5469 6.7969-7.1719 17.25-9.4219 26.391-5.7188 9.1875 3.7031 15.094 12.656 15 22.5 0.14062 3.2344 2.7656 5.7656 6 5.7656h7.9219c7.5469-0.51562 14.953 2.1562 20.484 7.3125 5.5312 5.2031 8.6719 12.422 8.6719 19.969 0 7.5938-3.1406 14.812-8.6719 20.016-5.5312 5.1562-12.938 7.7812-20.484 7.3125zm334.08 2.7656-111.38 0.046875v-156h112.08zm0-168-111.38 0.046875v-24.609h112.08zm78.375-646.92-0.046875 0.046875c-0.046875-13.406 8.0156-25.547 20.391-30.703s26.625-2.3438 36.141 7.125c9.4688 9.4219 12.328 23.719 7.2188 36.094s-17.203 20.484-30.609 20.484c-17.906-0.32812-32.344-14.766-32.625-32.672zm162 253.22-0.046875 561.74h-147.71v-351.37h38.391c2.5312 0 4.8281-1.6406 5.625-4.0312 0.84375-2.3906 0.09375-5.0625-1.875-6.6562l-151.82-123.24v-139.45h257.9zm-264-75.375-15.141 0.046874v-17.438c0-9.9375 8.0625-18 18-18h265.31c9.9375 0 18 8.0625 18 18v17.766h-285.61zm428.26 575.68c-11.719-0.1875-22.734-5.7656-29.766-15.188-7.0781-9.375-9.375-21.516-6.2344-32.812l50.297-186.84c0.51562-2.2031 2.4844-3.7969 4.7812-3.7031 2.3438-0.14062 4.4062 1.4531 4.9219 3.7031l50.859 187.08c3.1875 11.438 0.79687 23.719-6.4219 33.141s-18.422 14.906-30.281 14.859zm-67.781-451.92c0-1.5938-0.65625-3.1406-1.7812-4.2656s-2.625-1.7344-4.2188-1.7344h-45.609c-3.3281 0-6 2.6719-6 6v207.24c0 1.5938 0.60937 3.1406 1.7344 4.2656s2.6719 1.7344 4.2656 1.7344h45.609c1.5938 0 3.0938-0.60938 4.2188-1.7344s1.7812-2.6719 1.7812-4.2656zm-12 201.24h-33.609v-195.24h33.609zm6 56.859h-45.609v0.046875c-3.3281 0-6 2.6719-6 6v207.24c0 1.5938 0.60937 3.0938 1.7344 4.2188s2.6719 1.7812 4.2656 1.7812h45.609c1.5938 0 3.0938-0.65625 4.2188-1.7812s1.7812-2.625 1.7812-4.2188v-207.24c0-1.5938-0.65625-3.1406-1.7812-4.2656s-2.625-1.7344-4.2188-1.7344zm-6 207.24h-33.609v-195.19h33.609zm-293.68-428.26h161.39c1.5938 0 3.1406-0.60938 4.2656-1.7344s1.7344-2.6719 1.7344-4.2656v-102c0-1.5938-0.60938-3.1406-1.7344-4.2656s-2.6719-1.7344-4.2656-1.7344h-161.39c-3.2812 0.046875-5.9062 2.7188-6 6v102c0.09375 3.2812 2.7188 5.9531 6 6zm86.766-102.47h68.625v90.469h-68.625zm-80.766 0h68.766v90.469h-68.766zm-295.69-157.92h150.61c13.734 0.65625 27.094-4.3125 37.031-13.781 9.9844-9.4688 15.609-22.594 15.609-36.328s-5.625-26.859-15.609-36.328c-9.9375-9.4688-23.297-14.438-37.031-13.781-4.0312 0-8.0625 0.42188-12 1.3125-8.1562-34.359-39.656-58.031-74.953-56.297-35.25 1.7344-64.312 28.406-69.047 63.375-24.047 3.0469-41.625 24.141-40.266 48.328s21.188 43.219 45.422 43.5zm0-80.062c3.1875-0.046875 5.7656-2.4844 6-5.625 1.5-30.844 25.781-55.781 56.625-57.984 30.797-2.25 58.453 18.891 64.359 49.219-11.391 5.9062-20.484 15.469-25.781 27.141-1.2656 3.0469 0.1875 6.5156 3.2344 7.7812 0.75 0.09375 1.5 0.09375 2.25 0 2.4375 0.046875 4.6875-1.4531 5.5312-3.7031 4.875-10.266 13.453-18.281 24-22.453 4.6406-1.5938 9.5156-2.25 14.391-1.9219 10.5-0.60938 20.766 3.1406 28.359 10.359 7.6406 7.2188 11.953 17.25 11.953 27.75s-4.3125 20.531-11.953 27.703c-7.5938 7.2188-17.859 10.969-28.359 10.406h-150.61c-9.375 0.51562-18.562-2.8125-25.359-9.2344-6.8438-6.4219-10.734-15.422-10.734-24.797s3.8906-18.375 10.734-24.797c6.7969-6.4688 15.984-9.7969 25.359-9.2344zm32.625-17.766h0.046875c7.2656-14.156 22.078-22.875 38.016-22.406 3.3281 0 6 2.6719 6 6 0 3.2812-2.6719 6-6 6-11.25-0.51562-21.844 5.3906-27.328 15.234-1.0781 2.1094-3.1875 3.4219-5.5312 3.4688-0.79688 0.1875-1.6406 0.1875-2.3906 0-1.4531-0.75-2.5312-2.0625-2.9531-3.6094-0.46875-1.5938-0.28125-3.2812 0.51562-4.6875z"/>
</svg>
