<svg xmlns="http://www.w3.org/2000/svg" width="500" height="500" viewBox="0 0 479 521" preserveAspectRatio="xMidYMid meet">
<defs>
<linearGradient id="grad-purple" gradientUnits="userSpaceOnUse" x1="175" y1="32" x2="304" y2="207"><stop offset="0" stop-color="#8532e4" /><stop offset="1" stop-color="#43109b" /></linearGradient>
<linearGradient id="grad-red" gradientUnits="userSpaceOnUse" x1="31" y1="150" x2="207" y2="300"><stop offset="0" stop-color="#f1561e" /><stop offset="1" stop-color="#b82103" /></linearGradient>
<linearGradient id="grad-yellow" gradientUnits="userSpaceOnUse" x1="96" y1="310" x2="211" y2="419"><stop offset="0" stop-color="#ffd644" /><stop offset="1" stop-color="#ffb000" /></linearGradient>
<linearGradient id="grad-green" gradientUnits="userSpaceOnUse" x1="302" y1="321" x2="402" y2="399"><stop offset="0" stop-color="#6bd87a" /><stop offset="1" stop-color="#28a343" /></linearGradient>
<linearGradient id="grad-blue" gradientUnits="userSpaceOnUse" x1="213" y1="349" x2="314" y2="488"><stop offset="0" stop-color="#20a8f7" /><stop offset="1" stop-color="#006fcf" /></linearGradient>
</defs>
<g id="DrSwiftLeafLogo" stroke="none" stroke-width="0" stroke-linejoin="round">
<path id="leaf-purple" d="M 240.0 32.0 C 239.4 32.6 238.4 33.6 236.8 35.1 C 235.1 36.7 233.0 38.8 230.2 41.4 C 227.5 44.0 224.3 47.1 220.5 50.8 C 216.7 54.4 211.4 59.3 207.5 63.2 C 203.6 67.2 200.1 71.0 196.9 74.6 C 193.8 78.1 191.1 81.5 188.8 84.7 C 186.5 87.9 184.6 90.8 183.1 93.6 C 181.6 96.4 180.8 98.9 179.9 101.4 C 178.9 103.9 178.1 106.3 177.5 108.6 C 176.9 111.0 176.4 113.2 176.0 115.4 C 175.6 117.5 175.4 119.6 175.4 121.6 C 175.3 123.6 175.5 125.5 175.6 127.4 C 175.8 129.2 176.0 131.1 176.3 132.9 C 176.6 134.7 177.0 136.4 177.4 138.1 C 177.9 139.8 178.4 141.5 179.0 143.1 C 179.6 144.8 179.9 146.0 181.0 147.9 C 182.1 149.8 183.6 152.0 185.6 154.6 C 187.5 157.2 189.9 160.1 192.7 163.4 C 195.5 166.6 198.7 170.2 202.4 174.1 C 206.0 178.0 211.0 183.3 214.6 186.9 C 218.3 190.4 221.5 193.3 224.2 195.5 C 227.0 197.7 229.4 199.2 231.2 200.0 C 233.1 200.8 234.6 200.9 235.6 200.4 C 236.6 199.8 236.8 198.2 237.4 196.6 C 238.0 195.1 238.6 193.3 239.2 191.2 C 239.8 189.1 240.4 186.7 241.1 184.1 C 241.7 181.4 242.3 178.5 243.0 175.2 C 243.7 172.0 244.4 168.6 245.0 164.8 C 245.6 160.9 246.0 156.6 246.3 151.9 C 246.6 147.3 246.8 142.2 246.9 136.8 C 247.0 131.4 247.0 125.6 246.9 119.4 C 246.7 113.2 246.3 105.2 246.1 99.6 C 246.0 94.1 246.0 89.6 246.1 86.1 C 246.2 82.7 246.4 80.2 246.7 78.9 C 247.0 77.5 247.4 77.2 248.0 77.9 C 248.6 78.6 249.4 81.2 250.0 83.1 C 250.6 85.0 251.3 87.1 251.9 89.2 C 252.5 91.4 253.1 93.8 253.6 96.2 C 254.2 98.7 254.7 101.4 255.2 104.1 C 255.8 106.9 256.3 109.9 256.8 112.9 C 257.2 115.8 257.5 118.8 257.8 121.8 C 258.1 124.8 258.3 127.9 258.4 130.9 C 258.6 134.0 258.6 137.1 258.6 140.2 C 258.6 143.4 258.5 146.6 258.4 149.8 C 258.2 152.9 258.0 156.1 257.7 159.2 C 257.4 162.3 257.0 165.4 256.6 168.6 C 256.1 171.7 255.6 174.8 255.0 177.9 C 254.4 181.0 253.1 184.9 253.0 187.1 C 252.9 189.4 253.2 190.8 254.1 191.4 C 255.0 192.0 256.4 191.7 258.4 190.6 C 260.3 189.5 262.8 187.6 265.8 184.9 C 268.7 182.1 273.1 177.6 276.2 174.1 C 279.4 170.7 282.3 167.4 284.8 164.3 C 287.3 161.2 289.6 158.2 291.4 155.4 C 293.3 152.6 294.9 150.0 296.1 147.5 C 297.4 145.0 298.1 142.8 298.9 140.5 C 299.7 138.2 300.3 136.0 300.9 133.8 C 301.4 131.5 301.8 129.4 302.1 127.2 C 302.4 125.1 302.6 123.0 302.6 121.0 C 302.7 119.0 302.5 116.9 302.4 115.0 C 302.2 113.1 302.0 111.2 301.7 109.3 C 301.4 107.5 301.0 105.7 300.6 103.9 C 300.1 102.2 299.6 100.5 299.0 98.9 C 298.4 97.2 298.1 96.0 297.0 94.1 C 295.9 92.2 294.5 90.1 292.6 87.6 C 290.8 85.2 288.5 82.4 285.9 79.4 C 283.2 76.3 280.2 73.0 276.8 69.4 C 273.3 65.8 268.6 61.1 265.2 57.6 C 261.9 54.2 259.0 51.3 256.6 48.8 C 254.2 46.4 252.3 44.4 250.9 42.9 C 249.4 41.5 249.8 41.8 248.0 40.0 C 246.2 38.2 241.4 33.4 240.0 32.0 Z" fill="url(#grad-purple)" />
<path id="leaf-red" d="M 31.0 175.0 C 31.2 175.9 31.7 177.5 32.3 179.9 C 33.0 182.4 33.8 185.7 34.9 189.8 C 36.0 193.9 37.3 198.9 38.9 204.6 C 40.4 210.4 42.5 218.4 44.1 224.4 C 45.8 230.4 47.4 235.7 48.9 240.5 C 50.4 245.3 51.8 249.4 53.1 253.0 C 54.5 256.6 55.7 259.5 56.9 261.9 C 58.0 264.2 59.0 265.5 60.1 267.1 C 61.2 268.8 62.4 270.4 63.5 271.9 C 64.6 273.4 65.8 274.8 67.0 276.1 C 68.2 277.5 69.4 278.7 70.6 279.9 C 71.9 281.0 73.0 282.1 74.4 283.1 C 75.7 284.2 77.2 285.2 78.8 286.2 C 80.4 287.3 82.1 288.3 83.9 289.2 C 85.8 290.2 87.7 291.2 89.8 292.1 C 91.8 293.1 94.1 294.1 96.2 294.9 C 98.4 295.7 100.6 296.4 102.7 296.9 C 104.8 297.5 106.9 298.0 109.1 298.3 C 111.2 298.7 113.3 298.9 115.4 299.0 C 117.5 299.1 119.0 299.2 121.6 299.0 C 124.2 298.8 127.3 298.3 130.9 297.6 C 134.5 296.9 138.5 296.0 143.1 294.9 C 147.7 293.7 152.8 292.4 158.4 290.8 C 164.0 289.1 171.7 287.2 176.6 285.2 C 181.6 283.3 185.4 281.2 188.2 279.0 C 190.9 276.8 192.6 274.5 193.1 272.0 C 193.6 269.5 193.0 267.0 191.2 264.2 C 189.5 261.5 185.5 258.4 182.8 255.8 C 180.0 253.1 177.3 250.5 174.7 248.1 C 172.1 245.7 169.5 243.5 167.1 241.4 C 164.6 239.3 162.2 237.3 159.9 235.5 C 157.6 233.7 155.4 232.2 153.1 230.5 C 150.8 228.8 148.4 227.2 146.0 225.6 C 143.6 223.9 141.1 222.3 138.5 220.7 C 135.9 219.1 133.3 217.5 130.6 215.9 C 127.9 214.3 125.2 212.7 122.4 211.1 C 119.6 209.6 116.8 208.1 113.9 206.7 C 111.1 205.3 108.2 203.9 105.3 202.6 C 102.4 201.2 99.5 200.0 96.5 198.8 C 93.5 197.5 89.9 196.2 87.5 195.2 C 85.1 194.3 83.4 193.4 82.4 192.8 C 81.3 192.2 80.9 191.7 81.1 191.4 C 81.4 191.2 82.2 191.1 83.8 191.1 C 85.3 191.2 87.9 191.5 90.2 191.9 C 92.6 192.2 95.0 192.8 97.6 193.4 C 100.2 194.0 103.0 194.8 105.9 195.6 C 108.8 196.5 111.8 197.5 115.0 198.6 C 118.2 199.8 121.7 201.1 125.0 202.4 C 128.3 203.7 131.5 205.1 134.6 206.5 C 137.8 207.9 140.9 209.4 143.9 211.0 C 146.9 212.6 149.9 214.2 152.8 215.9 C 155.6 217.6 158.4 219.3 161.2 221.1 C 164.1 223.0 166.9 224.9 169.6 226.9 C 172.4 228.9 175.1 231.0 177.9 233.1 C 180.6 235.3 183.3 237.5 186.0 239.9 C 188.7 242.2 191.9 245.7 194.0 247.1 C 196.1 248.5 197.7 248.9 198.8 248.2 C 199.9 247.6 200.4 245.9 200.4 243.2 C 200.4 240.6 199.9 236.9 198.9 232.1 C 197.8 227.4 195.6 220.1 194.1 214.9 C 192.6 209.7 191.2 205.0 189.9 200.9 C 188.5 196.8 187.3 193.3 186.1 190.3 C 185.0 187.3 183.9 184.9 182.9 183.0 C 181.9 181.1 181.1 180.3 180.1 179.0 C 179.2 177.7 178.1 176.4 177.1 175.2 C 176.0 173.9 174.9 172.7 173.7 171.6 C 172.5 170.4 171.3 169.2 170.0 168.1 C 168.7 167.0 167.3 165.9 166.0 164.9 C 164.7 163.8 163.3 162.9 161.9 161.9 C 160.6 161.0 159.2 160.1 157.8 159.3 C 156.4 158.5 155.0 157.7 153.6 157.0 C 152.2 156.3 150.9 155.6 149.4 155.0 C 147.8 154.4 146.1 153.9 144.2 153.4 C 142.4 152.9 140.4 152.5 138.2 152.1 C 136.1 151.8 133.8 151.5 131.4 151.2 C 128.9 151.0 126.7 150.7 123.6 150.8 C 120.6 150.8 117.0 151.2 112.9 151.8 C 108.9 152.4 104.3 153.3 99.3 154.4 C 94.3 155.6 88.8 157.0 82.8 158.6 C 76.7 160.3 68.9 162.7 63.2 164.4 C 57.6 166.1 52.7 167.5 48.6 168.7 C 44.6 169.9 41.3 170.8 38.9 171.6 C 36.4 172.3 35.3 172.4 34.0 173.0 C 32.7 173.6 31.5 174.6 31.0 175.0 Z" fill="url(#grad-red)" />
<path id="leaf-yellow" d="M 96.0 411.0 C 96.5 411.1 98.0 411.2 99.9 411.4 C 101.9 411.7 104.5 411.9 107.8 412.3 C 111.1 412.7 115.0 413.1 119.6 413.6 C 124.2 414.1 130.5 415.0 135.4 415.4 C 140.2 415.8 144.7 416.0 148.8 416.1 C 152.8 416.1 156.5 416.0 159.8 415.7 C 163.0 415.4 165.9 414.9 168.4 414.2 C 170.9 413.6 172.7 412.6 174.6 411.8 C 176.6 410.9 178.4 410.0 180.1 409.1 C 181.7 408.2 183.3 407.3 184.7 406.4 C 186.1 405.4 187.4 404.5 188.5 403.5 C 189.6 402.5 190.5 401.6 191.5 400.5 C 192.5 399.4 193.4 398.3 194.2 397.2 C 195.1 396.0 196.0 394.8 196.8 393.6 C 197.5 392.3 198.3 391.0 199.0 389.6 C 199.7 388.3 200.4 387.2 201.0 385.4 C 201.6 383.5 202.3 381.3 202.9 378.6 C 203.5 376.0 204.1 372.9 204.6 369.4 C 205.2 365.9 205.7 362.0 206.2 357.6 C 206.8 353.3 207.8 347.3 207.8 343.4 C 207.7 339.5 207.1 336.4 205.9 334.1 C 204.8 331.9 203.1 330.5 200.8 329.9 C 198.6 329.3 195.7 329.5 192.4 330.6 C 189.0 331.7 184.5 334.3 180.6 336.4 C 176.8 338.4 173.0 340.6 169.4 342.8 C 165.7 345.1 162.1 347.4 158.6 349.9 C 155.1 352.4 151.7 355.0 148.4 357.8 C 145.0 360.5 141.4 363.9 138.6 366.2 C 135.9 368.6 133.6 370.4 131.8 371.7 C 130.0 373.0 128.7 373.8 127.9 374.1 C 127.1 374.3 126.8 374.1 127.0 373.4 C 127.2 372.6 128.2 370.9 129.0 369.6 C 129.8 368.3 130.6 367.0 131.6 365.6 C 132.6 364.2 133.7 362.8 134.9 361.4 C 136.1 359.9 137.4 358.4 138.8 356.9 C 140.1 355.3 141.4 353.8 143.2 352.1 C 145.1 350.4 147.2 348.6 149.6 346.7 C 152.1 344.8 154.8 342.7 157.9 340.6 C 160.9 338.4 164.3 336.1 168.0 333.8 C 171.7 331.4 177.1 328.5 180.0 326.2 C 182.9 324.0 184.8 322.0 185.6 320.3 C 186.4 318.6 186.2 317.1 184.9 315.9 C 183.6 314.7 181.2 313.8 177.8 313.1 C 174.3 312.4 168.4 312.1 164.2 311.9 C 160.1 311.6 156.3 311.5 152.8 311.5 C 149.3 311.5 146.2 311.7 143.4 312.0 C 140.7 312.3 138.2 312.8 136.1 313.4 C 134.0 314.0 132.6 314.7 130.9 315.6 C 129.1 316.6 127.4 317.7 125.7 319.0 C 124.0 320.3 122.3 321.8 120.6 323.5 C 118.9 325.2 117.2 327.1 115.5 329.1 C 113.8 331.2 112.0 333.3 110.5 335.9 C 109.0 338.4 107.6 341.3 106.3 344.6 C 105.1 347.8 103.9 351.3 102.9 355.2 C 101.9 359.1 101.1 363.2 100.4 367.8 C 99.7 372.3 99.1 378.0 98.6 382.2 C 98.1 386.5 97.7 390.1 97.3 393.1 C 96.9 396.1 96.7 398.6 96.4 400.4 C 96.2 402.2 96.1 402.2 96.0 404.0 C 95.9 405.8 96.0 410.2 96.0 411.0 Z" fill="url(#grad-yellow)" />
<path id="leaf-green" d="M 401.0 373.0 C 400.8 372.7 400.3 371.9 399.7 370.8 C 399.0 369.6 398.2 368.1 397.1 366.2 C 396.0 364.4 394.7 362.1 393.1 359.5 C 391.6 356.9 389.6 353.3 387.9 350.5 C 386.1 347.7 384.3 345.2 382.6 342.8 C 380.8 340.5 379.0 338.3 377.2 336.4 C 375.4 334.5 373.6 332.8 371.8 331.4 C 369.9 329.9 368.1 328.7 366.2 327.6 C 364.4 326.5 362.6 325.6 360.8 324.9 C 359.0 324.1 357.2 323.5 355.4 323.1 C 353.7 322.7 351.9 322.5 350.1 322.4 C 348.4 322.3 346.8 322.3 344.9 322.6 C 343.0 322.9 340.9 323.4 338.8 324.1 C 336.6 324.8 334.2 325.8 331.8 326.9 C 329.3 328.0 326.6 329.3 323.9 330.9 C 321.1 332.4 317.3 334.4 315.1 336.1 C 312.9 337.8 311.4 339.5 310.7 341.2 C 309.9 342.8 309.9 344.5 310.6 346.1 C 311.2 347.7 312.6 349.2 314.8 350.8 C 316.9 352.3 320.4 353.9 323.2 355.2 C 326.1 356.6 329.0 357.9 331.9 359.1 C 334.9 360.3 337.8 361.4 340.8 362.4 C 343.8 363.4 346.8 364.2 349.9 365.0 C 352.9 365.8 356.8 366.4 359.1 367.0 C 361.5 367.6 363.0 368.1 363.9 368.4 C 364.7 368.8 364.8 369.1 364.1 369.3 C 363.5 369.5 362.0 369.6 359.9 369.6 C 357.7 369.6 354.0 369.6 351.1 369.4 C 348.2 369.2 345.3 368.8 342.4 368.3 C 339.5 367.8 336.5 367.2 333.6 366.4 C 330.7 365.7 327.8 364.8 324.9 363.8 C 322.0 362.7 318.5 361.0 316.1 360.2 C 313.8 359.5 312.0 359.3 310.8 359.5 C 309.5 359.7 308.9 360.4 308.8 361.5 C 308.6 362.6 309.1 364.2 310.1 366.2 C 311.1 368.3 313.3 371.4 314.9 373.8 C 316.4 376.1 317.9 378.2 319.4 380.1 C 320.9 382.0 322.4 383.7 323.8 385.2 C 325.2 386.7 326.6 388.0 328.0 389.1 C 329.4 390.2 330.6 391.1 332.0 391.9 C 333.4 392.7 335.0 393.4 336.6 393.9 C 338.3 394.5 340.0 395.0 341.9 395.3 C 343.7 395.7 345.7 395.9 347.8 396.0 C 349.8 396.1 352.0 396.2 354.2 396.0 C 356.5 395.8 358.9 395.3 361.4 394.6 C 363.9 393.9 366.4 393.0 369.1 391.9 C 371.8 390.7 374.6 389.4 377.5 387.8 C 380.4 386.1 383.9 383.9 386.5 382.2 C 389.1 380.6 391.4 379.3 393.2 378.1 C 395.1 377.0 396.6 376.1 397.8 375.4 C 398.9 374.7 399.5 374.4 400.0 374.0 C 400.5 373.6 400.9 373.1 401.0 373.0 Z" fill="url(#grad-green)" />
<path id="leaf-blue" d="M 270.0 487.0 C 270.3 486.7 271.1 485.7 272.2 484.4 C 273.3 483.1 274.7 481.3 276.6 479.1 C 278.4 476.9 280.6 474.3 283.1 471.2 C 285.7 468.2 289.2 464.1 291.9 460.8 C 294.5 457.4 296.9 454.2 298.9 451.1 C 301.0 448.1 302.8 445.1 304.3 442.4 C 305.8 439.6 307.1 437.0 308.0 434.5 C 308.9 432.0 309.5 429.8 310.0 427.5 C 310.5 425.2 311.0 423.1 311.2 421.0 C 311.5 418.9 311.7 416.9 311.8 415.0 C 311.8 413.1 311.7 411.2 311.5 409.5 C 311.3 407.8 310.9 406.1 310.5 404.5 C 310.1 402.9 309.7 401.4 309.2 399.9 C 308.8 398.5 308.3 397.1 307.8 395.8 C 307.2 394.5 306.6 393.3 306.0 392.1 C 305.4 391.0 305.0 390.2 304.0 388.9 C 303.0 387.6 301.6 386.0 299.9 384.2 C 298.1 382.5 296.1 380.5 293.6 378.2 C 291.2 376.0 288.4 373.6 285.2 370.9 C 282.1 368.2 277.9 364.0 274.8 362.1 C 271.6 360.2 268.9 359.4 266.6 359.5 C 264.2 359.6 262.3 360.8 260.7 363.0 C 259.1 365.2 257.9 368.4 257.1 372.6 C 256.3 376.9 256.2 383.4 255.9 388.4 C 255.6 393.4 255.4 398.2 255.4 402.7 C 255.3 407.2 255.4 411.5 255.6 415.6 C 255.8 419.6 256.2 423.4 256.6 427.0 C 257.1 430.6 257.9 434.2 258.4 437.0 C 258.8 439.8 259.1 442.0 259.2 443.6 C 259.3 445.3 259.3 446.4 259.1 446.9 C 258.9 447.4 258.5 447.4 258.0 446.8 C 257.5 446.1 256.7 444.6 256.0 443.2 C 255.3 441.9 254.7 440.4 254.1 438.8 C 253.4 437.1 252.8 435.2 252.2 433.2 C 251.6 431.2 251.0 429.1 250.4 426.8 C 249.8 424.4 249.1 422.0 248.6 419.2 C 248.1 416.5 247.7 413.5 247.4 410.2 C 247.1 407.0 246.9 403.5 246.8 399.8 C 246.7 396.0 246.7 392.0 246.8 387.8 C 246.8 383.5 247.4 377.8 247.2 374.2 C 247.1 370.7 246.6 368.1 245.8 366.4 C 245.0 364.7 243.9 363.9 242.4 364.1 C 241.0 364.3 239.2 365.4 237.1 367.5 C 235.0 369.6 232.1 373.7 229.9 376.5 C 227.7 379.3 225.8 381.9 224.1 384.4 C 222.4 386.8 220.9 389.1 219.7 391.1 C 218.5 393.2 217.5 395.1 216.8 396.8 C 216.0 398.4 215.7 399.8 215.2 401.2 C 214.8 402.7 214.4 404.2 214.1 405.6 C 213.8 407.1 213.6 408.5 213.4 409.9 C 213.2 411.3 213.1 412.6 213.0 414.0 C 212.9 415.4 212.9 416.6 213.0 418.0 C 213.1 419.4 213.3 420.9 213.6 422.4 C 213.9 424.0 214.4 425.6 214.9 427.3 C 215.4 429.0 216.0 430.8 216.8 432.6 C 217.5 434.5 218.1 436.3 219.2 438.4 C 220.4 440.5 222.0 442.7 223.9 445.2 C 225.9 447.6 228.2 450.3 230.8 453.1 C 233.5 455.9 236.5 458.8 239.9 462.0 C 243.3 465.2 247.8 469.1 251.1 472.0 C 254.4 474.9 257.2 477.4 259.6 479.5 C 261.9 481.6 263.8 483.2 265.2 484.5 C 266.6 485.8 267.2 486.6 268.0 487.0 C 268.8 487.4 269.8 487.0 270.0 487.0 Z" fill="url(#grad-blue)" />
</g>
</svg>