<?xml version="1.0" encoding="UTF-8"?>
<svg xmlns="http://www.w3.org/2000/svg" viewBox="288.0 47.0 439.0 392.0" role="img" aria-hidden="true">
<path d="M 375 57 L 374 58 L 373 58 L 371 56 L 369 56 L 368 55 L 368 56 L 367 57 L 363 57 L 367 57 L 368 58 L 367 59 L 362 59 L 361 60 L 360 60 L 359 61 L 358 60 L 358 59 L 355 59 L 354 58 L 353 59 L 352 58 L 352 61 L 353 61 L 354 62 L 354 72 L 353 73 L 352 72 L 352 64 L 352 72 L 353 73 L 353 74 L 352 75 L 352 79 L 355 79 L 356 78 L 357 79 L 362 79 L 363 80 L 366 80 L 367 79 L 372 79 L 372 77 L 373 76 L 374 77 L 374 79 L 376 79 L 376 77 L 375 77 L 374 76 L 375 75 L 375 67 L 374 66 L 374 63 L 373 62 L 373 61 L 372 61 L 370 59 L 371 58 L 374 58 Z M 352 75 L 353 74 L 356 77 L 356 78 L 355 79 L 354 79 L 353 78 L 353 77 L 352 76 Z M 353 61 L 354 60 L 355 60 L 356 59 L 358 61 L 357 62 L 354 62 Z M 367 59 L 368 58 L 369 59 L 368 60 Z" fill="#B94B9B" fill-rule="evenodd"/>
<path d="M 640 57 L 640 65 L 641 66 L 641 68 L 640 69 L 640 70 L 641 71 L 641 72 L 640 73 L 641 74 L 641 75 L 642 76 L 642 77 L 641 78 L 640 77 L 640 79 L 641 79 L 642 78 L 643 79 L 648 79 L 650 81 L 651 80 L 653 80 L 654 79 L 660 79 L 659 78 L 659 77 L 660 76 L 662 78 L 662 79 L 663 79 L 663 77 L 662 78 L 661 77 L 661 76 L 662 75 L 661 74 L 661 73 L 662 72 L 662 66 L 663 65 L 662 66 L 661 65 L 661 62 L 659 60 L 653 60 L 652 59 L 646 59 L 645 58 L 641 58 Z M 642 78 L 643 77 L 644 78 L 643 79 Z M 640 63 L 641 62 L 642 62 L 643 63 L 642 64 L 641 64 Z M 659 62 L 660 61 L 661 62 L 661 63 L 660 64 L 659 63 Z M 658 61 L 659 60 L 660 61 L 659 62 Z M 642 61 L 642 60 L 644 58 L 645 58 L 646 59 L 646 60 L 645 61 L 644 61 L 643 62 Z" fill="#B94C9A" fill-rule="evenodd"/>
<path d="M 434 64 L 437 64 L 438 65 L 442 65 L 444 67 L 444 68 L 443 69 L 442 69 L 441 68 L 441 67 L 440 67 L 439 68 L 438 67 L 435 67 L 434 68 L 430 68 L 429 69 L 427 69 L 427 70 L 426 71 L 427 72 L 425 74 L 425 76 L 424 77 L 424 83 L 425 84 L 425 85 L 426 86 L 425 87 L 424 87 L 424 88 L 423 89 L 423 91 L 425 91 L 426 92 L 426 90 L 427 89 L 429 91 L 431 91 L 432 92 L 432 93 L 431 94 L 430 94 L 429 93 L 430 94 L 430 95 L 441 95 L 442 94 L 443 94 L 442 94 L 441 93 L 442 92 L 444 92 L 445 91 L 446 91 L 447 92 L 446 93 L 447 93 L 448 94 L 448 95 L 449 95 L 447 93 L 447 91 L 446 90 L 447 89 L 447 85 L 448 84 L 448 83 L 449 82 L 450 83 L 451 82 L 451 80 L 451 82 L 450 83 L 449 82 L 449 79 L 448 78 L 448 76 L 447 75 L 447 71 L 446 71 L 445 70 L 447 68 L 447 66 L 443 66 L 442 65 L 442 64 Z M 439 94 L 440 93 L 441 94 L 440 95 Z M 433 93 L 434 92 L 436 92 L 437 93 L 438 93 L 439 94 L 438 95 L 435 95 Z M 443 91 L 444 90 L 445 91 L 444 92 Z M 444 90 L 445 89 L 446 90 L 445 91 Z M 426 88 L 427 87 L 428 88 L 427 89 Z M 425 87 L 426 86 L 427 87 L 426 88 Z" fill="#BA4B9C" fill-rule="evenodd"/>
<path d="M 591 64 L 589 64 L 589 65 L 588 66 L 586 66 L 585 65 L 584 66 L 582 66 L 583 66 L 584 67 L 583 68 L 581 68 L 580 67 L 578 67 L 577 68 L 576 68 L 575 67 L 573 69 L 572 68 L 572 69 L 571 70 L 570 69 L 569 69 L 568 68 L 568 69 L 570 69 L 571 70 L 568 73 L 567 72 L 567 75 L 565 77 L 563 75 L 562 75 L 563 76 L 562 77 L 561 77 L 560 78 L 560 79 L 561 79 L 562 80 L 562 81 L 564 81 L 564 80 L 565 79 L 566 80 L 566 83 L 567 84 L 567 87 L 571 91 L 570 92 L 569 92 L 568 91 L 567 91 L 566 90 L 566 89 L 565 88 L 564 88 L 564 90 L 565 91 L 568 91 L 570 93 L 569 94 L 570 95 L 572 95 L 573 94 L 572 94 L 570 92 L 571 91 L 572 91 L 573 92 L 574 92 L 576 94 L 576 95 L 588 95 L 589 94 L 590 94 L 591 95 L 590 94 L 591 93 L 591 88 L 590 87 L 590 86 L 591 85 L 591 73 L 590 72 L 590 71 L 591 70 Z M 586 94 L 587 93 L 588 93 L 589 94 L 588 95 L 587 95 Z M 588 93 L 589 92 L 590 92 L 591 93 L 590 94 L 589 94 Z M 589 89 L 589 91 L 587 93 L 586 93 L 585 94 L 584 94 L 583 95 L 578 95 L 577 94 L 576 94 L 575 93 L 576 92 L 578 92 L 579 93 L 581 93 L 582 92 L 584 92 L 585 91 L 586 91 L 587 90 L 587 89 L 588 88 Z M 588 88 L 589 87 L 590 88 L 589 89 Z M 561 78 L 562 77 L 563 78 L 563 79 L 562 80 L 561 79 Z M 588 70 L 589 69 L 590 70 L 589 71 Z M 586 68 L 587 67 L 588 68 L 588 69 L 587 70 L 586 69 Z M 584 67 L 585 66 L 586 67 L 585 68 Z M 588 66 L 589 65 L 590 65 L 591 66 L 590 67 L 589 67 Z" fill="#B94A9B" fill-rule="evenodd"/>
<path d="M 312 96 L 313 97 L 312 98 L 313 99 L 312 100 L 313 99 L 314 99 L 315 98 L 316 98 L 317 97 L 318 97 L 320 99 L 319 100 L 317 100 L 316 101 L 314 101 L 311 104 L 312 105 L 312 107 L 311 108 L 311 111 L 310 112 L 310 113 L 311 114 L 311 117 L 312 118 L 312 119 L 314 121 L 313 122 L 314 121 L 315 122 L 315 123 L 314 124 L 316 122 L 319 125 L 318 126 L 317 126 L 316 125 L 317 126 L 316 127 L 315 127 L 314 126 L 313 126 L 312 125 L 313 126 L 312 127 L 316 127 L 317 126 L 318 126 L 319 125 L 320 126 L 320 127 L 324 127 L 325 126 L 326 127 L 331 127 L 331 126 L 332 125 L 331 125 L 329 123 L 333 119 L 334 119 L 334 117 L 335 116 L 335 108 L 334 107 L 335 106 L 335 102 L 334 102 L 334 103 L 335 104 L 335 105 L 334 106 L 332 104 L 332 103 L 331 102 L 332 101 L 331 102 L 329 100 L 331 98 L 332 98 L 331 98 L 330 97 L 331 96 L 328 96 L 328 97 L 329 96 L 331 98 L 330 99 L 329 99 L 328 100 L 327 100 L 326 99 L 326 98 L 325 98 L 325 99 L 324 100 L 323 100 L 322 99 L 320 99 L 319 98 L 319 96 Z M 320 126 L 321 125 L 322 125 L 323 124 L 326 124 L 327 125 L 328 125 L 329 126 L 328 127 L 326 127 L 325 126 L 324 126 L 323 127 L 321 127 Z M 319 125 L 320 124 L 321 125 L 320 126 Z M 328 124 L 329 123 L 331 125 L 330 126 L 329 126 L 328 125 Z M 318 124 L 319 123 L 320 124 L 319 125 Z M 312 103 L 313 102 L 314 103 L 313 104 Z M 313 102 L 314 101 L 315 102 L 314 103 Z M 312 98 L 313 97 L 314 97 L 315 98 L 314 99 L 313 99 Z" fill="#755AA5" fill-rule="evenodd"/>
<path d="M 406 96 L 402 96 L 401 97 L 400 96 L 398 96 L 400 96 L 401 97 L 400 98 L 400 99 L 399 100 L 398 99 L 397 99 L 396 100 L 393 100 L 392 101 L 389 101 L 388 102 L 387 101 L 386 101 L 387 101 L 388 102 L 386 104 L 386 105 L 385 106 L 384 105 L 384 118 L 385 118 L 386 119 L 386 120 L 387 121 L 387 122 L 388 123 L 387 124 L 389 126 L 390 126 L 391 127 L 396 127 L 396 126 L 397 125 L 399 125 L 400 124 L 401 124 L 402 123 L 404 123 L 404 122 L 405 121 L 407 123 L 406 122 L 407 121 L 406 120 L 406 119 L 407 118 L 407 117 L 408 116 L 408 115 L 409 114 L 409 110 L 408 109 L 408 108 L 407 107 L 407 106 L 406 105 L 407 104 L 407 103 L 406 102 L 405 102 L 404 101 L 403 102 L 402 101 L 402 100 L 400 98 L 401 97 L 402 97 L 403 98 L 404 98 L 405 97 L 406 97 L 407 98 L 407 99 L 407 98 L 406 97 Z M 393 125 L 394 124 L 396 124 L 397 125 L 396 126 L 394 126 Z M 390 126 L 392 124 L 394 126 L 393 127 L 391 127 Z M 387 124 L 388 123 L 389 123 L 391 125 L 390 126 L 389 126 Z M 405 121 L 406 120 L 407 121 L 406 122 Z M 404 103 L 405 102 L 406 102 L 407 103 L 407 104 L 406 105 Z M 399 100 L 400 99 L 401 99 L 402 100 L 401 101 L 400 101 Z M 402 97 L 403 96 L 404 97 L 403 98 Z" fill="#745AA5" fill-rule="evenodd"/>
<path d="M 630 102 L 631 103 L 630 102 L 629 103 L 628 102 L 627 102 L 626 101 L 625 101 L 623 99 L 624 98 L 623 99 L 621 99 L 620 100 L 619 100 L 618 99 L 617 99 L 616 100 L 615 100 L 614 101 L 613 101 L 612 100 L 612 102 L 611 103 L 609 101 L 609 99 L 608 99 L 608 103 L 609 104 L 608 105 L 608 126 L 609 125 L 609 124 L 608 123 L 609 122 L 610 122 L 611 121 L 613 123 L 612 124 L 614 124 L 615 125 L 615 126 L 616 127 L 630 127 L 629 126 L 630 125 L 629 125 L 628 126 L 626 126 L 625 127 L 621 127 L 620 126 L 617 126 L 616 127 L 615 126 L 615 125 L 616 124 L 623 124 L 624 125 L 623 124 L 624 123 L 625 123 L 626 124 L 627 124 L 626 123 L 628 121 L 629 122 L 630 122 L 629 121 L 629 120 L 630 119 L 631 120 L 630 119 L 631 118 L 631 117 L 632 116 L 632 115 L 633 114 L 633 109 L 631 107 L 631 106 L 629 104 L 629 103 Z M 608 120 L 609 119 L 611 121 L 610 122 L 609 122 L 608 121 Z M 608 103 L 609 102 L 610 102 L 611 103 L 610 104 L 609 104 Z" fill="#745AA6" fill-rule="evenodd"/>
<path d="M 703 100 L 702 100 L 701 99 L 700 99 L 702 101 L 701 102 L 700 102 L 699 103 L 698 102 L 697 102 L 696 101 L 697 100 L 698 100 L 697 100 L 696 101 L 695 100 L 693 100 L 692 101 L 690 101 L 689 100 L 688 100 L 687 101 L 686 101 L 685 100 L 686 101 L 684 103 L 683 103 L 683 104 L 681 106 L 681 107 L 680 108 L 680 109 L 679 110 L 679 114 L 680 115 L 680 118 L 681 119 L 681 120 L 682 121 L 682 122 L 684 124 L 685 123 L 686 124 L 687 124 L 688 125 L 693 125 L 694 126 L 696 126 L 697 127 L 698 127 L 700 125 L 701 126 L 702 126 L 703 125 L 700 122 L 701 121 L 702 121 L 703 122 L 703 117 L 704 116 L 704 115 L 705 114 L 705 113 L 704 112 L 705 111 L 703 109 L 703 105 L 702 104 L 702 103 L 703 102 Z M 696 125 L 697 124 L 698 124 L 699 125 L 699 126 L 698 127 L 697 127 L 696 126 Z M 699 123 L 700 122 L 703 125 L 702 126 L 701 126 L 699 124 Z M 699 103 L 700 102 L 701 102 L 702 103 L 702 104 L 701 105 Z" fill="#745AA5" fill-rule="evenodd"/>
<path d="M 550 104 L 549 104 L 548 105 L 547 104 L 544 104 L 543 105 L 544 106 L 543 107 L 541 107 L 540 106 L 541 107 L 543 107 L 544 108 L 543 109 L 542 109 L 541 110 L 540 109 L 539 109 L 537 111 L 537 112 L 536 113 L 536 114 L 537 115 L 536 116 L 536 118 L 535 119 L 535 121 L 536 122 L 536 127 L 537 127 L 539 129 L 539 131 L 538 132 L 537 132 L 536 131 L 537 130 L 536 129 L 537 130 L 536 131 L 537 132 L 536 133 L 537 134 L 538 134 L 539 133 L 540 134 L 540 135 L 541 135 L 542 136 L 543 136 L 543 135 L 544 134 L 545 134 L 546 133 L 550 133 L 551 134 L 552 134 L 551 134 L 550 133 L 551 132 L 553 132 L 554 131 L 556 131 L 557 130 L 558 130 L 559 131 L 558 130 L 559 129 L 558 128 L 559 127 L 559 123 L 560 122 L 560 120 L 559 119 L 559 111 L 558 112 L 557 112 L 555 110 L 556 109 L 557 109 L 556 108 L 555 108 L 556 109 L 555 110 L 554 110 L 552 108 L 553 107 L 552 107 L 551 106 L 552 107 L 551 108 L 549 108 L 548 107 L 547 107 L 546 108 L 544 108 L 543 107 L 545 105 L 548 105 L 549 104 Z M 540 133 L 541 132 L 543 132 L 544 133 L 543 134 L 541 134 Z M 536 133 L 537 132 L 538 132 L 539 133 L 538 134 L 537 134 Z M 538 132 L 539 131 L 540 131 L 541 132 L 540 133 L 539 133 Z M 555 130 L 556 129 L 557 130 L 556 131 Z M 556 129 L 557 128 L 558 128 L 559 129 L 558 130 L 557 130 Z M 537 111 L 539 109 L 540 109 L 541 110 L 539 112 L 538 112 Z" fill="#745AA6" fill-rule="evenodd"/>
<path d="M 462 108 L 461 109 L 462 108 L 463 108 L 464 109 L 462 111 L 461 111 L 460 112 L 459 112 L 459 113 L 458 114 L 458 115 L 457 116 L 456 115 L 456 116 L 457 117 L 456 118 L 456 119 L 455 120 L 455 122 L 456 123 L 456 127 L 457 128 L 456 129 L 457 128 L 459 130 L 459 131 L 458 132 L 457 131 L 458 132 L 458 133 L 460 133 L 461 134 L 460 135 L 461 134 L 460 133 L 461 132 L 462 132 L 464 134 L 463 135 L 464 134 L 466 134 L 467 135 L 469 135 L 470 134 L 471 134 L 472 135 L 473 135 L 474 134 L 475 134 L 476 135 L 479 135 L 479 133 L 477 133 L 477 134 L 476 135 L 475 134 L 474 134 L 473 133 L 474 132 L 475 132 L 477 130 L 478 131 L 479 130 L 479 125 L 480 124 L 480 120 L 479 119 L 479 114 L 478 115 L 477 114 L 477 113 L 476 112 L 477 111 L 478 111 L 479 112 L 479 110 L 477 110 L 476 109 L 477 110 L 477 111 L 476 112 L 475 111 L 474 111 L 473 110 L 471 110 L 470 109 L 464 109 L 463 108 Z M 471 134 L 472 133 L 473 133 L 474 134 L 473 135 L 472 135 Z M 458 132 L 459 131 L 460 131 L 461 132 L 460 133 L 459 133 Z" fill="#745AA6" fill-rule="evenodd"/>
<path d="M 336 144 L 336 146 L 336 145 L 337 144 L 338 145 L 338 147 L 336 149 L 336 150 L 338 150 L 338 149 L 340 147 L 342 149 L 342 150 L 341 151 L 340 151 L 339 152 L 339 154 L 341 156 L 341 157 L 342 158 L 340 160 L 339 159 L 339 158 L 337 156 L 337 154 L 337 156 L 338 157 L 338 158 L 337 159 L 336 158 L 336 159 L 337 159 L 339 161 L 340 161 L 340 160 L 341 159 L 342 160 L 342 161 L 344 163 L 344 166 L 345 167 L 346 167 L 347 166 L 348 167 L 349 167 L 350 168 L 354 168 L 355 169 L 356 169 L 357 170 L 357 171 L 358 172 L 359 172 L 360 173 L 363 173 L 363 172 L 362 172 L 361 171 L 360 171 L 358 169 L 360 167 L 361 167 L 362 168 L 362 169 L 363 168 L 363 167 L 364 166 L 365 167 L 365 170 L 367 170 L 367 165 L 366 164 L 367 163 L 367 159 L 368 158 L 368 155 L 369 154 L 368 153 L 368 152 L 367 151 L 367 146 L 366 145 L 367 144 L 366 145 L 365 144 L 365 143 L 364 143 L 363 142 L 363 141 L 362 141 L 360 139 L 361 138 L 363 138 L 360 138 L 358 136 L 352 136 L 352 137 L 351 138 L 348 138 L 349 139 L 346 142 L 345 142 L 345 144 L 344 145 L 344 146 L 343 147 L 343 148 L 342 149 L 340 147 L 340 146 L 341 145 L 342 145 L 342 144 Z M 361 167 L 362 166 L 363 167 L 362 168 Z M 364 166 L 365 165 L 366 166 L 365 167 Z M 345 166 L 346 165 L 347 166 L 346 167 Z M 344 164 L 345 163 L 346 164 L 345 165 Z M 339 152 L 340 151 L 341 152 L 340 153 Z M 354 140 L 355 139 L 356 140 L 355 141 Z M 351 140 L 352 139 L 353 139 L 354 140 L 353 141 L 352 141 Z M 358 138 L 359 137 L 360 138 L 359 139 Z" fill="#1FA3DB" fill-rule="evenodd"/>
<path d="M 656 136 L 656 141 L 653 144 L 651 144 L 650 145 L 649 144 L 647 144 L 648 144 L 649 145 L 648 146 L 648 147 L 647 148 L 647 153 L 645 155 L 644 154 L 644 149 L 643 150 L 643 156 L 644 156 L 645 155 L 646 156 L 646 159 L 647 160 L 647 162 L 645 164 L 645 165 L 646 164 L 648 164 L 649 165 L 648 166 L 649 167 L 650 166 L 652 168 L 660 168 L 661 169 L 658 172 L 656 172 L 655 171 L 655 170 L 655 171 L 656 172 L 656 173 L 654 175 L 657 175 L 659 173 L 660 174 L 660 175 L 662 175 L 662 174 L 660 174 L 659 173 L 660 172 L 666 172 L 667 171 L 667 170 L 663 170 L 662 169 L 663 168 L 666 168 L 667 167 L 668 167 L 669 166 L 670 166 L 671 167 L 671 162 L 674 159 L 679 159 L 679 154 L 680 153 L 680 150 L 679 149 L 679 151 L 680 152 L 679 153 L 678 153 L 678 154 L 677 155 L 677 158 L 676 159 L 675 158 L 675 150 L 673 148 L 673 145 L 674 144 L 675 144 L 670 144 L 667 141 L 665 141 L 664 140 L 663 141 L 662 141 L 661 140 L 664 137 L 665 138 L 667 138 L 667 137 L 666 137 L 665 136 Z M 648 166 L 649 165 L 650 166 L 649 167 Z M 669 165 L 670 164 L 671 165 L 670 166 Z M 657 140 L 658 139 L 660 139 L 661 140 L 660 141 L 658 141 Z M 660 137 L 661 136 L 662 137 L 661 138 Z" fill="#1DA3DD" fill-rule="evenodd"/>
<path d="M 416 144 L 416 154 L 417 155 L 416 156 L 416 165 L 417 166 L 416 167 L 416 169 L 417 169 L 418 170 L 418 171 L 417 172 L 416 171 L 417 172 L 417 173 L 416 174 L 416 175 L 421 175 L 421 174 L 422 173 L 424 175 L 425 175 L 426 174 L 427 174 L 428 175 L 430 175 L 431 174 L 432 175 L 437 175 L 438 174 L 439 174 L 438 174 L 437 173 L 438 172 L 439 172 L 439 171 L 440 170 L 441 171 L 443 171 L 443 168 L 444 167 L 446 167 L 445 167 L 444 166 L 444 165 L 443 164 L 445 162 L 447 164 L 447 165 L 447 162 L 445 162 L 444 161 L 444 157 L 445 156 L 446 156 L 447 157 L 446 158 L 446 159 L 447 160 L 447 154 L 446 154 L 444 156 L 441 153 L 442 152 L 441 151 L 443 149 L 445 149 L 446 150 L 447 150 L 447 147 L 446 148 L 445 147 L 445 146 L 442 146 L 441 145 L 441 144 L 439 144 L 439 145 L 438 146 L 437 145 L 437 144 L 424 144 L 423 145 L 424 144 L 425 145 L 426 145 L 427 144 L 428 144 L 430 146 L 429 147 L 424 147 L 422 149 L 421 148 L 421 147 L 418 147 L 416 145 Z M 423 174 L 424 173 L 425 174 L 424 175 Z M 419 172 L 420 171 L 421 172 L 420 173 Z M 440 170 L 441 169 L 442 170 L 441 171 Z M 441 169 L 442 168 L 443 169 L 442 170 Z M 442 167 L 443 166 L 444 167 L 443 168 Z M 419 150 L 420 149 L 421 150 L 420 151 Z M 416 153 L 416 150 L 417 149 L 418 150 L 419 150 L 420 151 L 419 152 L 418 152 L 418 153 L 417 154 Z M 420 149 L 421 148 L 422 149 L 421 150 Z M 417 148 L 418 147 L 419 148 L 419 149 L 418 150 L 417 149 Z M 435 147 L 436 146 L 438 146 L 439 147 L 439 146 L 440 145 L 441 145 L 442 146 L 442 148 L 440 150 L 439 149 L 438 149 L 437 148 L 436 148 Z M 432 146 L 433 145 L 434 145 L 435 146 L 434 147 L 433 147 Z" fill="#1FA3DD" fill-rule="evenodd"/>
<path d="M 569 153 L 569 155 L 568 156 L 568 165 L 567 166 L 567 169 L 568 170 L 569 169 L 569 168 L 570 167 L 570 164 L 571 163 L 572 164 L 572 167 L 572 166 L 573 165 L 574 166 L 574 169 L 575 170 L 575 171 L 574 172 L 574 175 L 577 175 L 578 174 L 579 174 L 580 175 L 581 175 L 582 174 L 583 175 L 584 174 L 591 174 L 592 175 L 595 172 L 596 173 L 596 174 L 595 175 L 600 175 L 600 174 L 601 173 L 601 172 L 602 171 L 601 170 L 602 169 L 603 169 L 603 162 L 602 161 L 604 159 L 605 159 L 607 161 L 607 159 L 605 159 L 604 158 L 604 155 L 605 154 L 607 154 L 607 150 L 606 151 L 606 152 L 605 153 L 605 154 L 604 155 L 603 155 L 602 156 L 602 159 L 601 160 L 600 159 L 600 155 L 599 154 L 599 153 L 598 152 L 600 150 L 600 149 L 599 148 L 599 147 L 600 146 L 601 146 L 601 144 L 598 144 L 596 146 L 594 146 L 593 145 L 594 144 L 595 144 L 594 144 L 593 145 L 592 145 L 591 144 L 588 144 L 588 145 L 589 146 L 588 147 L 584 147 L 583 146 L 583 147 L 582 148 L 580 148 L 579 149 L 578 149 L 577 148 L 579 146 L 580 146 L 579 145 L 580 144 L 582 144 L 580 144 L 579 145 L 579 146 L 578 147 L 577 146 L 576 146 L 576 148 L 575 149 L 576 150 L 576 152 L 575 153 L 574 152 L 574 153 L 572 155 L 571 155 Z M 575 174 L 576 173 L 577 173 L 578 174 L 577 175 L 576 175 Z M 577 173 L 578 172 L 579 173 L 578 174 Z M 595 172 L 596 171 L 597 171 L 598 172 L 599 171 L 600 172 L 600 173 L 599 174 L 597 174 Z M 576 172 L 577 171 L 578 172 L 577 173 Z M 597 171 L 598 170 L 599 171 L 598 172 Z M 598 170 L 599 169 L 600 170 L 599 171 Z M 602 161 L 603 162 L 603 163 L 602 164 L 602 169 L 601 170 L 600 170 L 599 169 L 599 166 L 600 165 L 600 163 Z M 569 160 L 570 159 L 571 159 L 573 161 L 573 163 L 572 164 L 571 163 L 571 162 L 570 162 L 569 161 Z M 596 151 L 597 150 L 598 151 L 597 152 Z M 575 149 L 576 148 L 577 149 L 576 150 Z M 593 147 L 594 146 L 595 146 L 596 147 L 596 148 L 595 149 Z M 588 147 L 589 146 L 590 146 L 591 147 L 590 148 L 589 148 Z M 596 146 L 597 145 L 598 145 L 599 146 L 598 147 L 597 147 Z M 592 146 L 593 145 L 594 146 L 593 147 Z" fill="#21A4DC" fill-rule="evenodd"/>
<path d="M 496 147 L 496 159 L 495 160 L 492 160 L 492 165 L 493 166 L 493 167 L 494 168 L 494 170 L 496 172 L 496 175 L 497 175 L 498 174 L 499 175 L 504 175 L 505 176 L 510 176 L 511 175 L 515 175 L 516 174 L 517 174 L 518 175 L 520 175 L 519 174 L 519 171 L 520 170 L 520 168 L 521 167 L 522 168 L 522 170 L 524 172 L 524 175 L 525 175 L 525 170 L 524 169 L 524 166 L 523 165 L 523 164 L 522 165 L 521 164 L 521 163 L 523 161 L 524 162 L 525 161 L 527 161 L 527 154 L 526 154 L 526 157 L 527 158 L 527 159 L 526 160 L 522 160 L 521 159 L 521 157 L 522 156 L 523 157 L 523 158 L 524 157 L 524 156 L 523 155 L 523 154 L 522 154 L 517 149 L 517 148 L 516 148 L 515 147 L 512 147 L 512 148 L 511 149 L 504 149 L 503 148 L 503 147 L 501 147 L 500 148 L 499 148 L 498 147 Z M 517 174 L 518 173 L 519 174 L 518 175 Z M 520 156 L 521 155 L 522 156 L 521 157 Z M 496 153 L 497 152 L 498 153 L 497 154 Z M 511 149 L 512 148 L 514 148 L 515 149 L 514 150 L 512 150 Z M 496 150 L 496 149 L 498 147 L 499 148 L 503 148 L 504 149 L 503 150 L 502 150 L 500 152 L 499 152 L 498 153 L 497 152 L 497 151 Z" fill="#1FA2DD" fill-rule="evenodd"/>
<path d="M 296 183 L 296 191 L 297 191 L 298 192 L 298 193 L 301 196 L 301 198 L 302 199 L 303 198 L 304 199 L 304 200 L 308 204 L 310 204 L 311 205 L 312 204 L 313 205 L 314 205 L 315 204 L 316 204 L 317 205 L 317 206 L 316 207 L 311 207 L 324 207 L 323 207 L 321 205 L 323 203 L 324 203 L 323 202 L 324 201 L 326 201 L 327 200 L 328 200 L 328 199 L 329 198 L 330 198 L 331 199 L 330 198 L 330 197 L 329 196 L 329 192 L 330 191 L 331 192 L 331 194 L 332 193 L 333 194 L 334 193 L 335 194 L 335 197 L 335 189 L 334 189 L 334 191 L 333 192 L 332 192 L 331 191 L 331 190 L 332 189 L 331 189 L 330 188 L 330 186 L 331 185 L 330 184 L 329 184 L 327 182 L 327 181 L 326 180 L 326 179 L 325 179 L 324 178 L 325 177 L 326 177 L 327 176 L 328 177 L 329 176 L 323 176 L 322 177 L 321 176 L 311 176 L 310 177 L 307 177 L 306 176 L 304 176 L 304 177 L 305 178 L 304 179 L 304 180 L 302 182 L 302 184 L 301 185 L 300 184 L 300 183 L 300 184 L 299 185 L 298 184 L 297 184 Z M 317 205 L 318 204 L 319 205 L 318 206 Z M 318 204 L 319 203 L 320 204 L 319 205 Z M 298 192 L 299 191 L 300 192 L 300 193 L 299 194 L 298 193 Z M 298 184 L 299 185 L 300 185 L 301 186 L 301 191 L 300 192 L 299 191 L 298 192 L 297 191 L 297 190 L 298 189 L 298 188 L 299 187 L 298 187 L 297 186 L 297 185 Z M 304 179 L 305 178 L 306 179 L 305 180 Z M 322 177 L 323 176 L 324 176 L 325 177 L 324 178 L 323 178 Z M 304 177 L 305 176 L 306 177 L 305 178 Z" fill="#16A89D" fill-rule="evenodd"/>
<path d="M 688 176 L 688 178 L 689 179 L 688 180 L 688 184 L 686 186 L 685 185 L 685 187 L 684 188 L 683 187 L 683 186 L 683 189 L 682 190 L 682 191 L 685 191 L 688 194 L 688 199 L 689 200 L 690 200 L 691 201 L 690 202 L 688 202 L 689 203 L 689 204 L 688 205 L 689 204 L 690 204 L 691 203 L 692 203 L 693 202 L 694 203 L 694 204 L 698 204 L 699 205 L 698 206 L 694 206 L 693 207 L 689 207 L 698 207 L 698 206 L 699 205 L 700 205 L 701 206 L 701 207 L 708 207 L 707 207 L 705 205 L 706 204 L 707 204 L 708 205 L 710 205 L 711 206 L 710 207 L 712 207 L 712 206 L 711 206 L 710 205 L 708 205 L 707 204 L 710 201 L 711 202 L 711 203 L 711 202 L 710 201 L 712 199 L 712 198 L 713 197 L 714 198 L 714 196 L 715 195 L 716 196 L 716 197 L 716 196 L 715 195 L 715 194 L 717 192 L 718 193 L 718 195 L 719 196 L 719 197 L 719 192 L 718 191 L 718 190 L 718 191 L 717 192 L 716 191 L 716 189 L 715 188 L 716 187 L 716 183 L 715 183 L 714 182 L 715 181 L 715 179 L 716 178 L 716 177 L 715 176 L 714 176 L 714 179 L 713 180 L 712 179 L 712 177 L 711 176 L 710 177 L 709 176 L 708 177 L 707 176 L 695 176 L 694 177 L 693 176 Z M 701 205 L 702 204 L 703 204 L 704 205 L 703 206 L 702 206 Z M 714 184 L 715 183 L 716 184 L 715 185 Z M 710 177 L 711 176 L 712 177 L 711 178 Z M 708 177 L 709 176 L 710 177 L 709 178 Z M 691 177 L 692 176 L 693 177 L 692 178 Z" fill="#16A89D" fill-rule="evenodd"/>
<path d="M 399 187 L 398 188 L 397 187 L 396 187 L 395 186 L 395 185 L 394 184 L 390 184 L 389 183 L 388 183 L 387 184 L 380 184 L 378 186 L 377 185 L 377 184 L 375 186 L 375 187 L 376 188 L 375 189 L 374 189 L 374 191 L 373 192 L 370 192 L 370 193 L 371 194 L 371 195 L 372 196 L 372 197 L 373 198 L 373 205 L 374 206 L 374 207 L 375 208 L 375 209 L 376 210 L 376 211 L 377 211 L 378 212 L 377 213 L 376 213 L 377 213 L 378 212 L 379 212 L 380 213 L 378 215 L 377 215 L 378 215 L 379 214 L 380 214 L 381 213 L 383 213 L 384 214 L 385 213 L 388 213 L 389 212 L 390 212 L 391 213 L 389 215 L 388 215 L 389 215 L 390 214 L 391 214 L 392 215 L 391 214 L 393 212 L 394 213 L 394 214 L 395 213 L 396 213 L 397 214 L 396 215 L 399 215 L 399 204 L 400 203 L 403 203 L 403 201 L 405 199 L 406 200 L 405 199 L 405 197 L 405 198 L 404 199 L 403 198 L 403 197 L 402 196 L 401 196 L 400 195 L 400 194 L 399 193 L 399 189 L 398 188 Z M 395 211 L 397 209 L 399 211 L 398 212 L 396 212 Z M 393 185 L 394 184 L 395 185 L 394 186 Z" fill="#16A89D" fill-rule="evenodd"/>
<path d="M 456 182 L 455 183 L 457 183 L 458 184 L 457 185 L 456 185 L 457 185 L 458 184 L 463 184 L 464 185 L 464 186 L 462 188 L 460 188 L 459 189 L 458 189 L 457 190 L 456 189 L 456 190 L 454 192 L 451 192 L 450 193 L 450 194 L 450 193 L 451 192 L 452 192 L 453 193 L 452 194 L 452 195 L 450 197 L 450 198 L 449 199 L 450 200 L 450 203 L 451 204 L 451 207 L 450 208 L 449 207 L 449 206 L 448 205 L 448 204 L 448 210 L 449 211 L 450 210 L 453 213 L 453 214 L 452 215 L 450 213 L 450 214 L 449 215 L 450 214 L 451 214 L 452 215 L 453 214 L 455 216 L 456 216 L 457 217 L 456 218 L 457 219 L 456 220 L 457 221 L 458 221 L 460 223 L 463 223 L 463 220 L 464 219 L 465 219 L 464 219 L 463 218 L 464 217 L 471 217 L 471 216 L 473 214 L 474 215 L 475 215 L 476 214 L 477 215 L 477 217 L 479 217 L 479 212 L 478 213 L 477 212 L 477 211 L 479 209 L 479 200 L 478 199 L 478 198 L 479 197 L 479 196 L 478 195 L 479 194 L 479 192 L 478 192 L 477 193 L 476 193 L 475 192 L 475 191 L 474 190 L 472 190 L 469 187 L 467 187 L 469 187 L 470 188 L 469 189 L 466 189 L 465 188 L 464 188 L 463 187 L 464 186 L 465 186 L 466 185 L 470 185 L 471 186 L 473 184 L 472 183 L 470 183 L 469 184 L 464 184 L 463 183 L 461 183 L 460 182 Z M 459 219 L 460 218 L 463 221 L 462 222 L 460 222 L 459 221 Z M 460 218 L 461 217 L 462 217 L 463 218 L 462 219 L 461 219 Z M 473 214 L 474 213 L 475 213 L 476 214 L 475 215 L 474 215 Z M 475 213 L 476 212 L 477 213 L 476 214 Z M 448 209 L 449 208 L 450 209 L 450 210 L 449 211 L 448 210 Z M 477 208 L 478 207 L 479 208 L 478 209 Z M 477 196 L 478 195 L 479 196 L 478 197 Z M 477 194 L 478 193 L 479 194 L 478 195 Z" fill="#17A89D" fill-rule="evenodd"/>
<path d="M 617 185 L 618 186 L 616 188 L 616 189 L 615 190 L 615 191 L 614 192 L 615 193 L 615 205 L 614 206 L 613 206 L 612 205 L 612 207 L 614 207 L 614 206 L 615 205 L 616 205 L 617 206 L 617 208 L 618 209 L 618 210 L 619 210 L 620 211 L 622 211 L 623 212 L 627 212 L 628 213 L 627 214 L 625 214 L 627 214 L 628 213 L 629 213 L 630 212 L 631 212 L 632 213 L 631 214 L 632 213 L 634 213 L 635 214 L 638 214 L 639 215 L 638 216 L 636 216 L 637 217 L 639 217 L 639 212 L 638 212 L 637 211 L 638 210 L 639 210 L 639 208 L 640 207 L 641 207 L 641 206 L 642 205 L 643 206 L 643 207 L 645 207 L 646 206 L 646 204 L 646 205 L 644 207 L 642 205 L 642 204 L 643 203 L 644 203 L 644 200 L 645 199 L 646 200 L 644 198 L 644 196 L 643 195 L 643 192 L 644 191 L 645 192 L 645 193 L 646 194 L 646 196 L 646 194 L 645 193 L 645 188 L 644 189 L 641 186 L 640 186 L 639 185 L 638 186 L 637 185 L 636 185 L 635 184 L 634 184 L 633 183 L 631 183 L 630 182 L 628 182 L 627 183 L 624 183 L 623 184 L 621 184 L 620 185 L 619 184 L 619 185 L 618 186 Z M 634 212 L 635 211 L 636 211 L 638 213 L 637 214 L 636 214 Z" fill="#15A89D" fill-rule="evenodd"/>
<path d="M 552 187 L 551 188 L 546 188 L 547 189 L 546 190 L 546 191 L 545 192 L 541 192 L 538 195 L 537 194 L 537 193 L 538 192 L 537 193 L 536 192 L 533 192 L 533 193 L 535 193 L 536 192 L 537 193 L 537 194 L 539 196 L 538 197 L 538 198 L 537 199 L 536 198 L 536 196 L 535 197 L 537 199 L 536 200 L 536 205 L 537 206 L 536 207 L 535 207 L 536 207 L 537 208 L 537 213 L 536 214 L 536 215 L 536 214 L 537 213 L 538 214 L 538 215 L 540 215 L 541 216 L 543 216 L 544 217 L 544 218 L 553 218 L 554 219 L 553 220 L 552 220 L 551 221 L 550 220 L 548 220 L 550 220 L 551 221 L 550 222 L 548 222 L 549 223 L 555 223 L 554 222 L 552 222 L 551 221 L 552 220 L 553 220 L 554 219 L 555 219 L 557 217 L 558 218 L 559 218 L 558 217 L 559 216 L 561 216 L 563 214 L 564 214 L 565 215 L 566 214 L 566 213 L 565 212 L 565 209 L 567 207 L 566 208 L 565 207 L 565 205 L 566 204 L 566 197 L 567 196 L 567 192 L 558 192 L 557 191 L 557 190 L 555 188 L 553 188 Z M 564 213 L 565 212 L 566 213 L 566 214 L 565 215 L 564 214 Z M 563 195 L 563 194 L 564 193 L 565 193 L 566 194 L 564 196 Z" fill="#15A89E" fill-rule="evenodd"/>
<path d="M 672 226 L 672 228 L 671 229 L 670 229 L 670 230 L 668 232 L 669 233 L 669 236 L 668 237 L 668 243 L 669 244 L 669 247 L 670 247 L 677 254 L 680 254 L 681 255 L 684 255 L 685 254 L 687 254 L 688 255 L 689 255 L 690 254 L 691 254 L 692 255 L 693 255 L 693 252 L 694 251 L 695 251 L 695 250 L 699 246 L 699 245 L 700 244 L 700 236 L 701 235 L 700 234 L 700 233 L 699 232 L 700 231 L 699 232 L 698 231 L 698 230 L 697 229 L 697 228 L 696 227 L 696 224 L 694 224 L 693 225 L 692 224 L 687 224 L 686 223 L 682 223 L 681 224 L 676 224 L 675 225 L 674 225 L 673 226 Z M 687 254 L 688 253 L 689 253 L 690 254 L 689 255 L 688 255 Z" fill="#B7D337" fill-rule="evenodd"/>
<path d="M 317 231 L 317 233 L 316 234 L 316 244 L 317 245 L 317 247 L 320 250 L 320 254 L 320 253 L 321 252 L 322 252 L 324 254 L 325 253 L 326 253 L 327 254 L 331 254 L 332 255 L 336 255 L 337 254 L 338 254 L 339 253 L 340 253 L 341 252 L 342 252 L 344 250 L 344 249 L 346 247 L 346 246 L 347 245 L 348 246 L 348 247 L 348 246 L 347 245 L 347 242 L 348 241 L 349 241 L 350 242 L 350 243 L 351 244 L 351 240 L 349 240 L 348 239 L 348 237 L 347 236 L 347 233 L 346 232 L 346 228 L 345 228 L 343 226 L 342 226 L 341 225 L 341 224 L 324 224 L 323 225 L 322 225 L 321 226 L 320 226 L 320 227 L 318 229 L 318 230 Z" fill="#B7D338" fill-rule="evenodd"/>
<path d="M 410 225 L 411 225 L 412 226 L 411 227 L 410 227 L 408 229 L 407 229 L 405 231 L 405 232 L 402 235 L 402 243 L 401 244 L 401 250 L 402 250 L 403 251 L 403 252 L 404 252 L 405 253 L 407 253 L 408 254 L 408 255 L 409 256 L 409 257 L 410 258 L 410 259 L 411 260 L 411 261 L 415 261 L 416 262 L 415 263 L 416 264 L 416 265 L 420 265 L 421 264 L 422 264 L 421 264 L 420 263 L 417 263 L 415 261 L 415 260 L 416 259 L 419 259 L 420 258 L 424 258 L 425 257 L 426 257 L 426 256 L 427 255 L 429 255 L 429 254 L 431 252 L 431 250 L 433 248 L 434 248 L 434 246 L 435 245 L 435 240 L 436 239 L 436 237 L 431 232 L 431 231 L 430 231 L 429 230 L 428 230 L 427 229 L 428 228 L 429 228 L 428 228 L 427 229 L 426 229 L 424 227 L 422 227 L 421 226 L 421 225 L 420 226 L 416 226 L 415 225 L 414 226 L 412 226 L 411 225 Z M 434 238 L 435 237 L 436 238 L 436 239 L 435 240 L 434 239 Z" fill="#B7D337" fill-rule="evenodd"/>
<path d="M 584 224 L 585 225 L 585 226 L 586 226 L 587 225 L 589 225 L 590 226 L 590 227 L 589 228 L 587 228 L 588 229 L 587 230 L 586 230 L 585 231 L 585 232 L 583 234 L 583 235 L 582 236 L 582 239 L 581 240 L 579 240 L 579 242 L 580 241 L 581 241 L 582 242 L 582 244 L 583 245 L 583 251 L 582 252 L 582 255 L 583 255 L 583 253 L 584 252 L 585 252 L 588 255 L 591 255 L 592 256 L 592 258 L 595 258 L 596 259 L 598 259 L 599 258 L 600 259 L 601 258 L 603 258 L 604 259 L 605 259 L 606 258 L 605 257 L 606 256 L 607 256 L 608 255 L 609 255 L 609 254 L 610 253 L 611 254 L 611 252 L 612 251 L 614 253 L 614 255 L 615 255 L 615 253 L 614 252 L 614 251 L 615 250 L 614 249 L 614 240 L 615 239 L 615 238 L 614 237 L 614 236 L 613 235 L 613 234 L 612 233 L 612 232 L 611 231 L 611 230 L 610 229 L 609 229 L 608 228 L 604 228 L 603 227 L 600 227 L 599 226 L 598 226 L 597 227 L 592 227 L 591 226 L 590 226 L 588 224 Z M 603 258 L 604 257 L 605 257 L 606 258 L 605 259 L 604 259 Z M 613 250 L 614 249 L 615 250 L 614 251 Z" fill="#B5D336" fill-rule="evenodd"/>
<path d="M 511 231 L 506 231 L 505 232 L 504 232 L 503 233 L 498 233 L 498 235 L 497 236 L 496 235 L 496 239 L 495 240 L 493 240 L 493 244 L 492 245 L 493 246 L 493 254 L 494 255 L 495 255 L 496 256 L 496 259 L 497 259 L 500 262 L 501 262 L 502 263 L 505 263 L 506 264 L 507 264 L 508 263 L 513 263 L 514 262 L 515 262 L 516 261 L 517 262 L 517 261 L 518 260 L 519 261 L 518 260 L 519 259 L 520 259 L 521 260 L 520 259 L 521 258 L 521 257 L 522 256 L 522 255 L 524 253 L 524 249 L 525 248 L 524 247 L 524 242 L 523 241 L 524 240 L 522 238 L 523 237 L 523 236 L 522 235 L 522 236 L 521 237 L 517 233 L 516 233 L 515 232 L 512 232 Z M 522 240 L 523 239 L 524 240 L 523 241 Z M 521 237 L 522 236 L 523 237 L 522 238 Z" fill="#B5D333" fill-rule="evenodd"/>
<path d="M 352 267 L 352 275 L 353 276 L 353 278 L 352 279 L 352 282 L 353 283 L 353 286 L 352 287 L 352 288 L 353 287 L 354 288 L 354 289 L 353 290 L 352 290 L 352 295 L 353 295 L 355 297 L 359 297 L 360 296 L 364 296 L 365 297 L 366 297 L 367 298 L 370 298 L 371 297 L 376 297 L 376 296 L 377 295 L 378 295 L 379 294 L 380 294 L 381 293 L 382 294 L 382 296 L 383 297 L 383 294 L 382 294 L 381 293 L 381 292 L 382 291 L 383 292 L 383 288 L 384 287 L 386 287 L 386 282 L 387 281 L 387 277 L 385 275 L 385 274 L 386 273 L 386 272 L 386 273 L 385 274 L 384 274 L 383 273 L 383 268 L 381 268 L 378 265 L 377 265 L 376 264 L 371 264 L 370 263 L 368 263 L 367 262 L 368 261 L 370 261 L 371 260 L 372 260 L 373 261 L 374 261 L 374 260 L 371 260 L 370 259 L 368 259 L 367 258 L 365 258 L 365 260 L 367 260 L 368 261 L 367 262 L 366 262 L 364 264 L 362 264 L 361 265 L 360 265 L 359 266 L 358 266 L 357 267 L 356 267 L 356 268 L 354 270 L 353 269 L 353 268 Z M 354 293 L 355 292 L 357 292 L 358 293 L 358 294 L 359 295 L 358 296 L 355 296 L 354 295 L 355 294 Z M 353 291 L 354 290 L 355 291 L 354 292 Z M 352 272 L 353 271 L 354 272 L 354 273 L 353 274 L 352 273 Z" fill="#F7D40F" fill-rule="evenodd"/>
<path d="M 656 258 L 656 260 L 655 261 L 654 261 L 653 262 L 652 262 L 651 263 L 641 263 L 640 262 L 640 264 L 639 265 L 636 265 L 636 266 L 632 270 L 632 271 L 631 272 L 631 276 L 630 277 L 630 281 L 629 282 L 628 282 L 630 282 L 631 283 L 631 286 L 630 287 L 628 285 L 628 284 L 628 287 L 631 287 L 632 288 L 632 289 L 633 290 L 632 291 L 633 291 L 634 292 L 634 293 L 635 294 L 636 293 L 637 294 L 637 295 L 639 295 L 640 296 L 640 297 L 643 297 L 644 296 L 645 296 L 646 297 L 647 297 L 648 296 L 653 296 L 654 297 L 653 298 L 652 298 L 651 299 L 652 300 L 655 300 L 656 301 L 656 302 L 655 303 L 656 303 L 656 302 L 657 301 L 657 299 L 656 299 L 655 298 L 655 297 L 654 297 L 653 296 L 654 295 L 656 295 L 655 294 L 656 293 L 657 293 L 658 294 L 659 293 L 660 293 L 660 292 L 662 290 L 665 290 L 666 291 L 666 293 L 667 292 L 667 291 L 668 290 L 668 289 L 669 288 L 666 288 L 665 287 L 665 282 L 666 281 L 666 278 L 665 277 L 665 272 L 666 271 L 666 269 L 664 269 L 664 270 L 662 272 L 660 270 L 660 269 L 661 268 L 659 266 L 658 266 L 657 267 L 655 265 L 656 264 L 657 264 L 658 263 L 658 260 Z M 665 289 L 666 288 L 667 289 L 667 290 L 666 291 L 665 290 Z M 661 288 L 662 287 L 663 288 L 663 289 L 662 290 L 661 289 Z M 664 284 L 665 285 L 665 286 L 663 288 L 662 287 L 662 286 Z M 665 277 L 666 278 L 666 281 L 665 282 L 664 281 L 664 278 Z M 663 272 L 664 272 L 665 273 L 665 276 L 664 277 L 662 275 L 662 273 Z M 652 264 L 653 263 L 655 263 L 656 264 L 655 265 L 653 265 Z M 651 263 L 652 262 L 653 263 L 652 264 Z M 656 260 L 657 259 L 658 260 L 657 261 Z" fill="#F7D30B" fill-rule="evenodd"/>
<path d="M 448 262 L 448 264 L 449 263 L 450 264 L 450 265 L 449 266 L 448 266 L 448 267 L 449 268 L 448 269 L 448 271 L 447 272 L 446 272 L 445 273 L 444 272 L 444 273 L 443 274 L 443 277 L 440 280 L 439 279 L 439 278 L 438 278 L 438 280 L 439 281 L 439 283 L 436 286 L 436 293 L 435 294 L 435 295 L 434 296 L 434 299 L 435 298 L 435 294 L 436 293 L 438 293 L 438 291 L 436 289 L 436 288 L 437 287 L 438 287 L 438 285 L 439 284 L 440 284 L 441 285 L 440 286 L 440 288 L 441 287 L 442 288 L 442 289 L 441 290 L 441 292 L 442 291 L 443 292 L 443 293 L 444 294 L 444 295 L 443 296 L 442 296 L 441 295 L 441 298 L 442 299 L 442 300 L 443 300 L 444 301 L 444 298 L 445 297 L 447 297 L 448 298 L 448 300 L 445 303 L 452 303 L 451 303 L 450 302 L 451 301 L 452 301 L 453 300 L 455 302 L 456 302 L 457 303 L 464 303 L 463 302 L 464 301 L 465 301 L 466 300 L 466 299 L 467 298 L 469 298 L 470 299 L 470 300 L 469 301 L 468 301 L 466 303 L 470 303 L 470 302 L 471 301 L 472 301 L 471 300 L 471 299 L 470 299 L 469 298 L 469 296 L 470 295 L 471 296 L 471 294 L 474 291 L 475 291 L 476 292 L 476 293 L 477 293 L 479 291 L 479 288 L 478 287 L 478 286 L 478 288 L 479 289 L 478 290 L 478 291 L 477 292 L 476 292 L 475 291 L 475 289 L 476 288 L 475 287 L 475 285 L 474 284 L 474 283 L 475 282 L 475 280 L 476 279 L 477 279 L 478 280 L 478 282 L 479 282 L 479 278 L 478 277 L 478 276 L 479 275 L 479 272 L 478 273 L 478 276 L 477 277 L 477 278 L 476 279 L 475 278 L 475 277 L 474 276 L 473 277 L 472 276 L 472 274 L 471 273 L 471 272 L 470 272 L 468 270 L 468 269 L 469 268 L 467 268 L 466 267 L 465 267 L 463 265 L 463 263 L 462 263 L 460 265 L 459 265 L 458 264 L 456 264 L 455 265 L 454 264 L 453 264 L 452 263 L 449 263 Z M 454 301 L 455 300 L 463 300 L 464 301 L 463 302 L 455 302 Z M 447 301 L 448 300 L 449 300 L 450 301 L 449 302 L 448 302 Z M 438 280 L 439 279 L 440 280 L 439 281 Z M 474 279 L 475 278 L 476 279 L 475 280 Z M 473 278 L 474 277 L 475 278 L 474 279 Z M 449 268 L 450 267 L 452 267 L 453 268 L 452 269 L 450 269 Z M 458 266 L 459 265 L 463 265 L 464 266 L 464 267 L 463 268 L 462 268 L 461 267 L 459 267 Z M 455 265 L 456 264 L 457 264 L 458 265 L 457 266 L 456 266 Z M 453 265 L 454 264 L 456 266 L 456 267 L 455 268 L 454 268 L 453 267 Z" fill="#F7D30C" fill-rule="evenodd"/>
<path d="M 554 264 L 553 265 L 552 265 L 553 265 L 554 266 L 553 267 L 552 267 L 551 268 L 548 268 L 548 270 L 546 272 L 545 271 L 546 272 L 544 274 L 544 275 L 542 277 L 541 277 L 541 279 L 540 280 L 540 281 L 541 282 L 541 286 L 540 287 L 541 287 L 544 290 L 544 295 L 545 296 L 544 297 L 544 300 L 545 300 L 546 299 L 546 298 L 547 297 L 548 298 L 549 298 L 550 299 L 549 300 L 548 300 L 549 300 L 550 299 L 551 299 L 552 300 L 551 301 L 551 302 L 550 303 L 549 303 L 548 302 L 546 302 L 546 303 L 559 303 L 559 302 L 561 300 L 562 301 L 562 303 L 568 303 L 566 303 L 564 301 L 566 299 L 567 300 L 567 299 L 568 298 L 569 298 L 570 297 L 570 296 L 571 295 L 572 295 L 572 294 L 573 293 L 575 295 L 575 296 L 575 293 L 574 292 L 575 291 L 575 284 L 574 283 L 574 282 L 575 281 L 575 277 L 574 276 L 573 277 L 572 276 L 572 275 L 571 274 L 571 273 L 572 272 L 573 272 L 575 274 L 575 271 L 572 271 L 571 272 L 569 270 L 568 270 L 567 269 L 565 269 L 563 267 L 562 267 L 561 266 L 562 265 L 564 265 L 565 266 L 568 266 L 568 264 L 556 264 L 555 265 Z M 551 301 L 552 300 L 557 300 L 558 301 L 556 303 L 555 303 L 554 302 L 552 302 Z M 545 297 L 546 296 L 547 297 L 546 298 Z M 555 266 L 556 265 L 557 265 L 558 266 L 557 267 L 556 267 Z" fill="#F7D40F" fill-rule="evenodd"/>
<path d="M 423 304 L 420 304 L 420 307 L 419 308 L 416 308 L 415 307 L 415 305 L 416 304 L 413 304 L 413 305 L 412 306 L 411 306 L 412 307 L 410 309 L 406 309 L 405 308 L 406 307 L 408 307 L 407 307 L 406 306 L 406 305 L 407 304 L 408 305 L 409 304 L 407 304 L 405 306 L 401 306 L 400 305 L 400 308 L 401 307 L 403 307 L 404 308 L 403 309 L 402 309 L 401 310 L 400 310 L 400 311 L 398 313 L 397 313 L 395 315 L 394 314 L 394 313 L 395 312 L 394 312 L 393 313 L 392 313 L 391 314 L 391 317 L 392 318 L 392 319 L 391 320 L 390 320 L 390 322 L 391 321 L 391 320 L 392 319 L 393 320 L 393 329 L 392 330 L 392 332 L 391 333 L 390 333 L 389 332 L 389 331 L 388 330 L 388 329 L 388 335 L 389 336 L 389 338 L 388 339 L 388 343 L 392 347 L 393 347 L 394 348 L 395 347 L 396 347 L 397 346 L 399 346 L 400 347 L 400 351 L 403 351 L 402 350 L 402 349 L 403 348 L 403 347 L 402 347 L 401 346 L 400 346 L 399 345 L 400 344 L 402 344 L 401 343 L 402 342 L 403 342 L 405 344 L 404 345 L 405 345 L 406 346 L 407 346 L 408 347 L 409 346 L 408 346 L 407 345 L 408 344 L 415 344 L 416 345 L 416 346 L 417 346 L 418 345 L 417 345 L 416 344 L 417 343 L 420 343 L 421 342 L 422 342 L 424 344 L 423 345 L 427 345 L 427 344 L 428 343 L 429 344 L 429 345 L 431 345 L 431 343 L 430 343 L 429 342 L 429 341 L 430 340 L 431 340 L 431 334 L 430 333 L 430 332 L 430 333 L 431 334 L 431 335 L 430 336 L 428 334 L 428 331 L 429 330 L 428 329 L 428 328 L 429 327 L 430 328 L 431 327 L 430 328 L 429 327 L 429 326 L 428 325 L 428 323 L 429 322 L 430 323 L 430 324 L 430 322 L 431 321 L 431 318 L 430 318 L 430 319 L 429 320 L 428 320 L 427 319 L 427 316 L 426 315 L 427 314 L 428 314 L 429 315 L 429 316 L 430 315 L 431 315 L 431 313 L 430 314 L 427 311 L 427 310 L 426 310 L 425 311 L 425 313 L 424 314 L 423 313 L 423 312 L 422 311 L 422 310 L 423 309 L 423 307 L 422 306 L 423 305 Z M 422 342 L 423 341 L 424 342 L 423 343 Z M 420 341 L 421 340 L 422 340 L 423 341 L 422 342 L 421 342 Z M 423 339 L 424 338 L 425 339 L 424 340 Z M 426 339 L 428 337 L 429 337 L 430 338 L 430 340 L 429 341 L 428 341 Z M 424 338 L 425 337 L 426 337 L 427 338 L 426 339 L 425 339 Z M 394 333 L 395 334 L 395 337 L 397 339 L 396 340 L 397 339 L 398 340 L 399 340 L 401 342 L 400 343 L 399 343 L 398 344 L 397 344 L 397 346 L 396 347 L 395 346 L 393 346 L 389 342 L 389 340 L 388 339 L 389 338 L 392 338 L 391 337 L 393 335 L 393 334 Z M 392 331 L 393 330 L 394 331 L 393 332 Z M 428 321 L 430 319 L 431 320 L 431 321 L 430 322 L 429 322 Z M 392 317 L 393 316 L 394 317 L 393 318 Z M 393 315 L 394 314 L 395 315 L 394 316 Z M 424 314 L 425 313 L 426 314 L 425 315 Z M 427 313 L 428 312 L 429 313 L 428 314 Z M 419 308 L 420 307 L 421 308 L 420 309 Z M 404 307 L 405 306 L 406 307 L 405 308 Z" fill="#F89A1F" fill-rule="evenodd"/>
<path d="M 519 304 L 517 304 L 517 305 L 516 306 L 516 307 L 515 308 L 512 308 L 511 307 L 511 306 L 512 305 L 513 305 L 514 304 L 504 304 L 505 305 L 507 305 L 508 304 L 511 304 L 512 305 L 508 309 L 507 308 L 502 308 L 503 309 L 511 309 L 512 310 L 511 311 L 501 311 L 500 312 L 499 312 L 498 313 L 497 312 L 496 312 L 493 315 L 492 315 L 492 316 L 490 318 L 490 319 L 489 320 L 485 320 L 485 323 L 486 323 L 487 322 L 488 323 L 488 325 L 489 326 L 489 327 L 488 328 L 489 327 L 490 328 L 490 330 L 489 331 L 488 331 L 488 332 L 487 333 L 486 333 L 485 332 L 485 335 L 486 335 L 488 337 L 488 339 L 491 342 L 491 343 L 491 342 L 490 341 L 490 339 L 491 338 L 492 339 L 492 340 L 494 340 L 495 341 L 495 342 L 497 342 L 498 343 L 497 344 L 496 344 L 495 345 L 493 345 L 492 346 L 489 346 L 490 347 L 497 347 L 497 346 L 499 344 L 500 344 L 501 345 L 500 346 L 500 347 L 503 347 L 504 348 L 503 349 L 502 349 L 501 350 L 498 350 L 497 351 L 496 351 L 504 351 L 503 350 L 503 349 L 504 348 L 506 348 L 507 347 L 508 348 L 513 348 L 514 347 L 515 348 L 514 347 L 512 347 L 511 346 L 512 345 L 515 345 L 516 346 L 519 343 L 520 343 L 520 342 L 522 340 L 523 341 L 523 340 L 524 339 L 524 337 L 525 336 L 526 337 L 526 341 L 527 342 L 527 335 L 526 336 L 525 335 L 525 334 L 526 333 L 526 330 L 527 329 L 527 325 L 525 323 L 525 322 L 526 321 L 527 322 L 527 320 L 526 319 L 525 319 L 524 318 L 524 317 L 523 316 L 523 314 L 524 313 L 527 313 L 527 310 L 525 310 L 523 312 L 521 312 L 520 313 L 519 313 L 517 311 L 514 311 L 513 310 L 512 310 L 511 309 L 512 308 L 515 308 L 516 309 L 517 308 L 517 307 L 519 305 Z M 508 347 L 509 346 L 511 346 L 512 347 L 511 348 L 509 348 Z M 503 347 L 504 346 L 505 347 L 504 348 Z M 490 330 L 491 331 L 491 333 L 490 334 L 489 333 L 489 331 Z M 490 320 L 491 321 L 491 327 L 490 328 L 489 327 L 489 326 L 488 325 L 488 324 L 489 323 L 489 321 Z M 524 320 L 525 319 L 526 320 L 526 321 L 525 322 L 524 321 Z M 490 320 L 491 319 L 492 320 L 491 321 Z M 521 315 L 522 314 L 523 315 L 522 316 Z M 520 314 L 521 313 L 522 314 L 521 315 Z" fill="#F89A1F" fill-rule="evenodd"/>
<path d="M 592 307 L 592 309 L 591 310 L 590 310 L 590 311 L 591 312 L 591 313 L 590 314 L 589 314 L 588 315 L 588 316 L 587 317 L 587 318 L 585 320 L 586 321 L 586 324 L 585 325 L 585 330 L 586 329 L 587 330 L 587 331 L 586 332 L 586 335 L 586 332 L 587 331 L 588 332 L 588 334 L 589 335 L 591 335 L 592 336 L 592 339 L 593 340 L 592 341 L 593 340 L 594 341 L 594 342 L 593 343 L 594 342 L 595 342 L 596 343 L 601 343 L 602 344 L 600 346 L 598 346 L 598 348 L 599 348 L 600 349 L 598 351 L 597 351 L 603 351 L 602 351 L 601 350 L 602 349 L 604 349 L 604 348 L 602 346 L 604 344 L 607 344 L 608 345 L 607 346 L 605 346 L 606 347 L 607 347 L 608 348 L 608 349 L 609 349 L 610 348 L 609 347 L 612 344 L 614 344 L 616 342 L 615 341 L 616 340 L 618 340 L 618 339 L 619 338 L 620 338 L 621 339 L 620 340 L 621 340 L 622 341 L 622 344 L 623 344 L 623 333 L 622 332 L 622 330 L 623 329 L 623 320 L 621 318 L 622 317 L 623 317 L 623 315 L 621 317 L 620 316 L 620 314 L 619 315 L 617 313 L 618 312 L 619 312 L 618 312 L 617 313 L 615 311 L 615 310 L 614 310 L 613 309 L 613 308 L 612 309 L 611 309 L 609 307 L 610 306 L 611 306 L 610 305 L 609 305 L 608 304 L 603 304 L 607 304 L 608 305 L 607 306 L 601 306 L 599 304 L 596 304 L 596 306 L 597 307 L 596 308 L 594 308 L 593 307 Z M 607 344 L 608 343 L 611 343 L 612 344 L 611 345 L 608 345 Z M 622 333 L 623 334 L 623 335 L 622 336 L 623 337 L 622 338 L 621 338 L 620 337 L 620 335 Z M 586 319 L 587 318 L 588 319 L 587 320 Z M 593 310 L 595 308 L 596 308 L 597 307 L 599 307 L 600 308 L 599 309 L 598 309 L 596 311 L 594 311 Z M 599 307 L 600 306 L 601 306 L 602 307 L 601 308 L 600 308 Z" fill="#F89A1F" fill-rule="evenodd"/>
<path d="M 558 340 L 557 341 L 555 341 L 556 342 L 557 342 L 558 343 L 559 343 L 560 344 L 559 345 L 560 346 L 559 347 L 557 347 L 556 346 L 556 344 L 556 345 L 554 347 L 550 347 L 552 349 L 551 350 L 549 350 L 548 351 L 547 350 L 544 350 L 544 356 L 541 359 L 540 358 L 540 357 L 539 357 L 539 359 L 538 360 L 539 361 L 539 369 L 538 370 L 537 369 L 537 363 L 536 362 L 536 359 L 536 376 L 538 374 L 539 375 L 539 378 L 540 378 L 542 376 L 543 376 L 544 377 L 544 380 L 546 382 L 545 383 L 546 382 L 547 383 L 550 383 L 551 384 L 551 385 L 552 386 L 551 387 L 549 387 L 549 388 L 551 388 L 553 390 L 552 391 L 559 391 L 560 392 L 559 393 L 556 393 L 555 394 L 556 395 L 559 395 L 560 396 L 561 396 L 560 396 L 559 395 L 560 394 L 568 394 L 568 393 L 566 393 L 564 391 L 561 391 L 560 390 L 561 389 L 566 389 L 567 390 L 569 388 L 568 388 L 567 387 L 567 386 L 568 385 L 570 385 L 570 384 L 571 383 L 573 385 L 575 385 L 575 384 L 576 383 L 578 383 L 579 382 L 580 382 L 581 383 L 585 383 L 585 380 L 584 379 L 583 380 L 583 382 L 582 383 L 580 381 L 579 382 L 577 380 L 579 378 L 579 377 L 580 376 L 581 376 L 582 377 L 582 378 L 582 376 L 581 375 L 581 374 L 582 373 L 581 372 L 581 368 L 582 367 L 581 366 L 581 364 L 582 363 L 582 362 L 581 361 L 581 357 L 581 358 L 580 359 L 579 358 L 579 355 L 580 354 L 581 354 L 582 353 L 583 354 L 583 356 L 584 357 L 584 358 L 583 359 L 584 358 L 585 359 L 585 352 L 584 352 L 584 353 L 583 354 L 582 353 L 582 352 L 581 353 L 580 353 L 579 352 L 575 352 L 576 353 L 575 354 L 574 354 L 573 353 L 573 351 L 572 350 L 573 349 L 574 349 L 575 350 L 575 349 L 573 347 L 574 346 L 575 346 L 575 342 L 569 342 L 568 343 L 568 344 L 569 343 L 570 343 L 571 344 L 574 344 L 575 345 L 572 348 L 571 348 L 570 347 L 570 346 L 569 347 L 568 346 L 565 346 L 564 345 L 563 346 L 560 346 L 559 345 L 560 344 L 559 343 L 560 342 L 559 341 L 559 340 Z M 552 389 L 553 388 L 559 388 L 560 389 L 559 390 L 553 390 Z M 562 387 L 563 386 L 566 386 L 567 387 L 566 388 L 563 388 Z M 572 383 L 573 382 L 574 383 L 573 384 Z M 573 382 L 574 381 L 575 382 L 574 383 Z M 576 381 L 577 380 L 578 381 L 577 382 Z M 577 377 L 578 376 L 579 377 L 579 378 L 578 379 L 577 378 Z M 578 375 L 579 374 L 580 375 L 579 376 Z M 579 372 L 580 371 L 581 372 L 580 373 Z M 576 354 L 577 353 L 578 354 L 577 355 Z M 544 353 L 545 352 L 546 353 L 545 354 Z M 545 352 L 546 351 L 547 352 L 546 353 Z M 570 349 L 571 348 L 572 348 L 573 349 L 572 350 L 571 350 Z M 551 348 L 552 347 L 553 347 L 554 348 L 553 349 L 552 349 Z M 559 347 L 560 346 L 563 346 L 564 347 L 563 348 L 560 348 Z M 555 347 L 556 346 L 557 347 L 556 348 Z" fill="#F15A2C" fill-rule="evenodd"/>
<path d="M 448 342 L 448 347 L 449 347 L 450 346 L 451 346 L 449 346 L 448 345 L 449 344 L 453 344 L 454 345 L 454 347 L 452 349 L 451 349 L 450 350 L 448 350 L 448 351 L 447 352 L 444 352 L 443 353 L 442 352 L 441 353 L 440 352 L 441 353 L 439 355 L 437 353 L 437 352 L 434 352 L 437 355 L 437 357 L 438 358 L 438 360 L 437 361 L 436 361 L 435 360 L 434 360 L 434 367 L 433 368 L 432 367 L 432 366 L 432 367 L 433 368 L 433 370 L 434 371 L 434 373 L 435 374 L 435 377 L 436 378 L 436 379 L 434 381 L 434 383 L 437 383 L 437 381 L 439 379 L 440 380 L 440 382 L 441 381 L 442 382 L 442 383 L 443 384 L 443 385 L 445 387 L 446 387 L 447 388 L 448 387 L 449 388 L 451 388 L 452 389 L 453 389 L 455 391 L 456 390 L 457 390 L 457 389 L 458 388 L 459 388 L 460 387 L 461 388 L 462 388 L 463 389 L 462 390 L 461 390 L 463 390 L 464 391 L 463 392 L 461 392 L 461 393 L 463 393 L 463 392 L 464 391 L 463 390 L 463 389 L 464 388 L 465 389 L 467 389 L 465 389 L 464 388 L 465 387 L 467 387 L 468 386 L 468 385 L 470 383 L 471 383 L 471 382 L 472 381 L 473 382 L 473 383 L 476 383 L 476 380 L 477 379 L 475 377 L 475 376 L 476 375 L 477 375 L 476 375 L 475 374 L 475 371 L 476 370 L 478 372 L 477 371 L 477 369 L 478 368 L 479 369 L 479 366 L 478 366 L 477 365 L 477 364 L 478 363 L 479 364 L 479 360 L 479 361 L 478 362 L 476 360 L 475 360 L 474 361 L 473 360 L 473 356 L 471 356 L 468 353 L 468 352 L 464 352 L 463 351 L 463 350 L 461 350 L 460 349 L 462 347 L 463 347 L 463 342 L 461 342 L 459 344 L 462 344 L 463 345 L 462 346 L 459 346 L 461 346 L 462 347 L 460 349 L 457 349 L 456 348 L 457 347 L 457 345 L 454 345 L 453 344 L 452 344 L 450 342 Z M 444 385 L 445 384 L 446 385 L 445 386 Z M 443 384 L 444 383 L 445 384 L 444 385 Z M 472 381 L 473 380 L 474 380 L 475 381 L 475 382 L 474 383 Z M 474 375 L 475 374 L 476 375 L 475 376 Z M 435 367 L 436 368 L 436 372 L 437 373 L 437 376 L 436 377 L 435 376 L 435 374 L 434 373 L 434 368 Z M 476 366 L 477 365 L 478 366 L 478 367 L 477 368 L 476 367 Z M 475 365 L 476 364 L 477 365 L 476 366 Z M 474 362 L 475 361 L 476 362 L 476 363 L 475 364 L 474 363 Z M 440 354 L 441 353 L 442 354 L 441 355 Z M 441 353 L 442 352 L 443 353 L 442 354 Z" fill="#F1592A" fill-rule="evenodd"/>
<path d="M 492 384 L 493 385 L 495 385 L 496 386 L 496 387 L 500 387 L 501 388 L 500 389 L 497 389 L 496 390 L 495 390 L 496 391 L 494 393 L 493 392 L 492 392 L 491 393 L 490 393 L 489 392 L 490 393 L 490 395 L 489 396 L 488 395 L 489 396 L 487 398 L 486 398 L 484 400 L 484 401 L 485 401 L 485 400 L 486 399 L 487 400 L 487 404 L 486 405 L 486 416 L 487 415 L 488 416 L 488 421 L 491 424 L 489 426 L 489 427 L 489 426 L 490 425 L 491 426 L 491 429 L 492 429 L 493 428 L 496 428 L 497 429 L 495 431 L 494 430 L 494 431 L 498 431 L 497 431 L 496 430 L 497 429 L 500 429 L 501 430 L 500 431 L 501 430 L 502 431 L 512 431 L 513 430 L 514 431 L 521 431 L 522 430 L 523 430 L 523 429 L 521 431 L 519 429 L 521 427 L 522 427 L 523 426 L 524 426 L 525 425 L 526 426 L 526 427 L 527 427 L 527 424 L 527 425 L 526 426 L 525 425 L 525 423 L 526 422 L 527 422 L 527 413 L 528 412 L 528 411 L 529 410 L 529 409 L 528 408 L 529 407 L 527 405 L 527 396 L 526 395 L 527 394 L 527 393 L 526 392 L 527 391 L 527 387 L 526 388 L 525 388 L 525 389 L 526 390 L 526 392 L 527 393 L 527 394 L 526 395 L 524 395 L 523 394 L 524 393 L 523 392 L 520 392 L 519 391 L 519 390 L 518 390 L 517 389 L 517 388 L 518 387 L 516 387 L 515 386 L 516 385 L 520 385 L 521 384 L 518 384 L 517 385 L 516 385 L 515 384 L 514 384 L 515 384 L 516 385 L 515 386 L 511 386 L 510 387 L 505 387 L 504 386 L 502 386 L 501 387 L 499 387 L 498 386 L 499 385 L 500 385 L 501 384 L 502 384 Z M 518 430 L 519 429 L 520 430 L 519 431 Z M 513 430 L 514 429 L 515 429 L 516 430 L 515 431 L 514 431 Z M 492 426 L 493 425 L 495 425 L 496 426 L 495 427 L 493 427 Z M 525 421 L 526 420 L 527 421 L 526 422 Z M 525 396 L 526 395 L 527 396 L 526 397 Z M 522 393 L 523 392 L 524 393 L 523 394 Z M 501 387 L 502 386 L 503 387 L 502 388 Z" fill="#DD1F27" fill-rule="evenodd"/>
</svg>
