<svg xmlns="http://www.w3.org/2000/svg" viewBox="0 0 1200 1200" fill="#8a96a8" aria-hidden="true">
  <path d="m155.62 416.81c-4.875 0-9.5625-1.875-12.938-5.4375l-137.44-141c-6.9375-7.125-6.9375-18.375 0-25.312l137.44-140.81c5.25-5.25 13.125-6.9375 19.875-4.125 6.9375 2.8125 11.25 9.375 11.25 16.875v54.188h288.75c10.125 0 18.188 8.0625 18.188 18.188s-8.0625 18.188-18.188 18.188h-306.94c-10.125 0-18.188-8.0625-18.188-18.188v-27.938l-93.938 96.188 93.938 96.375v-27.75c0-10.125 8.0625-18.188 18.188-18.188h306.94c10.125 0 18.188 8.0625 18.188 18.188s-8.0625 18.188-18.188 18.188h-288.75v54.375c0 7.3125-4.5 14.062-11.25 16.875-2.25 0.75-4.5 1.125-6.9375 1.125z"/>
  <path d="m1044.4 416.81c-2.25 0-4.6875-0.375-6.9375-1.3125-6.9375-2.8125-11.25-9.375-11.25-16.875v-54.375h-288.75c-10.125 0-18.188-8.0625-18.188-18.188s8.0625-18.188 18.188-18.188h306.94c10.125 0 18.188 8.0625 18.188 18.188v27.75l93.938-96.375-93.938-96.188v27.562c0 10.125-8.0625 18.188-18.188 18.188h-306.94c-10.125 0-18.188-8.0625-18.188-18.188s8.0625-18.188 18.188-18.188h288.75v-53.812c0-7.3125 4.5-14.062 11.25-16.875s14.625-1.125 19.875 4.125l137.44 140.81c6.9375 7.125 6.9375 18.375 0 25.312l-137.44 141c-3.5625 3.75-8.25 5.625-12.938 5.625z"/>
  <path d="m522.19 724.12c-10.125 0-18.188-8.0625-18.188-18.188v-476.81c0-50.438 41.062-91.5 91.5-91.5s91.5 41.062 91.5 91.5v406.69c0 10.125-8.0625 18.188-18.188 18.188s-18.188-8.0625-18.188-18.188v-406.69c0-30.375-24.75-55.125-55.125-55.125s-55.125 24.75-55.125 55.125v476.81c0 9.9375-8.25 18.188-18.188 18.188z"/>
  <path d="m808.12 655.88c-10.125 0-18.188-8.0625-18.188-18.188v-144.38c0-28.312-23.062-51.375-51.375-51.375s-51.375 23.062-51.375 51.375v61.5c0 10.125-8.0625 18.188-18.188 18.188s-18.188-8.0625-18.188-18.188v-61.5c0-48.375 39.375-87.75 87.75-87.75s87.75 39.375 87.75 87.75v144.38c0 10.125-8.0625 18.188-18.188 18.188z"/>
  <path d="m932.25 655.88c-10.125 0-18.188-8.0625-18.188-18.188v-113.06c0-24.188-19.688-43.875-43.875-43.875s-43.875 19.688-43.875 43.875v19.312c0 10.125-8.0625 18.188-18.188 18.188s-18.188-8.0625-18.188-18.188v-19.312c0-44.25 36-80.25 80.25-80.25s80.25 36 80.25 80.25v113.06c0 10.125-8.25 18.188-18.188 18.188z"/>
  <path d="m789 1101.4c-213.75 0-387.75-174-387.75-387.75v-60.75c0-66.75 54.188-120.94 120.94-120.94 10.125 0 18.188 8.0625 18.188 18.188s-8.0625 18.188-18.188 18.188c-46.688 0-84.562 37.875-84.562 84.562v60.75c0 193.69 157.69 351.38 351.38 351.38 138.94 0 252-113.06 252-252v-256.88c0-19.125-15.562-34.875-34.875-34.875h-55.688v69.938c0 10.125-8.0625 18.188-18.188 18.188s-18.188-8.0625-18.188-18.188v-88.125c0-10.125 8.0625-18.188 18.188-18.188h73.875c39.188 0 71.25 31.875 71.25 71.25v256.88c-0.1875 159-129.38 288.38-288.38 288.38z"/>
</svg>
