<svg xmlns="http://www.w3.org/2000/svg" viewBox="0 0 1200 1200" fill="#8a96a8" aria-hidden="true">
  <path d="m1069.1 653.31c-13.07-30.598-31.895-58.402-55.457-81.898l-194.57-194.57c-14.742-14.746-34.355-23.609-55.164-24.934-20.809-1.3281-41.387 4.9766-57.879 17.734-16.496 12.754-27.777 31.082-31.73 51.555-23.859-11.68-51.809-11.559-75.57 0.32422-23.762 11.887-40.621 34.176-45.586 60.277-22.902-11.367-49.715-11.766-72.945-1.0859-23.23 10.676-40.383 31.289-46.668 56.07l-190.24-190.24c-16.328-15.582-38.031-24.277-60.602-24.277s-44.273 8.6953-60.598 24.277c-16.07 16.074-25.098 37.871-25.098 60.602 0 22.727 9.0273 44.523 25.098 60.598l423.39 423.43h-0.003906c1.7148 1.5859 2.2188 4.0898 1.2461 6.2148-0.78125 2.2148-2.9297 3.6445-5.2734 3.5117h-96.559c-28.152-0.085938-55.77 7.7148-79.719 22.516-23.949 14.801-43.277 36.008-55.793 61.23-8.8711 17.707-8.9727 38.543-0.26953 56.336 8.6992 17.797 25.203 30.516 44.625 34.391l249 49.801c38.859 7.8672 78.316 12.441 117.95 13.672h7.1992c76.48-0.79688 149.54-31.793 203.27-86.23l75.602-75.469c41.738-41.457 70.016-94.527 81.137-152.3 11.125-57.766 4.582-117.54-18.781-171.54zm-92.656 293.44-75.602 75.645c-23.246 23.809-51.113 42.617-81.887 55.27-30.777 12.656-63.812 18.887-97.082 18.316-37.215-1.1289-74.262-5.4297-110.74-12.855l-249-49.801c-6.3086-1.2812-11.664-5.4258-14.484-11.211-2.8242-5.7891-2.793-12.559 0.082031-18.316 8.9766-18.078 22.832-33.281 40.004-43.887 17.172-10.602 36.973-16.188 57.152-16.113h96.559c12.871-0.015625 25.211-5.1406 34.305-14.246 9.0938-9.1094 14.199-21.453 14.195-34.324 0-12.871-5.1133-25.215-14.215-34.316l-423.43-423.43c-8.0312-8.0352-12.547-18.934-12.547-30.297 0-11.367 4.5156-22.266 12.547-30.301 8.1602-7.8008 19.016-12.156 30.301-12.156 11.289 0 22.141 4.3555 30.301 12.156l242.36 242.31 30.258 30.258c5.4453 5.2578 13.258 7.2539 20.555 5.2539 7.2969-2.0039 13-7.7031 15-15 2-7.3008 0.003907-15.109-5.2539-20.555l-30.344-30.387c-10.242-10.938-14.027-26.434-9.9805-40.867 4.0469-14.43 15.34-25.699 29.777-29.715 14.441-4.0156 29.93-0.19922 40.848 10.07l45.473 45.43c5.4414 5.2539 13.254 7.25 20.551 5.25s13-7.7031 15-15 0.003906-15.109-5.2539-20.551l-15.172-15.129h0.003906c-10.836-10.824-15.07-26.609-11.109-41.402 3.957-14.793 15.508-26.352 30.297-30.32 14.793-3.9688 30.578 0.25391 41.41 11.078l45.473 45.473c3.9922 4.1328 9.4805 6.4922 15.227 6.5391 5.7461 0.050781 11.273-2.2109 15.34-6.2734 4.0625-4.0664 6.3242-9.5898 6.2734-15.34-0.050781-5.7461-2.4062-11.234-6.5391-15.227l-15.172-15.172c-10.238-10.945-14.012-26.445-9.957-40.875 4.0586-14.426 15.359-25.688 29.801-29.695 14.445-4.0039 29.93-0.17578 40.84 10.102l194.57 194.61h0.003906c19.703 19.668 35.434 42.949 46.328 68.57 19.945 46.074 25.555 97.09 16.09 146.39-9.4648 49.309-33.559 94.621-69.148 130.04z"/>
  <path d="m382.24 321.17 169.2 27.688v-0.003906c1.1523 0.17188 2.3125 0.25781 3.4727 0.25781 7.2773 0.042969 14.074-3.6133 18.059-9.7031 3.9805-6.0898 4.5977-13.781 1.6445-20.43-2.957-6.6484-9.0859-11.344-16.273-12.465l-121.5-19.844c83.402-52.473 182.75-73.574 280.29-59.527 95.516 13.27 183.58 58.93 249.47 129.34 5.2188 5.6055 13.035 8 20.496 6.2773 7.4648-1.7188 13.445-7.2891 15.688-14.613 2.2422-7.3242 0.40625-15.289-4.8125-20.891-72.609-77.582-169.64-127.9-274.89-142.54-106.89-15.406-215.79 7.5508-307.37 64.801l18.855-115.24v-0.003907c1.2344-7.5625-1.6641-15.207-7.5977-20.059-5.9336-4.8477-14.004-6.1641-21.172-3.4492-7.1641 2.7148-12.34 9.0469-13.57 16.609l-27.688 169.16c-0.92969 5.6172 0.41797 11.371 3.7383 15.996 3.3203 4.6211 8.3438 7.7344 13.961 8.6484z"/>
</svg>
