<?xml version="1.0" encoding="UTF-8"?>
<svg xmlns="http://www.w3.org/2000/svg" viewBox="0 0 2788 1355" role="img" aria-label="Runners crossing the finish line" style="color:rgb(59.9%, 0.1%, 60.2%)">
  <g fill="currentColor" fill-rule="evenodd" stroke="none">
    <path d="M2750 339L2745 333L2743 320L2726 320L2720 325L2710 325L2689 334L2676 335L2671 339L2658 340L2650 345L2640 345L2635 349L2621 350L2591 360L2578 360L2569 365L2523 370L2511 375L2431 377L2383 375L2371 370L2353 370L2340 365L2295 359L2289 355L2275 355L2241 345L2226 345L2216 340L2108 325L1994 325L1971 330L1946 330L1938 334L1916 335L1849 350L1763 380L1670 425L1544 494L1482 520L1480 516L1485 504L1491 424L1495 414L1535 362L1560 310L1600 251L1625 179L1626 167L1630 163L1641 119L1675 89L1685 49L1671 34L1685 16L1684 3L1680 2L1667 9L1612 69L1591 146L1557 206L1536 261L1497 303L1477 338L1418 387L1414 382L1415 360L1430 348L1435 339L1435 267L1431 261L1400 235L1369 235L1350 245L1330 272L1325 252L1319 245L1309 241L1308 246L1317 260L1318 292L1315 296L1307 296L1296 284L1290 269L1290 254L1285 252L1282 256L1282 279L1297 308L1292 310L1285 303L1285 295L1276 280L1267 275L1259 276L1257 285L1267 290L1267 325L1221 268L1200 218L1176 182L1156 143L1110 34L1099 20L1093 20L1090 30L1097 57L1081 60L1076 65L1072 86L1086 100L1087 109L1096 122L1117 140L1127 174L1131 177L1137 199L1142 205L1168 273L1211 332L1232 374L1276 425L1282 474L1272 493L1274 515L1262 514L1197 485L1056 405L950 355L871 330L780 315L642 315L620 320L592 320L579 325L557 325L543 330L526 330L516 335L473 340L464 345L450 345L395 360L383 360L375 365L342 370L336 375L304 380L299 384L285 385L258 395L248 395L221 405L193 410L185 415L157 420L150 425L121 430L114 435L71 445L67 455L71 460L72 473L79 482L124 468L151 463L158 458L187 453L195 448L205 448L231 438L260 433L267 428L297 423L302 419L336 413L344 408L355 408L406 393L418 393L427 388L464 383L472 378L515 373L525 368L542 368L556 363L575 363L589 358L615 358L636 353L785 353L870 368L878 373L906 378L911 383L919 383L960 399L1040 438L1062 453L1078 459L1107 478L1201 528L1248 548L1255 548L1261 553L1285 558L1291 618L1267 726L1267 762L1260 815L1262 963L1267 979L1267 996L1277 1023L1293 1038L1312 1038L1324 1033L1335 1043L1345 1043L1362 1028L1366 1031L1372 1048L1367 1108L1377 1148L1382 1191L1377 1215L1372 1223L1369 1247L1372 1277L1362 1294L1358 1311L1362 1323L1374 1333L1404 1333L1426 1323L1435 1313L1430 1239L1421 1219L1420 1196L1430 1155L1445 1113L1445 1054L1435 1019L1436 980L1445 935L1450 927L1475 827L1475 712L1455 635L1465 605L1471 565L1477 559L1501 553L1507 548L1514 548L1531 538L1548 533L1663 473L1684 459L1792 408L1799 408L1832 394L1844 393L1851 388L1881 383L1889 378L1931 373L1942 368L1967 368L1986 363L2116 363L2218 378L2227 383L2265 388L2300 398L2314 398L2324 403L2375 408L2390 413L2505 413L2520 408L2541 408L2554 403L2569 403L2579 398L2592 398L2598 394L2652 383L2659 378L2688 373L2713 363L2722 363L2726 359L2749 353Z"/>
    <path d="M2029 525L2003 525L1999 529L1994 530L1990 535L1987 536L1987 537L1982 541L1981 545L1977 548L1977 554L1974 561L1974 576L1977 584L1977 593L1981 596L1982 601L1987 606L1987 610L1991 614L1991 619L1987 624L1986 629L1985 630L1983 630L1981 634L1976 635L1971 640L1965 640L1959 645L1953 645L1949 649L1943 650L1940 654L1936 655L1935 657L1932 659L1924 668L1922 669L1922 672L1917 677L1916 683L1912 687L1912 696L1911 697L1910 702L1908 704L1908 706L1907 707L1907 737L1906 738L1906 742L1902 749L1902 762L1900 767L1898 768L1897 770L1896 786L1894 789L1894 792L1893 793L1893 801L1892 802L1892 813L1893 814L1893 819L1896 823L1897 830L1901 833L1902 837L1903 838L1905 838L1909 843L1928 843L1931 839L1933 838L1938 838L1942 834L1944 834L1945 833L1950 833L1956 828L1965 828L1968 830L1968 832L1971 835L1971 846L1968 850L1968 852L1967 853L1967 863L1966 864L1966 866L1962 870L1962 878L1957 884L1957 894L1956 895L1956 898L1953 904L1953 908L1952 909L1952 954L1951 955L1950 998L1951 999L1951 1014L1952 1015L1952 1034L1956 1039L1956 1041L1957 1042L1957 1048L1961 1052L1961 1054L1962 1055L1962 1149L1963 1150L1963 1155L1966 1162L1966 1167L1967 1168L1967 1181L1971 1186L1971 1188L1972 1189L1972 1198L1974 1203L1976 1205L1977 1215L1980 1218L1982 1222L1982 1230L1987 1239L1987 1255L1988 1256L1987 1277L1982 1283L1981 1287L1979 1289L1977 1289L1976 1293L1972 1296L1972 1298L1967 1302L1967 1305L1965 1309L1965 1314L1967 1318L1967 1321L1971 1323L1975 1328L1993 1328L1997 1324L2001 1323L2001 1322L2005 1319L2006 1316L2008 1314L2010 1314L2011 1311L2013 1309L2016 1308L2019 1304L2023 1302L2024 1300L2030 1295L2031 1290L2035 1285L2035 1273L2031 1267L2031 1265L2030 1264L2030 1259L2025 1253L2025 1238L2024 1237L2024 1231L2023 1230L2022 1222L2021 1221L2021 1209L2020 1208L2020 1164L2016 1156L2016 1152L2015 1151L2015 1136L2011 1128L2011 1125L2010 1124L2011 1115L2014 1113L2016 1109L2018 1108L2022 1108L2027 1104L2032 1103L2033 1101L2040 1095L2041 1090L2044 1088L2045 1086L2045 1080L2047 1076L2050 1074L2050 1069L2051 1068L2051 1066L2055 1063L2061 1063L2063 1064L2066 1068L2070 1069L2072 1073L2074 1073L2077 1077L2082 1079L2085 1083L2090 1084L2095 1088L2103 1088L2108 1084L2112 1083L2120 1074L2121 1065L2123 1063L2125 1058L2125 1043L2126 1042L2126 1040L2130 1037L2131 1030L2134 1026L2134 1023L2135 1022L2135 952L2134 951L2134 940L2133 939L2133 936L2131 932L2131 927L2130 926L2130 909L2126 904L2126 901L2125 900L2125 887L2122 883L2120 878L2120 865L2115 855L2115 836L2114 835L2114 832L2111 827L2111 823L2110 822L2110 800L2106 790L2106 774L2107 773L2107 771L2110 767L2110 760L2115 754L2115 747L2116 746L2116 744L2121 738L2125 738L2128 742L2131 743L2137 751L2139 752L2142 756L2157 770L2157 772L2162 776L2162 780L2166 785L2166 787L2167 788L2167 797L2171 802L2171 804L2172 805L2172 818L2176 824L2176 828L2177 829L2177 840L2178 841L2178 843L2181 846L2181 849L2182 850L2182 864L2186 872L2187 883L2186 884L2186 888L2182 893L2182 898L2177 903L2176 908L2172 912L2172 916L2171 918L2167 922L2167 942L2169 943L2173 948L2182 948L2185 945L2184 940L2186 938L2188 939L2192 944L2193 947L2197 951L2197 954L2202 959L2202 964L2206 968L2207 973L2214 979L2219 979L2221 978L2224 973L2224 969L2222 966L2221 960L2223 959L2225 962L2226 962L2235 955L2235 950L2236 948L2240 944L2240 924L2236 920L2235 915L2231 912L2230 908L2225 904L2225 899L2221 894L2221 891L2220 890L2220 874L2217 868L2217 864L2216 863L2216 853L2215 852L2215 785L2214 784L2214 779L2211 774L2211 770L2210 769L2210 761L2206 757L2206 755L2205 754L2205 748L2201 744L2200 737L2196 733L2195 728L2190 723L2190 719L2186 716L2185 713L2180 708L2180 707L2175 703L2175 700L2172 699L2170 696L2165 692L2165 690L2161 686L2159 682L2155 679L2154 674L2151 672L2151 670L2149 666L2145 663L2145 661L2139 656L2136 655L2132 651L2130 648L2130 644L2129 644L2121 635L2118 634L2115 630L2110 629L2108 626L2106 625L2101 625L2099 624L2096 620L2091 619L2085 613L2086 611L2090 613L2093 613L2095 611L2095 604L2090 599L2090 597L2086 595L2082 590L2076 589L2070 585L2062 585L2059 587L2057 587L2055 585L2055 554L2054 553L2054 551L2051 548L2050 543L2045 538L2045 537L2041 535L2037 530L2033 529Z"/>
    <path d="M2376 495L2371 500L2368 500L2365 504L2362 505L2361 508L2357 510L2357 513L2352 517L2352 521L2347 527L2347 537L2345 539L2340 536L2331 536L2326 539L2320 540L2316 545L2312 547L2312 550L2310 553L2310 556L2313 556L2316 558L2315 560L2309 560L2303 564L2299 564L2298 565L2282 565L2278 569L2272 570L2269 574L2263 577L2262 579L2262 586L2265 588L2269 587L2269 586L2272 583L2277 583L2283 578L2294 578L2297 580L2296 581L2291 581L2288 583L2288 586L2291 589L2292 592L2294 593L2301 593L2302 594L2305 594L2307 596L2309 596L2310 597L2315 597L2316 599L2315 600L2311 600L2305 605L2300 605L2296 609L2292 610L2289 614L2284 616L2280 620L2279 620L2272 628L2271 633L2267 637L2267 644L2266 645L2266 648L2262 654L2262 659L2261 660L2261 662L2257 665L2257 669L2252 674L2251 678L2247 682L2246 689L2242 694L2242 709L2241 710L2241 712L2240 714L2238 715L2236 725L2232 729L2232 734L2230 737L2227 739L2227 765L2231 768L2232 773L2235 775L2242 783L2244 783L2249 788L2255 788L2261 793L2271 793L2273 794L2279 801L2278 803L2278 807L2277 808L2277 847L2276 848L2276 879L2275 880L2275 940L2276 941L2276 950L2277 951L2277 970L2278 971L2278 976L2279 977L2279 981L2280 982L2280 988L2281 989L2281 1000L2282 1001L2282 1034L2283 1035L2283 1039L2286 1044L2286 1048L2287 1049L2287 1059L2291 1062L2292 1064L2292 1069L2299 1078L2301 1078L2305 1083L2323 1083L2326 1079L2331 1078L2332 1076L2336 1073L2336 1072L2340 1068L2341 1063L2345 1059L2345 1045L2346 1044L2346 1041L2350 1036L2350 1029L2355 1022L2355 995L2356 994L2356 990L2357 989L2357 987L2360 983L2360 979L2362 977L2363 977L2366 980L2366 983L2367 984L2367 991L2368 993L2371 995L2371 997L2372 998L2372 1011L2373 1012L2373 1018L2374 1019L2374 1022L2376 1026L2376 1034L2377 1035L2377 1063L2376 1064L2376 1073L2375 1074L2375 1080L2374 1081L2374 1100L2375 1101L2376 1118L2377 1119L2377 1146L2378 1147L2378 1150L2380 1155L2380 1161L2381 1162L2381 1183L2377 1193L2377 1202L2372 1210L2372 1215L2371 1217L2367 1220L2367 1225L2366 1226L2366 1228L2362 1234L2362 1264L2367 1270L2367 1273L2369 1274L2372 1278L2375 1279L2378 1283L2397 1283L2400 1279L2404 1278L2406 1275L2410 1272L2410 1269L2414 1263L2414 1254L2413 1253L2412 1245L2411 1244L2411 1222L2412 1221L2412 1216L2413 1215L2414 1205L2415 1204L2415 1180L2416 1179L2416 1176L2419 1173L2419 1171L2420 1170L2420 1159L2421 1158L2421 1156L2425 1151L2425 1141L2426 1140L2426 1138L2430 1133L2430 1116L2431 1115L2431 1106L2432 1105L2432 1099L2431 1098L2431 1081L2430 1080L2430 1015L2431 1014L2431 1009L2435 999L2435 986L2437 982L2440 979L2440 972L2441 971L2441 969L2445 964L2445 956L2446 955L2446 953L2450 949L2450 939L2451 938L2451 935L2453 933L2453 931L2454 930L2454 925L2455 924L2455 903L2456 902L2455 872L2454 871L2454 868L2451 863L2450 854L2446 849L2446 847L2445 846L2445 837L2441 832L2441 829L2440 828L2440 814L2437 808L2437 806L2436 805L2436 800L2435 799L2435 758L2436 757L2437 750L2439 748L2439 746L2440 745L2440 734L2441 733L2441 731L2444 728L2447 731L2447 736L2449 737L2452 741L2452 748L2453 749L2453 751L2456 754L2457 763L2462 769L2462 775L2466 778L2467 780L2467 785L2471 788L2472 790L2472 795L2477 800L2477 805L2481 808L2482 810L2482 814L2487 820L2487 825L2488 825L2491 828L2492 830L2492 835L2493 837L2496 839L2496 841L2497 842L2497 851L2501 859L2502 885L2503 887L2505 888L2516 888L2517 889L2519 889L2521 891L2521 893L2523 897L2524 897L2527 900L2527 902L2528 903L2535 903L2537 902L2540 898L2540 881L2535 874L2535 866L2534 865L2534 863L2530 857L2530 853L2528 852L2525 848L2525 843L2520 837L2520 832L2519 830L2516 828L2516 826L2515 825L2515 818L2511 813L2511 810L2510 809L2510 799L2506 793L2506 790L2505 789L2505 772L2501 764L2501 760L2500 759L2500 744L2497 740L2495 735L2495 726L2494 724L2492 723L2490 719L2490 713L2486 709L2486 707L2485 706L2485 697L2484 696L2483 689L2482 688L2482 676L2483 675L2483 655L2482 654L2481 644L2480 643L2480 630L2476 627L2475 621L2472 619L2470 616L2466 615L2462 610L2454 610L2453 609L2450 609L2442 605L2435 605L2433 604L2430 601L2430 600L2427 600L2425 598L2425 593L2424 592L2424 584L2425 583L2425 568L2426 567L2426 564L2430 558L2430 526L2426 522L2426 520L2425 519L2425 514L2420 509L2419 506L2416 505L2414 501L2410 499L2408 499L2404 495Z"/>
    <path d="M1677 505L1675 508L1668 511L1668 512L1663 516L1661 521L1657 524L1656 531L1654 533L1652 538L1652 553L1650 555L1643 555L1639 559L1635 560L1631 565L1628 566L1626 572L1622 577L1622 586L1623 588L1628 588L1630 586L1632 588L1632 591L1630 594L1627 595L1627 597L1624 600L1622 600L1622 602L1619 605L1617 605L1616 607L1611 611L1611 613L1607 616L1606 619L1603 621L1602 623L1602 629L1598 634L1598 640L1600 642L1603 642L1606 639L1608 639L1610 637L1611 631L1615 628L1615 625L1619 622L1622 618L1626 618L1630 614L1631 617L1629 619L1626 620L1622 624L1625 628L1640 628L1644 624L1651 623L1653 619L1655 619L1660 616L1661 618L1655 625L1652 625L1649 629L1644 630L1639 635L1635 635L1630 640L1627 640L1624 644L1621 645L1611 655L1607 660L1606 664L1603 666L1601 672L1597 675L1597 679L1595 682L1592 684L1592 689L1591 691L1587 694L1587 698L1585 702L1582 704L1581 712L1577 715L1576 723L1573 726L1572 729L1572 734L1567 739L1567 744L1565 748L1563 749L1562 751L1562 758L1560 762L1557 764L1557 773L1555 778L1553 780L1553 783L1552 784L1552 794L1556 799L1557 803L1563 808L1582 808L1584 807L1585 805L1589 803L1593 803L1596 799L1601 798L1606 793L1610 792L1610 791L1614 788L1617 788L1623 783L1625 783L1628 786L1627 789L1629 795L1627 800L1627 819L1626 820L1626 824L1622 832L1622 849L1621 850L1621 854L1617 867L1617 885L1618 886L1618 893L1619 894L1619 899L1621 905L1621 915L1622 916L1622 993L1623 994L1623 997L1626 1002L1626 1006L1627 1007L1627 1019L1632 1028L1632 1037L1636 1042L1637 1045L1637 1053L1641 1057L1642 1060L1642 1075L1643 1076L1643 1083L1642 1084L1642 1102L1641 1103L1641 1106L1637 1113L1637 1136L1641 1141L1642 1150L1647 1155L1647 1157L1650 1158L1652 1160L1652 1162L1655 1163L1660 1168L1681 1168L1690 1159L1691 1152L1695 1145L1695 1103L1694 1102L1694 1096L1692 1092L1691 1080L1690 1079L1690 1049L1691 1048L1691 1043L1692 1040L1694 1038L1694 1035L1695 1034L1695 1020L1697 1016L1700 1015L1702 1019L1702 1059L1703 1060L1703 1075L1704 1076L1704 1088L1705 1089L1705 1127L1704 1128L1704 1140L1703 1141L1703 1162L1704 1163L1704 1167L1706 1171L1706 1176L1707 1177L1707 1194L1711 1200L1711 1203L1712 1204L1712 1224L1714 1230L1715 1242L1714 1243L1714 1249L1712 1255L1712 1272L1710 1277L1707 1280L1707 1290L1706 1291L1706 1294L1702 1299L1702 1312L1701 1313L1701 1316L1698 1320L1697 1333L1698 1335L1700 1336L1702 1340L1702 1343L1704 1344L1707 1348L1711 1348L1720 1352L1731 1352L1734 1350L1740 1349L1741 1348L1748 1348L1752 1344L1755 1343L1756 1340L1760 1337L1760 1316L1759 1314L1756 1312L1755 1309L1755 1301L1751 1296L1750 1293L1750 1241L1751 1240L1751 1235L1753 1232L1754 1226L1755 1225L1755 1204L1760 1189L1760 1112L1756 1103L1756 1098L1755 1097L1755 1053L1756 1052L1756 1047L1760 1039L1760 1024L1761 1023L1761 1020L1765 1014L1765 999L1770 990L1770 976L1771 975L1771 971L1774 967L1774 964L1775 963L1775 942L1776 941L1776 934L1777 933L1777 927L1778 926L1778 916L1777 915L1777 910L1776 909L1776 904L1775 903L1775 887L1774 884L1771 881L1770 878L1770 869L1766 865L1765 862L1765 854L1761 849L1761 846L1760 845L1760 837L1755 828L1755 783L1760 774L1761 759L1765 753L1765 740L1769 737L1775 739L1776 742L1781 746L1782 750L1786 753L1787 757L1791 760L1792 765L1797 770L1797 775L1799 776L1802 780L1802 788L1804 793L1806 795L1807 806L1811 809L1812 813L1817 819L1819 819L1822 823L1826 824L1828 827L1833 829L1836 833L1840 833L1843 837L1848 839L1851 843L1855 844L1857 847L1860 848L1863 852L1872 859L1873 863L1876 865L1877 871L1881 875L1882 881L1886 885L1887 889L1890 890L1892 893L1898 895L1913 893L1914 891L1920 886L1921 880L1924 875L1924 870L1921 866L1920 858L1918 857L1912 850L1909 849L1905 845L1902 845L1897 840L1894 839L1891 835L1887 834L1885 830L1882 829L1880 825L1878 825L1875 822L1875 820L1871 818L1870 815L1866 812L1865 809L1860 804L1859 801L1856 799L1855 794L1851 791L1849 785L1848 785L1845 781L1845 778L1840 773L1840 769L1836 766L1834 759L1831 757L1830 752L1826 749L1824 742L1823 742L1820 738L1820 734L1818 733L1815 729L1815 725L1810 717L1810 711L1806 707L1805 704L1805 696L1802 693L1800 688L1800 680L1795 674L1795 667L1791 663L1790 658L1785 654L1784 651L1777 645L1773 645L1769 643L1766 640L1753 640L1752 639L1748 639L1745 636L1742 635L1735 635L1732 634L1730 630L1727 630L1725 627L1725 622L1724 619L1722 617L1722 609L1725 602L1725 595L1726 593L1730 590L1731 585L1734 582L1735 579L1735 563L1736 562L1736 558L1735 557L1735 535L1733 530L1731 528L1730 523L1725 519L1724 516L1721 515L1716 510L1709 509L1704 505Z"/>
    <path d="M1053 490L1046 490L1040 494L1034 495L1030 500L1027 501L1027 503L1023 506L1021 513L1017 516L1017 523L1016 524L1016 527L1013 532L1013 543L1017 549L1017 554L1016 555L1016 558L1013 562L1013 566L1016 570L1017 575L1021 578L1022 580L1022 584L1026 588L1027 591L1027 605L1028 606L1028 613L1027 616L1024 619L1016 620L1013 623L1009 625L1001 625L999 628L996 630L993 630L990 634L986 635L979 641L972 649L972 652L970 656L968 657L967 659L967 743L962 748L961 752L957 755L957 757L953 760L952 763L938 779L936 779L928 784L917 785L912 790L912 795L907 810L908 817L915 828L934 828L937 824L940 823L941 821L945 818L945 816L949 813L950 810L952 808L955 807L957 804L961 803L964 799L967 798L973 793L977 788L979 788L980 786L985 782L985 780L987 778L991 778L992 779L992 790L993 791L993 823L992 824L992 838L987 844L986 852L982 856L982 863L981 866L977 870L977 882L976 883L976 886L973 891L973 895L972 896L972 963L973 964L973 968L975 971L976 978L977 979L977 991L981 996L982 999L982 1008L986 1013L987 1016L987 1024L991 1029L992 1032L992 1041L997 1051L997 1083L996 1084L996 1087L994 1089L992 1094L992 1119L991 1120L992 1180L993 1181L993 1186L996 1193L996 1199L997 1200L997 1250L996 1251L996 1254L992 1259L992 1265L991 1268L987 1271L986 1286L987 1287L987 1291L997 1300L997 1304L1000 1306L1002 1310L1002 1314L1003 1314L1006 1318L1013 1318L1014 1319L1028 1318L1035 1312L1036 1308L1040 1305L1040 1272L1037 1268L1035 1263L1035 1250L1034 1249L1034 1246L1031 1241L1030 1222L1031 1221L1031 1211L1035 1200L1035 1185L1036 1184L1036 1181L1040 1176L1040 1162L1041 1161L1041 1157L1044 1150L1044 1145L1045 1144L1045 1126L1044 1125L1044 1118L1043 1117L1042 1109L1041 1108L1040 1083L1041 1082L1041 1076L1045 1069L1045 1016L1046 1015L1046 1009L1050 998L1050 964L1051 963L1051 955L1052 954L1052 951L1055 942L1055 935L1057 933L1059 933L1061 935L1062 938L1062 1035L1061 1036L1062 1056L1063 1056L1067 1060L1067 1062L1082 1076L1082 1078L1084 1078L1087 1081L1087 1083L1090 1084L1092 1087L1093 1093L1095 1096L1095 1102L1094 1103L1093 1111L1092 1112L1092 1120L1087 1126L1087 1154L1091 1157L1093 1163L1096 1164L1099 1167L1102 1167L1105 1164L1111 1163L1111 1162L1115 1159L1119 1154L1120 1154L1121 1150L1125 1146L1126 1139L1130 1133L1130 1101L1132 1095L1134 1094L1135 1092L1135 1081L1125 1069L1125 1055L1121 1049L1120 1041L1115 1037L1115 1035L1113 1035L1111 1033L1110 1030L1111 1019L1115 1015L1115 1007L1116 1004L1120 999L1120 991L1121 988L1125 983L1125 973L1128 966L1130 964L1130 951L1131 950L1131 946L1133 944L1135 938L1135 865L1132 861L1130 855L1120 843L1119 840L1115 837L1115 833L1111 824L1111 814L1115 809L1119 809L1124 813L1135 814L1141 818L1151 818L1152 819L1155 819L1161 823L1182 823L1185 819L1190 817L1190 815L1194 809L1194 800L1192 794L1191 778L1190 777L1190 761L1186 756L1185 753L1185 745L1181 741L1180 738L1180 732L1178 731L1175 727L1175 722L1170 712L1170 705L1167 702L1165 697L1165 684L1161 679L1160 676L1160 669L1156 666L1154 660L1151 658L1150 655L1146 653L1145 650L1143 650L1138 645L1133 644L1130 640L1123 639L1120 635L1117 635L1113 630L1110 629L1106 625L1096 625L1092 622L1091 619L1086 615L1085 610L1088 607L1090 608L1094 613L1098 615L1101 618L1106 619L1109 623L1114 624L1119 628L1127 628L1128 629L1131 629L1133 631L1138 631L1139 629L1136 626L1135 622L1131 619L1132 617L1134 617L1138 619L1140 622L1146 627L1147 631L1152 635L1152 640L1153 642L1155 643L1158 643L1160 641L1160 626L1156 623L1155 618L1150 614L1149 611L1141 605L1138 601L1137 601L1130 594L1129 590L1131 588L1137 591L1140 585L1140 582L1136 577L1135 570L1133 569L1131 566L1125 561L1125 560L1121 560L1114 555L1106 555L1105 554L1105 526L1101 520L1100 514L1097 512L1094 507L1086 500L1081 499L1077 495L1067 495L1066 494L1062 494Z"/>
    <path d="M771 510L757 510L752 514L742 516L740 519L736 520L730 526L729 526L722 534L721 537L717 540L716 545L712 549L712 557L715 562L715 564L712 568L712 582L713 584L714 584L715 586L721 591L723 596L723 599L725 601L725 613L722 620L721 627L719 629L711 630L709 632L707 632L704 634L694 635L689 640L687 640L687 642L684 645L681 645L678 649L673 651L673 652L669 655L665 660L663 660L662 663L657 667L657 669L652 674L652 682L647 695L647 706L646 709L642 713L642 718L640 722L637 724L637 728L632 734L632 738L631 740L627 744L627 749L622 755L621 763L617 767L617 795L621 798L622 803L626 806L627 809L632 813L635 814L638 818L643 819L646 823L650 823L655 827L662 835L662 837L666 838L671 843L675 844L677 849L677 926L681 935L681 939L682 940L682 956L687 965L687 973L689 974L692 978L692 984L697 994L697 1001L701 1005L702 1008L702 1019L706 1026L706 1029L707 1030L707 1079L706 1080L706 1084L704 1086L702 1091L702 1123L706 1130L706 1133L707 1134L707 1144L711 1149L712 1152L712 1163L716 1170L716 1173L717 1174L717 1193L718 1194L718 1198L720 1203L720 1223L717 1232L717 1246L716 1249L712 1254L711 1262L707 1266L706 1274L702 1278L702 1290L707 1295L708 1298L710 1298L714 1303L720 1305L721 1307L723 1308L754 1308L758 1304L763 1302L765 1300L765 1295L766 1294L765 1275L761 1271L760 1268L760 1260L757 1257L755 1252L755 1139L756 1138L756 1128L755 1127L755 1080L754 1079L754 1074L753 1073L753 1068L752 1067L752 1049L753 1048L754 1021L755 1020L755 1017L754 1016L754 979L753 978L753 958L752 957L752 948L753 947L753 939L755 935L757 937L757 952L761 961L761 965L762 966L762 979L764 984L766 986L766 989L767 990L767 999L769 1002L769 1007L762 1014L762 1017L759 1024L759 1035L761 1041L761 1056L760 1057L760 1062L759 1063L759 1076L762 1083L762 1089L770 1097L773 1098L777 1098L779 1097L781 1094L784 1093L785 1091L785 1086L790 1080L791 1076L793 1074L796 1073L801 1073L806 1068L809 1067L810 1064L815 1059L816 1051L819 1049L820 1047L820 1039L821 1038L821 1035L825 1029L825 1010L826 1009L826 1005L829 999L829 995L830 994L830 943L829 942L829 936L827 932L826 919L825 918L825 846L821 840L819 825L816 822L816 818L815 817L815 797L816 796L816 790L820 779L820 749L821 746L825 742L826 735L830 729L830 715L833 713L836 716L837 721L841 724L842 726L842 730L843 732L846 734L847 736L847 740L851 743L853 752L856 755L856 758L857 759L857 814L856 815L856 824L853 832L852 843L850 845L848 845L846 850L842 854L842 858L840 863L838 865L838 868L837 869L837 872L841 877L842 881L844 883L847 883L850 880L852 881L851 885L848 887L845 893L845 899L847 903L850 903L852 905L852 907L855 909L860 908L866 902L866 901L870 898L870 896L875 891L876 886L879 884L880 882L880 871L876 861L876 850L878 845L880 843L880 831L881 828L885 823L885 814L886 811L890 806L890 796L891 795L891 792L894 789L895 786L895 772L896 771L896 757L895 756L895 749L893 748L890 744L890 738L888 737L885 733L885 726L881 722L880 719L880 713L875 707L875 699L871 693L871 690L870 689L870 679L866 676L865 669L852 655L848 654L845 650L841 650L835 645L832 645L830 643L830 638L829 636L832 633L836 633L836 632L841 628L848 628L851 626L851 622L848 620L837 619L836 617L839 614L842 613L854 613L855 611L855 607L849 602L849 600L836 600L833 599L828 595L822 595L817 599L812 600L809 604L806 605L806 606L801 610L796 610L791 606L790 604L790 594L791 592L800 584L804 575L801 569L801 563L805 558L805 535L804 533L801 531L799 526L794 524L791 520L787 520L781 515L776 515L774 514Z"/>
    <path d="M2681 568L2675 568L2674 569L2671 569L2670 570L2663 570L2660 574L2656 575L2656 576L2653 579L2652 579L2651 582L2648 585L2647 585L2647 589L2646 591L2642 595L2642 607L2641 608L2641 620L2642 621L2642 632L2647 639L2647 643L2651 647L2652 649L2652 655L2651 656L2651 658L2650 659L2646 660L2637 670L2637 679L2635 681L2635 682L2633 684L2629 686L2626 686L2623 689L2621 689L2620 690L2611 690L2607 694L2605 695L2599 695L2594 699L2589 700L2588 702L2585 705L2584 705L2580 710L2578 710L2577 711L2577 713L2575 715L2573 715L2572 716L2572 718L2570 720L2568 720L2567 722L2564 725L2563 725L2559 730L2557 730L2555 734L2553 734L2548 739L2547 739L2546 741L2543 744L2542 744L2539 748L2538 748L2536 750L2536 752L2532 757L2532 760L2531 762L2528 765L2528 769L2527 770L2527 774L2528 775L2528 778L2530 781L2530 783L2532 787L2532 803L2533 804L2533 808L2536 812L2536 814L2537 815L2537 823L2541 827L2541 829L2542 830L2542 839L2544 843L2546 845L2546 848L2547 849L2547 876L2548 878L2549 878L2551 880L2551 882L2553 886L2558 889L2560 889L2564 893L2578 893L2582 889L2585 888L2586 886L2590 883L2590 880L2591 879L2591 877L2595 873L2595 864L2594 862L2589 857L2588 857L2586 855L2581 855L2579 853L2579 852L2575 849L2575 844L2572 842L2570 838L2570 824L2566 817L2566 814L2565 813L2565 789L2566 787L2569 784L2570 784L2570 780L2575 775L2577 771L2579 770L2586 763L2588 763L2592 759L2594 758L2601 758L2603 760L2603 765L2604 766L2604 773L2605 774L2605 783L2606 784L2606 789L2607 790L2607 799L2612 804L2612 809L2613 810L2613 812L2616 815L2616 818L2617 819L2617 851L2616 852L2616 855L2613 859L2613 862L2612 863L2612 870L2611 872L2607 876L2607 884L2606 885L2606 888L2603 892L2603 894L2602 895L2602 934L2606 939L2607 948L2611 951L2613 957L2614 957L2617 960L2617 963L2620 964L2622 968L2625 969L2627 973L2631 975L2632 978L2636 979L2637 981L2639 983L2640 983L2643 986L2643 987L2644 987L2657 1001L2657 1011L2656 1012L2656 1014L2652 1018L2652 1024L2651 1025L2651 1027L2647 1032L2647 1055L2646 1056L2646 1072L2645 1073L2645 1082L2644 1083L2644 1087L2643 1088L2643 1093L2642 1094L2642 1117L2641 1118L2641 1123L2640 1124L2640 1126L2639 1127L2639 1129L2637 1133L2637 1153L2636 1154L2636 1157L2632 1163L2632 1171L2631 1173L2627 1177L2626 1180L2620 1186L2619 1186L2613 1192L2611 1196L2607 1199L2607 1209L2611 1213L2612 1215L2612 1219L2617 1226L2617 1244L2616 1245L2616 1249L2614 1251L2613 1255L2612 1256L2612 1276L2617 1281L2618 1283L2621 1283L2629 1288L2643 1288L2648 1284L2652 1283L2655 1280L2655 1277L2660 1269L2660 1255L2659 1254L2659 1251L2656 1246L2656 1243L2655 1242L2655 1229L2656 1228L2668 1228L2670 1227L2673 1224L2677 1223L2680 1220L2681 1217L2685 1212L2685 1196L2681 1188L2681 1185L2680 1184L2680 1145L2681 1143L2685 1139L2685 1131L2686 1130L2686 1127L2690 1122L2690 1105L2691 1104L2691 1100L2694 1095L2694 1092L2695 1091L2695 1085L2696 1083L2700 1080L2700 1075L2701 1073L2705 1069L2705 1064L2706 1062L2710 1059L2710 1055L2712 1051L2715 1049L2715 1044L2716 1043L2716 1041L2720 1037L2720 1031L2722 1027L2725 1024L2725 1013L2726 1012L2726 1009L2728 1007L2730 1003L2730 985L2731 984L2731 981L2734 978L2734 976L2735 975L2735 967L2736 966L2736 964L2738 962L2739 962L2740 960L2740 955L2742 951L2744 950L2745 948L2745 941L2746 939L2750 935L2750 894L2746 889L2746 887L2745 886L2745 877L2742 873L2741 869L2740 868L2740 856L2737 851L2737 848L2736 847L2736 840L2737 839L2737 836L2740 831L2740 825L2742 823L2745 824L2746 825L2747 829L2751 832L2753 837L2757 840L2757 842L2761 844L2763 848L2766 848L2770 850L2772 850L2776 848L2779 848L2780 847L2780 844L2782 840L2784 838L2784 836L2785 835L2785 785L2784 784L2784 779L2782 776L2782 774L2781 773L2781 769L2780 768L2780 754L2776 749L2776 747L2775 746L2775 738L2774 737L2773 733L2771 731L2771 729L2770 728L2770 723L2769 723L2766 720L2765 718L2765 715L2761 712L2761 710L2759 708L2759 707L2758 707L2752 700L2749 699L2745 695L2742 695L2738 690L2733 689L2730 685L2727 685L2725 683L2725 656L2721 652L2721 650L2720 649L2720 645L2718 644L2716 641L2716 634L2720 627L2720 603L2716 598L2716 596L2715 595L2715 591L2711 587L2710 584L2705 579L2704 579L2701 575L2698 575L2696 574L2693 570L2686 570L2685 569L2682 569Z"/>
    <path d="M493 568L487 568L486 569L483 569L482 570L475 570L471 575L469 575L467 577L467 578L462 582L461 586L457 589L457 594L456 595L456 597L453 601L453 604L452 605L452 623L453 624L453 627L456 631L456 633L457 634L457 639L461 642L462 644L462 649L465 652L465 654L463 656L463 657L460 660L458 660L457 662L452 667L452 670L451 671L451 673L447 678L447 683L445 685L441 685L435 689L432 689L431 690L423 690L419 694L417 695L411 695L406 699L404 700L401 700L401 701L398 704L397 704L376 725L375 725L374 727L370 731L369 731L365 735L364 735L362 737L362 738L360 740L359 740L357 742L357 743L355 745L354 745L349 751L347 752L347 754L342 759L342 794L344 797L344 799L346 803L346 810L347 811L347 815L351 820L351 822L352 823L352 830L353 831L353 833L356 836L356 838L357 839L357 858L358 859L358 865L359 866L359 868L361 872L361 875L362 876L362 882L364 883L368 888L371 888L376 893L391 893L394 889L400 886L401 882L403 880L404 880L405 878L405 860L397 855L394 855L392 854L390 850L386 847L386 845L385 844L385 838L384 837L383 833L381 831L381 828L380 827L380 810L377 804L377 795L380 790L380 784L381 782L385 778L385 776L390 772L390 770L392 768L395 767L395 766L398 763L401 763L402 761L406 758L414 758L416 760L416 762L417 763L417 793L421 797L421 799L422 800L422 805L423 807L424 807L426 809L426 811L427 812L427 820L430 825L430 829L431 830L431 838L430 839L430 843L427 848L427 859L426 860L426 863L422 868L422 876L421 877L421 879L417 884L417 896L416 897L416 901L414 905L414 910L413 911L413 921L414 922L414 925L415 926L415 928L416 929L416 933L417 934L417 943L421 946L423 954L424 954L426 956L427 959L432 964L432 965L435 968L436 968L437 970L440 973L441 973L445 978L446 978L451 983L452 983L457 989L459 989L461 991L462 994L463 994L466 997L467 999L467 1003L468 1004L468 1008L467 1009L467 1017L462 1024L462 1033L461 1034L461 1037L457 1043L457 1094L456 1095L456 1100L455 1101L455 1103L453 1107L453 1114L452 1115L452 1138L451 1139L451 1143L449 1145L447 1149L447 1163L445 1167L442 1170L442 1175L441 1177L439 1179L437 1179L437 1182L434 1185L432 1185L431 1188L427 1190L426 1192L422 1195L422 1199L421 1200L421 1208L422 1209L422 1215L423 1217L424 1217L426 1219L427 1221L427 1225L431 1230L431 1238L429 1242L427 1244L427 1254L426 1255L426 1257L423 1260L423 1262L422 1263L422 1272L430 1283L433 1283L434 1284L436 1284L441 1288L455 1288L460 1284L464 1283L466 1279L470 1276L470 1241L466 1235L465 1230L467 1228L480 1228L485 1224L489 1223L490 1221L495 1216L495 1183L494 1182L494 1179L492 1177L492 1175L491 1174L491 1170L490 1169L490 1154L491 1153L491 1150L495 1144L495 1138L497 1134L499 1133L500 1131L500 1116L501 1115L501 1111L504 1107L504 1104L505 1103L505 1093L506 1092L506 1090L510 1085L510 1080L511 1078L515 1074L515 1069L516 1067L519 1064L520 1064L520 1059L521 1057L525 1053L525 1049L526 1048L526 1046L530 1043L530 1039L531 1038L531 1035L533 1033L535 1029L535 1021L537 1017L540 1014L540 1000L541 999L541 995L542 994L542 992L544 989L544 986L545 985L545 974L546 973L546 971L550 967L550 960L551 958L555 954L555 948L560 941L560 934L561 933L561 929L564 924L564 918L565 917L565 915L564 914L564 906L561 901L561 898L560 897L560 885L556 881L556 879L555 878L555 869L553 865L551 863L551 859L550 858L550 830L551 829L551 826L553 824L556 824L562 830L562 833L566 836L567 839L574 846L575 848L578 848L579 849L589 849L592 846L592 845L594 844L595 842L595 830L596 829L596 822L597 821L597 805L596 804L596 794L595 793L595 768L594 767L594 764L591 760L591 757L590 756L590 744L586 740L586 738L585 737L585 730L581 726L580 724L580 719L576 716L575 712L571 709L570 706L568 705L564 700L562 700L558 696L553 694L551 692L551 690L547 690L543 686L539 684L535 679L536 675L540 670L540 665L536 660L534 650L531 647L531 645L530 644L530 625L531 624L531 617L532 616L532 613L531 612L531 605L530 604L530 595L529 595L526 592L524 586L523 586L520 583L520 582L514 577L513 575L509 574L505 570L499 570L498 569L494 569Z"/>
    <path d="M227 582L223 582L220 584L217 584L213 586L212 590L210 593L210 595L212 599L211 600L211 602L207 604L206 609L203 612L203 614L202 615L202 617L203 618L203 627L198 634L196 635L185 635L181 631L175 631L173 633L174 636L176 637L178 642L180 643L186 643L190 646L190 648L189 649L180 651L179 655L182 658L186 658L190 663L206 663L208 661L210 661L212 664L212 667L210 670L207 670L207 671L204 674L201 674L200 675L174 675L164 680L158 680L154 684L152 685L149 685L145 689L141 690L138 694L134 696L130 700L126 700L126 701L123 704L121 705L118 705L116 706L114 709L109 710L107 711L105 714L101 715L100 717L97 719L96 721L86 730L83 731L83 732L80 735L77 735L77 736L74 739L71 740L71 742L68 744L63 750L62 750L62 753L61 755L57 758L57 763L53 768L53 770L52 771L52 776L51 778L47 781L47 788L45 792L42 795L42 803L40 807L37 809L37 817L32 824L32 829L30 833L27 835L27 844L26 845L26 847L23 849L22 851L22 854L17 858L16 860L16 863L13 865L12 869L7 874L6 877L2 881L2 888L5 892L7 893L15 893L17 890L22 888L26 883L29 882L29 881L33 877L34 877L36 874L38 874L41 878L43 878L44 879L49 879L52 872L54 870L55 859L56 857L60 854L60 838L59 837L60 835L60 826L65 820L65 817L66 815L70 812L70 809L75 804L75 801L80 796L80 794L85 789L85 786L89 782L91 777L95 774L95 770L98 768L107 758L110 758L116 753L120 753L123 749L125 749L126 748L131 748L134 744L136 743L140 743L146 738L153 738L156 740L157 744L160 746L162 750L162 762L166 770L166 775L167 776L167 815L166 816L166 819L162 823L162 828L161 830L157 833L156 838L152 841L151 845L147 848L146 853L142 856L141 862L137 865L137 870L136 871L136 874L133 879L133 884L132 885L132 898L133 899L133 906L137 916L137 925L142 931L142 937L146 941L146 943L147 944L147 948L151 951L152 956L157 962L157 965L161 968L162 970L162 973L166 977L167 979L167 983L172 989L172 994L170 996L168 996L167 995L163 995L160 992L160 989L156 983L156 980L155 979L155 971L152 969L149 965L140 965L138 966L138 967L133 972L131 977L127 980L127 983L124 985L120 990L117 990L114 994L110 995L107 998L107 999L104 1002L103 1002L102 1004L102 1010L101 1011L101 1014L99 1018L99 1024L101 1026L102 1032L103 1033L121 1033L121 1032L126 1028L133 1028L137 1025L140 1024L142 1026L145 1027L152 1034L152 1035L157 1040L157 1042L161 1045L162 1049L166 1055L165 1064L164 1065L164 1075L165 1076L166 1084L167 1085L167 1099L171 1105L171 1108L172 1109L172 1119L177 1129L177 1140L180 1144L182 1149L182 1164L183 1165L183 1168L185 1171L185 1174L186 1175L186 1189L185 1190L185 1195L184 1196L184 1202L185 1203L186 1209L187 1210L187 1218L191 1221L191 1223L192 1224L192 1229L193 1231L195 1233L205 1238L214 1238L219 1236L221 1234L229 1233L232 1229L235 1228L236 1226L239 1223L240 1223L240 1219L241 1218L241 1209L240 1208L240 1206L236 1204L232 1200L227 1200L225 1199L219 1193L218 1193L215 1189L215 1133L216 1132L217 1121L219 1117L219 1088L217 1084L216 1076L215 1075L215 1055L214 1054L214 1044L215 1043L215 1035L216 1033L220 1030L220 1027L221 1025L224 1023L224 1021L226 1017L230 1014L231 1010L235 1006L236 1001L240 998L240 994L241 992L245 989L245 984L246 983L246 981L250 978L250 973L251 972L251 970L255 966L255 959L260 953L260 945L262 940L265 936L265 912L266 911L266 893L267 892L267 869L268 868L268 859L269 858L269 851L270 850L270 829L271 828L271 824L275 818L275 809L276 808L276 805L280 801L280 794L281 793L281 790L285 786L285 779L288 776L289 776L292 779L292 789L296 795L297 803L302 809L302 819L306 824L306 827L307 828L307 835L312 839L313 842L316 843L321 848L333 848L335 846L335 844L339 840L340 840L340 835L342 830L344 828L344 825L345 824L345 812L341 803L340 796L336 792L335 790L335 787L331 782L330 776L326 772L326 770L325 769L325 762L322 756L322 749L325 743L325 736L321 730L316 725L315 723L315 716L311 712L310 707L306 705L303 700L298 699L295 696L288 694L285 690L277 689L275 686L273 685L268 685L266 683L266 682L270 678L270 674L271 673L271 671L275 666L275 654L276 653L275 614L271 610L270 608L270 604L265 599L265 597L262 595L258 590L254 589L250 585L234 585L233 584L230 584Z"/>
    <path d="M687 727L690 730L690 731L692 734L692 739L693 740L693 741L696 744L696 745L697 746L697 749L701 753L701 754L702 755L702 799L703 800L703 803L702 804L702 808L700 810L697 810L694 807L694 806L693 805L692 805L687 800L684 800L683 801L682 801L679 804L674 804L671 801L671 800L665 794L665 793L660 788L659 785L658 785L655 782L655 776L656 775L656 774L657 773L658 773L659 772L660 769L661 768L662 768L665 765L665 764L670 759L671 756L675 753L675 750L676 749L676 748L680 744L680 740L681 739L681 738L685 735L685 729Z"/>
    <path d="M1367 814L1369 816L1369 818L1370 819L1370 828L1369 829L1369 847L1368 848L1368 853L1369 854L1369 866L1370 867L1370 875L1371 876L1371 892L1368 895L1367 895L1367 898L1365 900L1363 900L1362 901L1362 902L1358 906L1357 906L1357 907L1354 910L1353 909L1353 908L1355 905L1355 896L1356 895L1356 893L1359 890L1359 889L1360 888L1360 878L1361 877L1361 873L1364 868L1364 865L1365 864L1365 852L1366 851L1366 847L1365 846L1365 822L1364 821L1364 820L1365 819L1364 818L1364 815L1365 814Z"/>
    <path d="M2282 718L2287 718L2288 719L2289 719L2291 721L2291 724L2292 725L2292 749L2290 752L2289 752L2285 749L2285 748L2280 743L2280 740L2277 739L2276 738L2276 736L2275 735L2275 725Z"/>
    <path d="M1958 764L1960 766L1960 767L1962 770L1962 783L1955 790L1953 790L1948 795L1947 795L1944 793L1944 791L1945 790L1945 783L1946 782L1946 779L1947 778L1948 778L1950 775L1950 770L1951 769L1951 768L1955 764Z"/>
    <path d="M2039 966L2040 966L2042 969L2042 979L2046 986L2046 990L2047 991L2047 992L2046 993L2046 995L2047 996L2047 997L2046 998L2046 1000L2045 1001L2043 1001L2040 998L2039 995L2036 992L2036 990L2035 989L2035 973L2036 972L2036 970L2037 969L2037 968Z"/>
    <path d="M1618 730L1619 731L1618 732L1618 735L1619 736L1619 741L1617 744L1617 748L1615 750L1611 750L1608 753L1606 753L1605 752L1605 744L1606 743L1606 741L1610 738L1610 736L1613 733L1614 733L1616 730Z"/>
  </g>
</svg>
