<svg id="Layer_1" data-name="Layer 1" xmlns="http://www.w3.org/2000/svg" xmlns:xlink="http://www.w3.org/1999/xlink" viewBox="0 0 1900 350"><style type="text/css"><![CDATA[.neighborhood-illustration_cls1__Qioyd{opacity:.7}
.neighborhood-illustration_cls10__5n_hn,.neighborhood-illustration_cls11__mCpCW,.neighborhood-illustration_cls12__gq6Td,.neighborhood-illustration_cls13__uFpp8,.neighborhood-illustration_cls14__HZjNj,.neighborhood-illustration_cls15__9QAUS,.neighborhood-illustration_cls16__iwgU0,.neighborhood-illustration_cls17__VuS5O,.neighborhood-illustration_cls18__RtiBe,.neighborhood-illustration_cls19__d_1gh,.neighborhood-illustration_cls1__Qioyd,.neighborhood-illustration_cls20__UOx9v,.neighborhood-illustration_cls21__Yg0me,.neighborhood-illustration_cls22__yKCAz,.neighborhood-illustration_cls23__1LPog,.neighborhood-illustration_cls24__5iIMk,.neighborhood-illustration_cls25__rNtbb,.neighborhood-illustration_cls26__hvZCi,.neighborhood-illustration_cls27__jgv4s,.neighborhood-illustration_cls28__wN8I0,.neighborhood-illustration_cls2__z8lJp,.neighborhood-illustration_cls3__c_OYR,.neighborhood-illustration_cls4__3Hmd9,.neighborhood-illustration_cls5__ICbzg,.neighborhood-illustration_cls6__8zwQq,.neighborhood-illustration_cls7__F8j_k,.neighborhood-illustration_cls8__6ahQZ,.neighborhood-illustration_cls9__egUHV{stroke-width:0px}
.neighborhood-illustration_cls16__iwgU0,.neighborhood-illustration_cls1__Qioyd{fill:#c1c8c7}
.neighborhood-illustration_cls2__z8lJp{fill:url(#linear-gradient)}
.neighborhood-illustration_cls29__pxFzU,.neighborhood-illustration_cls4__3Hmd9{opacity:.6}
.neighborhood-illustration_cls3__c_OYR{fill:url(#linear-gradient-2)}
.neighborhood-illustration_cls23__1LPog,.neighborhood-illustration_cls4__3Hmd9{fill:#fff}
.neighborhood-illustration_cls5__ICbzg{fill:#f89f55}
.neighborhood-illustration_cls6__8zwQq{fill:#f8ab8d}
.neighborhood-illustration_cls7__F8j_k{fill:#f2f3f4}
.neighborhood-illustration_cls8__6ahQZ{fill:#f9a71c}
.neighborhood-illustration_cls9__egUHV{fill:#4b71b6}
.neighborhood-illustration_cls10__5n_hn{fill:#4c4e51}
.neighborhood-illustration_cls11__mCpCW{fill:#389e47}
.neighborhood-illustration_cls12__gq6Td{fill:#222e63}
.neighborhood-illustration_cls13__uFpp8{fill:#204a9e}
.neighborhood-illustration_cls14__HZjNj{fill:#a6bde2}
.neighborhood-illustration_cls15__9QAUS{fill:#b53a25}
.neighborhood-illustration_cls17__VuS5O{fill:#32763a}
.neighborhood-illustration_cls18__RtiBe{fill:#bb5c27}
.neighborhood-illustration_cls19__d_1gh{fill:#7e2818}
.neighborhood-illustration_cls20__UOx9v{fill:#806531}
.neighborhood-illustration_cls21__Yg0me{fill:#82411d}
.neighborhood-illustration_cls22__yKCAz{fill:#f08021}
.neighborhood-illustration_cls24__5iIMk{fill:#ec5b24}
.neighborhood-illustration_cls25__rNtbb{fill:#fcb744}
.neighborhood-illustration_cls26__hvZCi{fill:#ffd69a}
.neighborhood-illustration_cls27__jgv4s{fill:#fbbc88}
.neighborhood-illustration_cls28__wN8I0{fill:#f48258}]]></style><defs><linearGradient id="linear-gradient" x1="1780.09" y1="298.79" x2="1499.61" y2="231.65" gradientUnits="userSpaceOnUse"><stop offset=".1" stop-color="#41ade2"></stop><stop offset=".76" stop-color="#54c4c3"></stop></linearGradient><linearGradient id="linear-gradient-2" x1="247.32" y1="300.4" x2=".18" y2="241.24" xlink:href="#linear-gradient"></linearGradient></defs><g id="Neighborhood_EXT" data-name="Neighborhood EXT"><path class="neighborhood-illustration_cls7__F8j_k" d="M1925,269.71c-4.96-1.49-9.71-2.36-14.27-2.36-33.55,0-54.18,36.33-150.74,36.33-64.31,0-118.77-31.51-164.91-31.51-56.88,2.32-95.1,35.04-171.36,41.48h-24.87s-2.61,0-6.37.4l-67.53-1.06v2.28c-49.46,0-106.32-.02-157.9-.02-64.01,0-108.57-47.9-142.56-47.9s-54.18,36.33-150.74,36.33c-64.31,0-118.77-31.51-164.91-31.51-55.27,2.25-92.93,33.2-164.97,40.87-72.04-7.66-109.7-38.62-164.97-40.87-46.14,0-100.61,31.51-164.91,31.51-96.56,0-117.18-36.33-150.74-36.33-17.77,0-38.43,13.09-63.25,25.59v56.2l543.87-.12,781.08.17h0s69.41,1.61,72.83.01c0,0,2.17,0,5.58-.2h20.35s501.28.12,501.28.12v-79.42Z"></path><path class="neighborhood-illustration_cls1__Qioyd" d="M1207.75,323.05c0-3.44,46.55-6.23,103.98-6.23,18.98,0,72.45.46,52.08,2.5-43.17,4.33,51.9,1.42,51.9,3.73,0,3.44-46.55,6.23-103.98,6.23-57.42,0-103.98-2.79-103.98-6.23"></path><path class="neighborhood-illustration_cls1__Qioyd" d="M1654.11,317.25c0-3.44,48.28-6.23,107.83-6.23,19.68,0,75.14.46,54.01,2.5-44.78,4.33,53.82,1.42,53.82,3.73,0,3.44-48.28,6.23-107.83,6.23-59.56,0-107.83-2.79-107.83-6.23"></path><path class="neighborhood-illustration_cls1__Qioyd" d="M593.27,322.57c0-3.44,54.96-6.23,122.77-6.23,22.41,0,85.55.46,61.49,2.5-50.98,4.33,61.27,1.42,61.27,3.73,0,3.44-54.96,6.23-122.77,6.23s-122.77-2.79-122.77-6.23"></path><path class="neighborhood-illustration_cls1__Qioyd" d="M121.75,316.49c0-3.44,47.82-6.23,106.8-6.23,19.49,0,74.42.46,53.5,2.5-44.35,4.33,53.31,1.42,53.31,3.73,0,3.44-47.82,6.23-106.8,6.23-58.99,0-106.8-2.79-106.8-6.23"></path><g><path class="neighborhood-illustration_cls1__Qioyd" d="M1093.03,328.02c0-3.32,19.59-6.02,43.76-6.02,7.99,0,30.5.44,21.92,2.42-18.17,4.18,21.84,1.38,21.84,3.6,0,3.32-19.59,6.02-43.76,6.02-24.17,0-43.76-2.69-43.76-6.02"></path><g><path class="neighborhood-illustration_cls11__mCpCW" d="M1169.97,264c-.13,5.52,5.14,6.07,2.89,15.08-.31,1.24-.43,2.51.33,3.52,6.26,8.35-.17,13.03,1.13,15.5,2.01,3.83,8.24,17.41-3.93,18.49-12.17,1.08-23.88-1.06-19.63-9.01,5.45-10.18-3.9-14.37,1.19-19.88,8.16-8.84-.43-15.58,6.43-20.64,6.86-5.07,3.86-9.82,6.21-9.54,2.35.28,5.43,4,5.37,6.49Z"></path><path class="neighborhood-illustration_cls17__VuS5O" d="M1174.32,298.1c-1.29-2.47,5.14-7.14-1.13-15.5-.76-1.02-.64-2.29-.33-3.52,2.25-9.01-3.02-9.56-2.89-15.08.06-2.47-2.99-6.16-5.33-6.48v59.33c1.87,0,3.81-.09,5.76-.26,12.17-1.08,5.94-14.66,3.93-18.49Z"></path><polygon class="neighborhood-illustration_cls10__5n_hn" points="1165.21 328.68 1164.06 328.68 1164.63 274.31 1165.21 328.68"></polygon></g><g><path class="neighborhood-illustration_cls11__mCpCW" d="M1110.66,264c-.13,5.52,5.14,6.07,2.89,15.08-.31,1.24-.43,2.51.33,3.52,6.26,8.35-.17,13.03,1.13,15.5,2.01,3.83,8.24,17.41-3.93,18.49-12.17,1.08-23.88-1.06-19.63-9.01,5.45-10.18-3.9-14.37,1.19-19.88,8.16-8.84-.43-15.58,6.43-20.64,6.86-5.07,3.86-9.82,6.21-9.54,2.35.28,5.43,4,5.37,6.49Z"></path><path class="neighborhood-illustration_cls17__VuS5O" d="M1115.01,298.1c-1.29-2.47,5.14-7.14-1.13-15.5-.76-1.02-.64-2.29-.33-3.52,2.25-9.01-3.02-9.56-2.89-15.08.06-2.47-2.99-6.16-5.33-6.48v59.33c1.87,0,3.81-.09,5.76-.26,12.17-1.08,5.94-14.66,3.93-18.49Z"></path><polygon class="neighborhood-illustration_cls10__5n_hn" points="1105.9 328.68 1104.75 328.68 1105.32 274.31 1105.9 328.68"></polygon></g><g><path class="neighborhood-illustration_cls11__mCpCW" d="M1142.49,246.5c-.16,7.21,6.72,7.93,3.78,19.71-.4,1.61-.56,3.27.44,4.61,8.19,10.92-.22,17.03,1.47,20.25,2.62,5.01,10.77,22.76-5.13,24.17-15.9,1.41-31.21-1.39-25.65-11.77,7.12-13.31-5.09-18.79,1.55-25.99,10.66-11.55-.56-20.36,8.4-26.98,8.96-6.62,5.05-12.84,8.11-12.47,3.07.36,7.1,5.23,7.02,8.48Z"></path><path class="neighborhood-illustration_cls17__VuS5O" d="M1148.18,291.07c-1.69-3.22,6.71-9.33-1.47-20.25-1-1.33-.84-2.99-.44-4.61,2.94-11.77-3.95-12.5-3.78-19.71.07-3.23-3.91-8.06-6.97-8.47v77.54c2.44,0,4.97-.11,7.53-.34,15.9-1.41,7.76-19.17,5.13-24.17Z"></path><polygon class="neighborhood-illustration_cls10__5n_hn" points="1136.28 331.03 1134.77 331.03 1135.52 259.97 1136.28 331.03"></polygon></g></g><g><path class="neighborhood-illustration_cls11__mCpCW" d="M542.47,219.76c-.25,11.1,10.34,12.21,5.82,30.33-.62,2.48-.86,5.04.67,7.09,12.6,16.81-.33,26.21,2.27,31.17,4.04,7.7,16.58,35.03-7.9,37.2-24.48,2.17-48.03-2.14-39.48-18.12,10.95-20.48-7.84-28.91,2.39-39.99,16.41-17.78-.86-31.33,12.93-41.52s7.77-19.76,12.49-19.2c4.72.56,10.92,8.05,10.81,13.05Z"></path><path class="neighborhood-illustration_cls17__VuS5O" d="M551.23,288.35c-2.6-4.96,10.33-14.36-2.27-31.17-1.54-2.05-1.29-4.6-.67-7.09,4.52-18.12-6.07-19.23-5.82-30.33.11-4.96-6.02-12.4-10.73-13.03v119.34c3.75,0,7.66-.17,11.58-.52,24.48-2.17,11.94-29.5,7.9-37.2Z"></path><polygon class="neighborhood-illustration_cls10__5n_hn" points="532.9 349.85 530.58 349.85 531.74 240.48 532.9 349.85"></polygon></g><g><path class="neighborhood-illustration_cls1__Qioyd" d="M1432.65,326.63c0-1.56,7.35-2.83,16.41-2.83,3,0,11.44.21,8.22,1.14-6.81,1.97,8.19.65,8.19,1.7,0,1.56-7.35,2.83-16.41,2.83-9.06,0-16.41-1.27-16.41-2.83"></path><g><path class="neighborhood-illustration_cls11__mCpCW" d="M1454.66,262.41c-.13,5.48,5.11,6.03,2.87,14.97-.31,1.23-.43,2.49.33,3.5,6.22,8.3-.16,12.94,1.12,15.39,1.99,3.8,8.18,17.29-3.9,18.37-12.08,1.07-23.71-1.06-19.49-8.95,5.41-10.11-3.87-14.27,1.18-19.75,8.1-8.78-.42-15.47,6.39-20.5s3.83-9.75,6.17-9.48,5.39,3.98,5.34,6.44Z"></path><path class="neighborhood-illustration_cls17__VuS5O" d="M1458.98,296.27c-1.28-2.45,5.1-7.09-1.12-15.39-.76-1.01-.64-2.27-.33-3.5,2.23-8.95-3-9.49-2.87-14.97.06-2.45-2.97-6.12-5.3-6.43v58.92c1.85,0,3.78-.09,5.72-.26,12.08-1.07,5.9-14.56,3.9-18.37Z"></path><polygon class="neighborhood-illustration_cls10__5n_hn" points="1449.93 326.63 1448.79 326.63 1449.36 272.64 1449.93 326.63"></polygon></g></g><g><path class="neighborhood-illustration_cls1__Qioyd" d="M64.22,302.62c0-1.56,7.35-2.83,16.41-2.83,3,0,11.44.21,8.22,1.14-6.81,1.97,8.19.65,8.19,1.7,0,1.56-7.35,2.83-16.41,2.83-9.06,0-16.41-1.27-16.41-2.83"></path><g><path class="neighborhood-illustration_cls11__mCpCW" d="M86.23,238.4c-.13,5.48,5.11,6.03,2.87,14.97-.31,1.23-.43,2.49.33,3.5,6.22,8.3-.16,12.94,1.12,15.39,1.99,3.8,8.18,17.29-3.9,18.37-12.08,1.07-23.71-1.06-19.49-8.95,5.41-10.11-3.87-14.27,1.18-19.75,8.1-8.78-.42-15.47,6.39-20.5s3.83-9.75,6.17-9.48,5.39,3.98,5.34,6.44Z"></path><path class="neighborhood-illustration_cls17__VuS5O" d="M90.55,272.26c-1.28-2.45,5.1-7.09-1.12-15.39-.76-1.01-.64-2.27-.33-3.5,2.23-8.95-3-9.49-2.87-14.97.06-2.45-2.97-6.12-5.3-6.43v58.92c1.85,0,3.78-.09,5.72-.26,12.08-1.07,5.9-14.56,3.9-18.37Z"></path><polygon class="neighborhood-illustration_cls10__5n_hn" points="81.51 302.62 80.36 302.62 80.93 248.63 81.51 302.62"></polygon></g></g><g><path class="neighborhood-illustration_cls10__5n_hn" d="M682.53,315.31h139.71c2.61,0,4.72,2.12,4.72,4.72v2.96h-149.16v-2.96c0-2.61,2.12-4.72,4.72-4.72Z"></path><path class="neighborhood-illustration_cls14__HZjNj" d="M816.52,213.54l-.03-18.51c-.18-1.03-.1-3.14-.1-5.27h-65.09l-.1.88h-.88v124.62h66.2v-101.72Z"></path><polygon class="neighborhood-illustration_cls9__egUHV" points="785.88 189.76 754.15 189.76 754.06 190.64 753.19 190.64 753.19 315.26 785.88 315.26 785.88 189.76"></polygon><path class="neighborhood-illustration_cls12__gq6Td" d="M635.75,190.71c-2.86,0-5.28,2.02-5.64,4.72l1.12,119.91h121.16l-1.43-124.62h-115.21Z"></path><path class="neighborhood-illustration_cls14__HZjNj" d="M816.65,285.24v-99.35h-.56c-.03-.59-.25-1.15-.62-1.58l-30.59-35.16c-.92-1.05-2.46-1.05-3.38,0l-30.59,35.16c-.4.46-.63,1.08-.63,1.72l.13,45.74-.62,63.12,38.79-37.38,1,.56,27.07,27.18Z"></path><path class="neighborhood-illustration_cls9__egUHV" d="M785.92,262.67l-1.86-113.51c-.68,0,.5-.54,0,0l-33.06,35.16c-.44.46-.68,1.08-.68,1.72l.14,45.74-.67,63.12,36.13-32.22Z"></path><path class="neighborhood-illustration_cls13__uFpp8" d="M817.92,283.93l-30.45-30.45c-.44-.44-1.01-.65-1.58-.64-.57,0-1.15.21-1.58.64l-37.37,37.37c-.86.86-.86,2.25,0,3.1l.29.29c.86.86,2.25.86,3.1,0l35.57-35.57,28.64,28.64c.86.86,2.25.86,3.1,0l.29-.29c.86-.86.86-2.25,0-3.1Z"></path><path class="neighborhood-illustration_cls10__5n_hn" d="M783.44,280.99h5.34c2.35,0,4.26,1.91,4.26,4.26v30.05h-13.86v-30.05c0-2.35,1.91-4.26,4.26-4.26Z"></path><path class="neighborhood-illustration_cls14__HZjNj" d="M757.76,322.52h-131.55v-66.95c0-1.18.45-2.31,1.26-3.17l61.14-65.02c1.83-1.95,4.92-1.95,6.75,0l61.14,65.02c.81.86,1.26,1.99,1.26,3.17v66.95Z"></path><path class="neighborhood-illustration_cls9__egUHV" d="M692.74,185.98c-1.47-.24-3.03.23-4.13,1.4l-61.14,65.02c-.81.86-1.26,1.99-1.26,3.17v66.95h66.53v-136.55Z"></path><path class="neighborhood-illustration_cls4__3Hmd9" d="M651.94,274.06h80.09c7.81,0,14.14,6.34,14.14,14.14v34.32h-108.38v-34.32c0-7.81,6.34-14.14,14.14-14.14Z"></path><rect class="neighborhood-illustration_cls10__5n_hn" x="651.38" y="283.38" width="23.43" height="4.26" rx="1.31" ry="1.31"></rect><rect class="neighborhood-illustration_cls10__5n_hn" x="680.27" y="283.38" width="23.43" height="4.26" rx="1.31" ry="1.31"></rect><rect class="neighborhood-illustration_cls10__5n_hn" x="709.17" y="283.38" width="23.43" height="4.26" rx="1.31" ry="1.31"></rect><path class="neighborhood-illustration_cls10__5n_hn" d="M617.92,315.31h139.71c2.61,0,4.72,2.12,4.72,4.72v2.96h-149.16v-2.96c0-2.61,2.12-4.72,4.72-4.72Z"></path><rect class="neighborhood-illustration_cls10__5n_hn" x="701.1" y="237.14" width="28.61" height="6.48" rx="1.99" ry="1.99" transform="translate(475.02 955.8) rotate(-90)"></rect><rect class="neighborhood-illustration_cls10__5n_hn" x="654.37" y="237.65" width="28.61" height="6.48" rx="1.99" ry="1.99" transform="translate(427.79 909.57) rotate(-90)"></rect><g><path class="neighborhood-illustration_cls4__3Hmd9" d="M692.74,241.27h17.19v-10.48c0-2.33-1.89-4.21-4.21-4.21h-12.99v14.69Z"></path><path class="neighborhood-illustration_cls4__3Hmd9" d="M674.02,242.76v-1.48h17.38v-14.7h-13.25c-2.33,0-4.21,1.89-4.21,4.21v20.19c0,2.33,1.89,4.21,4.21,4.21h13.25v-12.44h-17.38Z"></path><path class="neighborhood-illustration_cls4__3Hmd9" d="M692.74,242.76v12.44h12.98c2.33,0,4.21-1.89,4.21-4.21v-8.23h-17.19Z"></path></g><rect class="neighborhood-illustration_cls10__5n_hn" x="792.98" y="207.27" width="28.61" height="5.81" rx="1.79" ry="1.79" transform="translate(597.12 1017.46) rotate(-90)"></rect><rect class="neighborhood-illustration_cls10__5n_hn" x="746.57" y="207.27" width="28.61" height="5.81" rx="1.79" ry="1.79" transform="translate(550.7 971.05) rotate(-90)"></rect><g><path class="neighborhood-illustration_cls4__3Hmd9" d="M784.85,210.6h17.3v-10.53c0-2.33-1.89-4.21-4.21-4.21h-13.09v14.74Z"></path><path class="neighborhood-illustration_cls4__3Hmd9" d="M783.5,210.6v-14.74h-13.15c-2.33,0-4.21,1.89-4.21,4.21v10.54h17.36Z"></path><path class="neighborhood-illustration_cls4__3Hmd9" d="M766.15,212.08v8.18c0,2.33,1.89,4.21,4.21,4.21h13.15v-12.39h-17.36Z"></path><path class="neighborhood-illustration_cls4__3Hmd9" d="M784.85,212.08v12.39h13.08c2.33,0,4.21-1.89,4.21-4.21v-8.18h-17.3Z"></path></g><path class="neighborhood-illustration_cls13__uFpp8" d="M764.79,255.03l-71.06-71.06c-.44-.44-1.01-.65-1.58-.64-.57,0-1.15.21-1.58.64l-71.06,71.06c-.86.86-.86,2.25,0,3.1l.29.29c.86.86,2.25.86,3.1,0l69.25-69.25,69.25,69.25c.86.86,2.25.86,3.1,0l.29-.29c.86-.86.86-2.25,0-3.1Z"></path><path class="neighborhood-illustration_cls13__uFpp8" d="M820.76,185.8l-35.72-38.57c-.4-.44-.93-.65-1.46-.64-.53,0-1.05.21-1.46.64l-35.36,37.91c-.79.86-.79,2.25,0,3.1l.26.29c.79.86,2.07.86,2.85,0l33.69-36.1,34.06,36.76c.79.86,2.07.86,2.85,0l.26-.29c.79-.86.79-2.25,0-3.1Z"></path></g><g><path class="neighborhood-illustration_cls10__5n_hn" d="M1277.37,317.66h123.56c1.73,0,3.14,1.4,3.14,3.14v3.55h-129.83v-3.55c0-1.73,1.4-3.14,3.14-3.14Z"></path><path class="neighborhood-illustration_cls6__8zwQq" d="M1394.97,229.07l-.03-16.11c-.16-.9-.08-2.73-.08-4.59h-56.66l-.08.76h-.77v108.48h57.62v-88.55Z"></path><polygon class="neighborhood-illustration_cls28__wN8I0" points="1368.31 208.37 1340.69 208.37 1340.61 209.14 1339.85 209.14 1339.85 317.62 1368.31 317.62 1368.31 208.37"></polygon><path class="neighborhood-illustration_cls19__d_1gh" d="M1237.62,209.2c-2.49,0-4.6,1.76-4.91,4.11l.97,104.37h105.46l-1.24-108.48h-100.28Z"></path><path class="neighborhood-illustration_cls6__8zwQq" d="M1395.08,291.48v-86.48h-.49c-.03-.51-.22-1-.54-1.37l-26.62-30.6c-.8-.92-2.14-.92-2.94,0l-26.62,30.6c-.35.4-.55.94-.55,1.49l.11,39.81-.54,54.94,33.77-32.54.87.49,23.56,23.66Z"></path><path class="neighborhood-illustration_cls28__wN8I0" d="M1368.34,271.83l-1.62-98.8c-.59,0,.44-.47,0,0l-28.78,30.6c-.38.4-.59.94-.59,1.49l.12,39.81-.59,54.94,31.45-28.04Z"></path><path class="neighborhood-illustration_cls15__9QAUS" d="M1396.19,290.34l-26.5-26.5c-.38-.38-.88-.56-1.38-.56-.5,0-1,.18-1.38.56l-32.53,32.53c-.75.75-.75,1.96,0,2.7l.25.25c.75.75,1.96.75,2.7,0l30.96-30.96,24.93,24.93c.75.75,1.96.75,2.7,0l.25-.25c.75-.75.75-1.96,0-2.7Z"></path><path class="neighborhood-illustration_cls10__5n_hn" d="M1365.3,287.79h6.41c1.56,0,2.83,1.27,2.83,2.83v27.04h-12.06v-27.04c0-1.56,1.27-2.83,2.83-2.83Z"></path><path class="neighborhood-illustration_cls6__8zwQq" d="M1343.83,323.94h-114.51v-58.28c0-1.03.39-2.01,1.09-2.76l53.22-56.6c1.59-1.69,4.28-1.69,5.88,0l53.22,56.6c.7.75,1.09,1.74,1.09,2.76v58.28Z"></path><path class="neighborhood-illustration_cls28__wN8I0" d="M1287.23,205.08c-1.28-.21-2.63.2-3.59,1.22l-53.22,56.6c-.7.75-1.09,1.74-1.09,2.76v58.28h57.91v-118.86Z"></path><path class="neighborhood-illustration_cls4__3Hmd9" d="M1249.13,281.75h74.89c5.37,0,9.73,4.36,9.73,9.73v31.23c0,.68-.55,1.23-1.23,1.23h-91.88c-.68,0-1.23-.55-1.23-1.23v-31.23c0-5.37,4.36-9.73,9.73-9.73Z"></path><rect class="neighborhood-illustration_cls10__5n_hn" x="1251.23" y="289.86" width="20.4" height="3.71" rx=".87" ry=".87"></rect><rect class="neighborhood-illustration_cls10__5n_hn" x="1276.38" y="289.86" width="20.4" height="3.71" rx=".87" ry=".87"></rect><rect class="neighborhood-illustration_cls10__5n_hn" x="1301.53" y="289.86" width="20.4" height="3.71" rx=".87" ry=".87"></rect><path class="neighborhood-illustration_cls10__5n_hn" d="M1221.12,317.66h123.56c1.73,0,3.14,1.4,3.14,3.14v3.55h-129.83v-3.55c0-1.73,1.4-3.14,3.14-3.14Z"></path><rect class="neighborhood-illustration_cls10__5n_hn" x="1294.51" y="249.62" width="24.91" height="5.64" rx="1.32" ry="1.32" transform="translate(1054.52 1559.4) rotate(-90)"></rect><rect class="neighborhood-illustration_cls10__5n_hn" x="1253.83" y="250.06" width="24.91" height="5.64" rx="1.32" ry="1.32" transform="translate(1013.41 1519.17) rotate(-90)"></rect><g><path class="neighborhood-illustration_cls4__3Hmd9" d="M1287.23,253.21h14.96v-9.12c0-2.02-1.64-3.67-3.67-3.67h-11.3v12.79Z"></path><path class="neighborhood-illustration_cls4__3Hmd9" d="M1270.93,254.51v-1.29h15.13v-12.8h-11.54c-2.02,0-3.67,1.64-3.67,3.67v17.58c0,2.02,1.64,3.67,3.67,3.67h11.54v-10.82h-15.13Z"></path><path class="neighborhood-illustration_cls4__3Hmd9" d="M1287.23,254.51v10.82h11.3c2.02,0,3.67-1.64,3.67-3.67v-7.16h-14.96Z"></path></g><rect class="neighborhood-illustration_cls10__5n_hn" x="1374.49" y="223.61" width="24.91" height="5.06" rx="1.19" ry="1.19" transform="translate(1160.8 1613.08) rotate(-90)"></rect><rect class="neighborhood-illustration_cls10__5n_hn" x="1334.09" y="223.61" width="24.91" height="5.06" rx="1.19" ry="1.19" transform="translate(1120.4 1572.68) rotate(-90)"></rect><g><path class="neighborhood-illustration_cls4__3Hmd9" d="M1367.41,226.51h15.06v-9.16c0-2.02-1.64-3.67-3.67-3.67h-11.4v12.83Z"></path><path class="neighborhood-illustration_cls4__3Hmd9" d="M1366.23,226.51v-12.83h-11.44c-2.02,0-3.67,1.64-3.67,3.67v9.17h15.11Z"></path><path class="neighborhood-illustration_cls4__3Hmd9" d="M1351.13,227.8v7.12c0,2.02,1.64,3.67,3.67,3.67h11.44v-10.79h-15.11Z"></path><path class="neighborhood-illustration_cls4__3Hmd9" d="M1367.41,227.8v10.79h11.39c2.02,0,3.67-1.64,3.67-3.67v-7.12h-15.05Z"></path></g><path class="neighborhood-illustration_cls15__9QAUS" d="M1349.95,265.19l-61.85-61.85c-.38-.38-.88-.56-1.38-.56-.5,0-1,.18-1.38.56l-61.85,61.85c-.75.75-.75,1.96,0,2.7l.25.25c.75.75,1.96.75,2.7,0l60.28-60.28,60.28,60.28c.75.75,1.96.75,2.7,0l.25-.25c.75-.75.75-1.96,0-2.7Z"></path><path class="neighborhood-illustration_cls15__9QAUS" d="M1398.67,204.92l-31.1-33.57c-.35-.38-.81-.56-1.27-.56-.46,0-.92.18-1.27.56l-30.78,33c-.69.75-.69,1.96,0,2.7l.23.25c.69.75,1.8.75,2.48,0l29.33-31.42,29.65,32c.69.75,1.8.75,2.48,0l.23-.25c.69-.75.69-1.96,0-2.7Z"></path></g><g><path class="neighborhood-illustration_cls1__Qioyd" d="M866.83,308.92c0-3.44,43.09-6.23,96.24-6.23,17.56,0,67.06.46,48.2,2.5-39.96,4.33,48.03,1.42,48.03,3.73,0,3.44-43.09,6.23-96.24,6.23-53.15,0-96.24-2.79-96.24-6.23"></path><g id="Apt_Building" data-name="Apt Building"><path class="neighborhood-illustration_cls26__hvZCi" d="M851.25,118.38h226.7v132.53h-226.74c-2.27,0-4.11-1.84-4.11-4.11v-124.28c0-2.29,1.86-4.14,4.14-4.14Z" transform="translate(1147.17 -777.88) rotate(90)"></path><path class="neighborhood-illustration_cls25__rNtbb" d="M1028.79,71.57c0-1.3-1.2-2.35-2.67-2.35h-127.2c-1.47,0-2.66,1.05-2.66,2.34v196.29l132.53-196.28Z"></path><path class="neighborhood-illustration_cls10__5n_hn" d="M952.91,263.64h3.18c3.43,0,6.22,2.79,6.22,6.22v30.21h-14.72v-31.11c0-2.94,2.38-5.32,5.32-5.32Z"></path><path class="neighborhood-illustration_cls10__5n_hn" d="M970.03,263.64h3.18c2.9,0,5.25,2.35,5.25,5.25v31.18h-14.72v-30.15c0-3.47,2.82-6.28,6.28-6.28Z"></path><path class="neighborhood-illustration_cls4__3Hmd9" d="M1007.54,263.24h-6.12v14.7s9.63,0,9.63,0v1.5h-9.62v15.47s-1.49,0-1.49,0v-15.47h-9.61v-1.48h9.61v-14.71h-6.2c-1.94,0-3.51,1.57-3.51,3.51v24.64c0,1.94,1.57,3.51,3.51,3.51h13.79c1.94,0,3.51-1.57,3.51-3.51v-24.64c0-1.94-1.57-3.51-3.51-3.51Z"></path><path class="neighborhood-illustration_cls4__3Hmd9" d="M931.09,263.24h-6.12v14.7s9.63,0,9.63,0v1.5h-9.62v15.47s-1.49,0-1.49,0v-15.47h-9.61v-1.48h9.61v-14.71h-6.2c-1.94,0-3.51,1.57-3.51,3.51v24.64c0,1.94,1.57,3.51,3.51,3.51h13.79c1.94,0,3.51-1.57,3.51-3.51v-24.64c0-1.94-1.57-3.51-3.51-3.51Z"></path><g class="neighborhood-illustration_cls29__pxFzU"><path class="neighborhood-illustration_cls23__1LPog" d="M991.37,103.83h19.02v-10.78c0-2.16-1.75-3.92-3.92-3.92h-15.11v14.7Z"></path><path class="neighborhood-illustration_cls23__1LPog" d="M989.88,105.32h-19.23v-1.48h19.23v-14.71h-15.4c-2.16,0-3.92,1.75-3.92,3.92v23.82c0,2.16,1.75,3.92,3.92,3.92h15.4v-15.47Z"></path><path class="neighborhood-illustration_cls23__1LPog" d="M991.37,105.32v15.47h15.1c2.16,0,3.92-1.75,3.92-3.92v-11.55h-19.02Z"></path></g><g class="neighborhood-illustration_cls29__pxFzU"><path class="neighborhood-illustration_cls23__1LPog" d="M991.37,146.44h19.02v-10.78c0-2.16-1.75-3.92-3.92-3.92h-15.11v14.7Z"></path><path class="neighborhood-illustration_cls23__1LPog" d="M989.88,147.93h-19.23v-1.48h19.23v-14.71h-15.4c-2.16,0-3.92,1.75-3.92,3.92v23.82c0,2.16,1.75,3.92,3.92,3.92h15.4v-15.47Z"></path><path class="neighborhood-illustration_cls23__1LPog" d="M991.37,147.93v15.47h15.1c2.16,0,3.92-1.75,3.92-3.92v-11.55h-19.02Z"></path></g><g class="neighborhood-illustration_cls29__pxFzU"><path class="neighborhood-illustration_cls23__1LPog" d="M991.37,189.05h19.02v-10.78c0-2.16-1.75-3.92-3.92-3.92h-15.11v14.7Z"></path><path class="neighborhood-illustration_cls23__1LPog" d="M989.88,190.54h-19.23v-1.48h19.23v-14.71h-15.4c-2.16,0-3.92,1.75-3.92,3.92v23.82c0,2.16,1.75,3.92,3.92,3.92h15.4v-15.47Z"></path><path class="neighborhood-illustration_cls23__1LPog" d="M991.37,190.54v15.47h15.1c2.16,0,3.92-1.75,3.92-3.92v-11.55h-19.02Z"></path></g><g class="neighborhood-illustration_cls29__pxFzU"><path class="neighborhood-illustration_cls23__1LPog" d="M991.37,231.66h19.02v-10.78c0-2.16-1.75-3.92-3.92-3.92h-15.11v14.7Z"></path><path class="neighborhood-illustration_cls23__1LPog" d="M989.88,233.15h-19.23v-1.48h19.23v-14.71h-15.4c-2.16,0-3.92,1.75-3.92,3.92v23.82c0,2.16,1.75,3.92,3.92,3.92h15.4v-15.47Z"></path><path class="neighborhood-illustration_cls23__1LPog" d="M991.37,233.15v15.47h15.1c2.16,0,3.92-1.75,3.92-3.92v-11.55h-19.02Z"></path></g><g class="neighborhood-illustration_cls29__pxFzU"><path class="neighborhood-illustration_cls23__1LPog" d="M934.75,103.83h19.02v-10.78c0-2.16-1.75-3.92-3.92-3.92h-15.11v14.7Z"></path><path class="neighborhood-illustration_cls23__1LPog" d="M933.26,105.32h-19.23v-1.48h19.23v-14.71h-15.4c-2.16,0-3.92,1.75-3.92,3.92v23.82c0,2.16,1.75,3.92,3.92,3.92h15.4v-15.47Z"></path><path class="neighborhood-illustration_cls23__1LPog" d="M934.75,105.32v15.47h15.1c2.16,0,3.92-1.75,3.92-3.92v-11.55h-19.02Z"></path></g><g class="neighborhood-illustration_cls29__pxFzU"><path class="neighborhood-illustration_cls23__1LPog" d="M934.75,146.44h19.02v-10.78c0-2.16-1.75-3.92-3.92-3.92h-15.11v14.7Z"></path><path class="neighborhood-illustration_cls23__1LPog" d="M933.26,147.93h-19.23v-1.48h19.23v-14.71h-15.4c-2.16,0-3.92,1.75-3.92,3.92v23.82c0,2.16,1.75,3.92,3.92,3.92h15.4v-15.47Z"></path><path class="neighborhood-illustration_cls23__1LPog" d="M934.75,147.93v15.47h15.1c2.16,0,3.92-1.75,3.92-3.92v-11.55h-19.02Z"></path></g><g class="neighborhood-illustration_cls29__pxFzU"><path class="neighborhood-illustration_cls23__1LPog" d="M934.75,189.05h19.02v-10.78c0-2.16-1.75-3.92-3.92-3.92h-15.11v14.7Z"></path><path class="neighborhood-illustration_cls23__1LPog" d="M933.26,190.54h-19.23v-1.48h19.23v-14.71h-15.4c-2.16,0-3.92,1.75-3.92,3.92v23.82c0,2.16,1.75,3.92,3.92,3.92h15.4v-15.47Z"></path><path class="neighborhood-illustration_cls23__1LPog" d="M934.75,190.54v15.47h15.1c2.16,0,3.92-1.75,3.92-3.92v-11.55h-19.02Z"></path></g><g class="neighborhood-illustration_cls29__pxFzU"><path class="neighborhood-illustration_cls23__1LPog" d="M934.75,231.66h19.02v-10.78c0-2.16-1.75-3.92-3.92-3.92h-15.11v14.7Z"></path><path class="neighborhood-illustration_cls23__1LPog" d="M933.26,233.15h-19.23v-1.48h19.23v-14.71h-15.4c-2.16,0-3.92,1.75-3.92,3.92v23.82c0,2.16,1.75,3.92,3.92,3.92h15.4v-15.47Z"></path><path class="neighborhood-illustration_cls23__1LPog" d="M934.75,233.15v15.47h15.1c2.16,0,3.92-1.75,3.92-3.92v-11.55h-19.02Z"></path></g><g><path class="neighborhood-illustration_cls17__VuS5O" d="M1054.01,287.98c-.71-.52-1.48-.87-2.29-1.07-.23-2.53-1.5-4.95-3.7-6.57-2.38-1.75-5.32-2.17-7.95-1.42.2-.36.33-.76.39-1.19.26-1.91-1.07-3.67-2.98-3.93-.27-.04-.54-.04-.8-.01-.15-1.57-1.36-2.9-2.99-3.12-1.14-.16-2.23.26-2.98,1.03-.18-.05-.37-.09-.57-.11-2.67-.37-5.13,1.5-5.5,4.17-.11.82-.01,1.61.25,2.33-2.48-.39-5.05.79-6.3,3.14-.38.72-.6,1.48-.68,2.24-2.29.54-4.35,2.03-5.55,4.27-2.21,4.14-.65,9.29,3.49,11.5.91.49,1.87.79,2.83.92-.03,2.2,1.13,4.34,3.21,5.45,2.16,1.15,4.7.87,6.53-.52.92-.03,1.81-.42,2.46-1.12.4.56.89,1.08,1.48,1.51,1.75,1.28,3.92,1.56,5.84.96.26.24.54.48.83.69,4.08,2.99,9.82,2.11,12.81-1.97,1.4-1.9,1.95-4.16,1.73-6.34.7-.43,1.34-1,1.85-1.7,2.14-2.91,1.51-7.01-1.4-9.15Z"></path><path class="neighborhood-illustration_cls11__mCpCW" d="M1034.02,270.74c-.11-.03-.22-.05-.34-.06-1.14-.16-2.23.26-2.98,1.03-.18-.05-.37-.09-.57-.11-2.67-.37-5.13,1.5-5.5,4.17-.11.82-.01,1.61.25,2.33-2.48-.39-5.05.79-6.3,3.14-.38.72-.6,1.48-.68,2.24-2.29.54-4.35,2.03-5.55,4.27-2.21,4.14-.65,9.29,3.49,11.5.91.49,1.87.79,2.83.92-.03,2.2,1.13,4.34,3.21,5.45,2.16,1.15,4.7.87,6.53-.52.92-.03,1.81-.42,2.46-1.12.4.56.89,1.08,1.48,1.51.52.39,1.09.68,1.67.89v-35.64Z"></path></g><g><path class="neighborhood-illustration_cls17__VuS5O" d="M910.97,287.98c-.71-.52-1.48-.87-2.29-1.07-.23-2.53-1.5-4.95-3.7-6.57-2.38-1.75-5.32-2.17-7.95-1.42.2-.36.33-.76.39-1.19.26-1.91-1.07-3.67-2.98-3.93-.27-.04-.54-.04-.8-.01-.15-1.57-1.36-2.9-2.99-3.12-1.14-.16-2.23.26-2.98,1.03-.18-.05-.37-.09-.57-.11-2.67-.37-5.13,1.5-5.5,4.17-.11.82-.01,1.61.25,2.33-2.48-.39-5.05.79-6.3,3.14-.38.72-.6,1.48-.68,2.24-2.29.54-4.35,2.03-5.55,4.27-2.21,4.14-.65,9.29,3.49,11.5.91.49,1.87.79,2.83.92-.03,2.2,1.13,4.34,3.21,5.45,2.16,1.15,4.7.87,6.53-.52.92-.03,1.81-.42,2.46-1.12.4.56.89,1.08,1.48,1.51,1.75,1.28,3.92,1.56,5.84.96.26.24.54.48.83.69,4.08,2.99,9.82,2.11,12.81-1.97,1.4-1.9,1.95-4.16,1.73-6.34.7-.43,1.34-1,1.85-1.7,2.14-2.91,1.51-7.01-1.4-9.15Z"></path><path class="neighborhood-illustration_cls11__mCpCW" d="M890.98,270.74c-.11-.03-.22-.05-.34-.06-1.14-.16-2.23.26-2.98,1.03-.18-.05-.37-.09-.57-.11-2.67-.37-5.13,1.5-5.5,4.17-.11.82-.01,1.61.25,2.33-2.48-.39-5.05.79-6.3,3.14-.38.72-.6,1.48-.68,2.24-2.29.54-4.35,2.03-5.55,4.27-2.21,4.14-.65,9.29,3.49,11.5.91.49,1.87.79,2.83.92-.03,2.2,1.13,4.34,3.21,5.45,2.16,1.15,4.7.87,6.53-.52.92-.03,1.81-.42,2.46-1.12.4.56.89,1.08,1.48,1.51.52.39,1.09.68,1.67.89v-35.64Z"></path></g><path class="neighborhood-illustration_cls10__5n_hn" d="M883.59,299.88h157.9c3.83,0,6.94,3.11,6.94,6.94v1.91h-171.78v-1.91c0-3.83,3.11-6.94,6.94-6.94Z"></path><path class="neighborhood-illustration_cls20__UOx9v" d="M896.71,60.85h130.76c4.81,0,8.71,3.9,8.71,8.71v2.4h-148.17v-2.4c0-4.81,3.9-8.71,8.71-8.71Z"></path></g></g><g><ellipse class="neighborhood-illustration_cls1__Qioyd" cx="404.46" cy="329.33" rx="42.41" ry="3.01"></ellipse><g id="Car"><circle class="neighborhood-illustration_cls16__iwgU0" cx="443.11" cy="314.57" r="2.85"></circle><circle class="neighborhood-illustration_cls20__UOx9v" cx="368.67" cy="314.57" r="2.85"></circle><path class="neighborhood-illustration_cls8__6ahQZ" d="M366.08,317.23c.45-.28.93-.43,1.31-.83.46-.5.74-1.14,1-1.76.3-.72.45-1.49.67-2.24.48-3.23,1.28-6.37,2.79-9.3,2.78-5.38,6.9-9.44,12.16-12.4.43-.24.87-.48,1.31-.7,5.29-2.66,11.22-3.64,17.1-3.45,1.45.05,2.9.17,4.34.35,3.29.42,6.55,1.33,9.32,3.22,2.33,1.59,4.21,3.68,5.95,5.89,1.41,1.78,2.76,3.59,4.58,5.01.94.74,2.03.96,3.12,1.23,1.04.26,2.09.34,3.13.58,5.99,1.39,11.48,7.31,10.58,13.76-.11.81.6.75,1.14,1.05.71.39,1.17,1.05,1.17,1.87,0,1.19-.63,2.04-1.66,2.58-.43.22-.93.41-1.41.43-2.03.09-4.07.11-6.1.15-.05-.04-.09-.08-.14-.12-.01-.05-.01-.1,0-.15.02-.07.03-.14.05-.21.27-1.18.3-2.41.09-3.6-.63-3.51-3.37-6.35-6.74-7.39-2.41-.74-5.16-.55-7.34.76-1.2.72-2.19,1.72-2.94,2.9-.63,1-1.22,2.3-1.51,3.44-.18.7-.24,1.42-.21,2.14.02.38.06.76.12,1.14.03.2.23.67.18.82-.01.05-.01.1.01.15h-.04s-.1.06-.15.08c-8.45,0-16.9,0-25.36,0-.05-.03-.1-.05-.15-.08,0-.18-.02-.35-.03-.53.05-.19.1-.38.15-.57h.04c.89-5.13-3.41-10.2-8.47-10.7-2.68-.27-5.58.65-7.45,2.63-.1.1-.2.2-.3.31-.8.81-1.4,1.79-1.82,2.85-.64,1.63-1.32,3.53-.6,5.24.06.13.11.27.17.4-.01.11-.03.23-.04.34-.04.02-.08.01-.12-.01-.05,0-.1,0-.15,0-2.08-.04-4.17-.02-6.25-.13-1.26-.06-2.32-.65-2.71-1.93-.34-1.14.06-2.38,1.01-3.09.06-.05.12-.09.19-.13Z"></path><path class="neighborhood-illustration_cls25__rNtbb" d="M400.4,286.54c.67,0,1.34,0,2.02.02,1.45.05,2.9.17,4.34.35,3.29.42,6.55,1.33,9.32,3.22,2.33,1.59,4.21,3.68,5.95,5.89,1.41,1.78,2.76,3.59,4.58,5.01.94.74,2.03.96,3.12,1.23,1.04.26,2.09.34,3.13.58,5.99,1.39,11.48,7.31,10.58,13.76-.11.81.6.75,1.14,1.05.71.39,1.17,1.05,1.17,1.87,0,1.19-.63,2.04-1.66,2.58-.43.22-.93.41-1.41.43-2.03.09-4.07.11-6.1.15-.05-.04-.09-.08-.14-.12-.01-.05-.01-.1,0-.15.02-.07.03-.14.05-.21.27-1.18.3-2.41.09-3.6-.63-3.51-3.37-6.35-6.74-7.39-2.41-.74-5.16-.55-7.34.76-1.2.72-2.19,1.72-2.94,2.9-.63,1-1.22,2.3-1.51,3.44-.18.7-.24,1.42-.21,2.14.02.38.06.76.12,1.14.03.2.23.67.18.82-.01.05-.01.1.01.15h-.04s-.1.06-.15.08c-5.85,0-11.7,0-17.55,0v-36.08Z"></path><g><circle class="neighborhood-illustration_cls10__5n_hn" cx="383.22" cy="320.22" r="9.58"></circle><circle class="neighborhood-illustration_cls16__iwgU0" cx="383.22" cy="320.22" r="6.78"></circle><path class="neighborhood-illustration_cls4__3Hmd9" d="M376.5,327.06l13.55-13.55c-1.74-1.77-4.16-2.87-6.84-2.87-5.29,0-9.58,4.29-9.58,9.58,0,2.68,1.1,5.1,2.87,6.84Z"></path></g><g><circle class="neighborhood-illustration_cls10__5n_hn" cx="427.23" cy="320.22" r="9.58"></circle><circle class="neighborhood-illustration_cls16__iwgU0" cx="427.23" cy="320.22" r="6.78"></circle><path class="neighborhood-illustration_cls4__3Hmd9" d="M420.52,327.06l13.55-13.55c-1.74-1.77-4.16-2.87-6.84-2.87-5.29,0-9.58,4.29-9.58,9.58,0,2.68,1.1,5.1,2.87,6.84Z"></path></g><path class="neighborhood-illustration_cls4__3Hmd9" d="M419.66,299.62c-1.38-1.81-2.82-3.61-4.49-5.17-.04-.03-.07-.07-.11-.1-2.51-2.27-5.62-4.04-9.03-4.42-.58-.07-1.92-.41-2.27.26-.05.1-.08.23-.08.38.05,3.79.06,7.59.06,11.38,0,.47-.13.93.4.98,1.01.1,1.25.09,2.33.08,4.71-.04,9.44-.01,14.15-.03.24,0,1.3.11,1.54.05-.12.03-.94-1.31-1.03-1.44-.46-.64-.92-1.26-1.4-1.88-.02-.03-.05-.06-.07-.09Z"></path><path class="neighborhood-illustration_cls4__3Hmd9" d="M400.38,302.81c-.07.37-1.52.18-1.74.18h-2.93c-1.96,0-3.91,0-5.87,0-3.91,0-7.83,0-11.74.01h-1.58c-.18,0-.41-.03-.46-.21-.03-.12.04-.23.11-.33,2.65-3.83,6.23-7.02,10.34-9.21s8.75-3.39,13.41-3.46c.13,0,.26,0,.36.08.12.1.13.27.13.43-.01,3.89-.03,7.79-.04,11.68,0,.25,0,.49,0,.74.06-3.83.03-7.66.03-11.49,0-.16,0-.31,0-.47,0-.27,0-.54,0-.8M380.3,298.14c.08.01.15,0,.21,0-.07.01-.14.01-.21,0Z"></path><rect class="neighborhood-illustration_cls20__UOx9v" x="403.67" y="306.31" width="4.51" height="1.86" rx=".93" ry=".93" transform="translate(811.85 614.47) rotate(180)"></rect></g></g><g><ellipse class="neighborhood-illustration_cls1__Qioyd" cx="1566.5" cy="313.61" rx="42.41" ry="3.01"></ellipse><g id="Car-2" data-name="Car"><circle class="neighborhood-illustration_cls16__iwgU0" cx="1527.85" cy="298.85" r="2.85"></circle><circle class="neighborhood-illustration_cls20__UOx9v" cx="1602.29" cy="298.85" r="2.85"></circle><path class="neighborhood-illustration_cls9__egUHV" d="M1604.88,301.51c-.45-.28-.93-.43-1.31-.83-.46-.5-.74-1.14-1-1.76-.3-.72-.45-1.49-.67-2.24-.48-3.23-1.28-6.37-2.79-9.3-2.78-5.38-6.9-9.44-12.16-12.4-.43-.24-.87-.48-1.31-.7-5.29-2.66-11.22-3.64-17.1-3.45-1.45.05-2.9.17-4.34.35-3.29.42-6.55,1.33-9.32,3.22-2.33,1.59-4.21,3.68-5.95,5.89-1.41,1.78-2.76,3.59-4.58,5.01-.94.74-2.03.96-3.12,1.23-1.04.26-2.09.34-3.13.58-5.99,1.39-11.48,7.31-10.58,13.76.11.81-.6.75-1.14,1.05-.71.39-1.17,1.05-1.17,1.87,0,1.19.63,2.04,1.66,2.58.43.22.93.41,1.41.43,2.03.09,4.07.11,6.1.15.05-.04.09-.08.14-.12.01-.05.01-.1,0-.15-.02-.07-.03-.14-.05-.21-.27-1.18-.3-2.41-.09-3.6.63-3.51,3.37-6.35,6.74-7.39,2.41-.74,5.16-.55,7.34.76,1.2.72,2.19,1.72,2.94,2.9.63,1,1.22,2.3,1.51,3.44.18.7.24,1.42.21,2.14-.02.38-.06.76-.12,1.14-.03.2-.23.67-.18.82.01.05.01.1-.01.15h.04s.1.06.15.08c8.45,0,16.9,0,25.36,0,.05-.03.1-.05.15-.08,0-.18.02-.35.03-.53-.05-.19-.1-.38-.15-.57h-.04c-.89-5.13,3.41-10.2,8.47-10.7,2.68-.27,5.58.65,7.45,2.63.1.1.2.2.3.31.8.81,1.4,1.79,1.82,2.85.64,1.63,1.32,3.53.6,5.24-.06.13-.11.27-.17.4.01.11.03.23.04.34.04.02.08.01.12-.01.05,0,.1,0,.15,0,2.08-.04,4.17-.02,6.25-.13,1.26-.06,2.32-.65,2.71-1.93.34-1.14-.06-2.38-1.01-3.09-.06-.05-.12-.09-.19-.13Z"></path><path class="neighborhood-illustration_cls14__HZjNj" d="M1570.56,270.82c-.67,0-1.34,0-2.02.02-1.45.05-2.9.17-4.34.35-3.29.42-6.55,1.33-9.32,3.22-2.33,1.59-4.21,3.68-5.95,5.89-1.41,1.78-2.76,3.59-4.58,5.01-.94.74-2.03.96-3.12,1.23-1.04.26-2.09.34-3.13.58-5.99,1.39-11.48,7.31-10.58,13.76.11.81-.6.75-1.14,1.05-.71.39-1.17,1.05-1.17,1.87,0,1.19.63,2.04,1.66,2.58.43.22.93.41,1.41.43,2.03.09,4.07.11,6.1.15.05-.04.09-.08.14-.12.01-.05.01-.1,0-.15-.02-.07-.03-.14-.05-.21-.27-1.18-.3-2.41-.09-3.6.63-3.51,3.37-6.35,6.74-7.39,2.41-.74,5.16-.55,7.34.76,1.2.72,2.19,1.72,2.94,2.9.63,1,1.22,2.3,1.51,3.44.18.7.24,1.42.21,2.14-.02.38-.06.76-.12,1.14-.03.2-.23.67-.18.82.01.05.01.1-.01.15h.04s.1.06.15.08c5.85,0,11.7,0,17.55,0v-36.08Z"></path><g><circle class="neighborhood-illustration_cls10__5n_hn" cx="1587.74" cy="304.5" r="9.58"></circle><circle class="neighborhood-illustration_cls16__iwgU0" cx="1587.74" cy="304.5" r="6.78"></circle><path class="neighborhood-illustration_cls4__3Hmd9" d="M1594.45,311.34l-13.55-13.55c1.74-1.77,4.16-2.87,6.84-2.87,5.29,0,9.58,4.29,9.58,9.58,0,2.68-1.1,5.1-2.87,6.84Z"></path></g><g><circle class="neighborhood-illustration_cls10__5n_hn" cx="1543.73" cy="304.5" r="9.58"></circle><circle class="neighborhood-illustration_cls16__iwgU0" cx="1543.73" cy="304.5" r="6.78"></circle><path class="neighborhood-illustration_cls4__3Hmd9" d="M1550.44,311.34l-13.55-13.55c1.74-1.77,4.16-2.87,6.84-2.87,5.29,0,9.58,4.29,9.58,9.58,0,2.68-1.1,5.1-2.87,6.84Z"></path></g><path class="neighborhood-illustration_cls4__3Hmd9" d="M1551.3,283.9c1.38-1.81,2.82-3.61,4.49-5.17.04-.03.07-.07.11-.1,2.51-2.27,5.62-4.04,9.03-4.42.58-.07,1.92-.41,2.27.26.05.1.08.23.08.38-.05,3.79-.06,7.59-.06,11.38,0,.47.13.93-.4.98-1.01.1-1.25.09-2.33.08-4.71-.04-9.44-.01-14.15-.03-.24,0-1.3.11-1.54.05.12.03.94-1.31,1.03-1.44.46-.64.92-1.26,1.4-1.88.02-.03.05-.06.07-.09Z"></path><path class="neighborhood-illustration_cls4__3Hmd9" d="M1570.58,287.09c.07.37,1.52.18,1.74.18h2.93c1.96,0,3.91,0,5.87,0,3.91,0,7.83,0,11.74.01h1.58c.18,0,.41-.03.46-.21.03-.12-.04-.23-.11-.33-2.65-3.83-6.23-7.02-10.34-9.21s-8.75-3.39-13.41-3.46c-.13,0-.26,0-.36.08-.12.1-.13.27-.13.43.01,3.89.03,7.79.04,11.68,0,.25,0,.49,0,.74-.06-3.83-.03-7.66-.03-11.49,0-.16,0-.31,0-.47,0-.27,0-.54,0-.8M1590.66,282.42c-.08.01-.15,0-.21,0,.07.01.14.01.21,0Z"></path><rect class="neighborhood-illustration_cls20__UOx9v" x="1562.78" y="290.59" width="4.51" height="1.86" rx=".93" ry=".93"></rect></g></g><g id="Bank"><polygon class="neighborhood-illustration_cls21__Yg0me" points="1689.42 176.41 1837.86 176.41 1764.83 118.39 1689.42 176.41"></polygon><path class="neighborhood-illustration_cls18__RtiBe" d="M1831.95,182.12h-136.46c-3.76,0-6.99-2.2-8.04-5.49-.96-3,.16-6.18,2.86-8.11l70.13-50.17c3.09-2.21,7.53-2.16,10.55.13l66.33,50.17c2.64,1.99,3.65,5.09,2.65,8.07-1.08,3.23-4.3,5.4-8.01,5.4ZM1693.78,173.39c-.89.63-.7,1.22-.64,1.41.21.66,1.02,1.32,2.34,1.32h136.46c1.31,0,2.12-.66,2.34-1.31.06-.19.25-.75-.59-1.39l-66.33-50.17c-.94-.71-2.49-.73-3.45-.04l-70.13,50.17Z"></path><path class="neighborhood-illustration_cls21__Yg0me" d="M1672.54,301.23h183.25c2.69,0,4.87,2.18,4.87,4.87v11.15h-193v-11.15c0-2.69,2.18-4.87,4.87-4.87Z"></path><path class="neighborhood-illustration_cls2__z8lJp" d="M1685.43,287.17h155.3c2.75,0,4.97,2.23,4.97,4.97v9.08h-165.25v-9.08c0-2.75,2.23-4.97,4.97-4.97Z"></path><rect class="neighborhood-illustration_cls5__ICbzg" x="1691.35" y="187.21" width="146.51" height="99.96"></rect><polygon class="neighborhood-illustration_cls22__yKCAz" points="1837.81 187.21 1691.35 187.21 1691.35 287.03 1837.81 187.21"></polygon><g><path class="neighborhood-illustration_cls4__3Hmd9" d="M1720.76,243.17h-4.49v13.31s6.91,0,6.91,0v.9h-6.9v14.21s-.9,0-.9,0v-14.21h-6.9v-.89h6.9v-13.31h-4.48c-1.37,0-2.48,1.11-2.48,2.48v23.46c0,1.37,1.11,2.48,2.48,2.48h9.86c1.37,0,2.48-1.11,2.48-2.48v-23.46c0-1.37-1.11-2.48-2.48-2.48Z"></path><path class="neighborhood-illustration_cls4__3Hmd9" d="M1720.76,206.24h-4.49v13.31s6.91,0,6.91,0v.9h-6.9v14.21s-.9,0-.9,0v-14.21h-6.9v-.89h6.9v-13.31h-4.48c-1.37,0-2.48,1.11-2.48,2.48v23.46c0,1.37,1.11,2.48,2.48,2.48h9.86c1.37,0,2.48-1.11,2.48-2.48v-23.46c0-1.37-1.11-2.48-2.48-2.48Z"></path></g><g><path class="neighborhood-illustration_cls4__3Hmd9" d="M1818.08,243.17h-4.49v13.31s6.91,0,6.91,0v.9h-6.9v14.21s-.9,0-.9,0v-14.21h-6.9v-.89h6.9v-13.31h-4.48c-1.37,0-2.48,1.11-2.48,2.48v23.46c0,1.37,1.11,2.48,2.48,2.48h9.86c1.37,0,2.48-1.11,2.48-2.48v-23.46c0-1.37-1.11-2.48-2.48-2.48Z"></path><path class="neighborhood-illustration_cls4__3Hmd9" d="M1818.08,206.24h-4.49v13.31s6.91,0,6.91,0v.9h-6.9v14.21s-.9,0-.9,0v-14.21h-6.9v-.89h6.9v-13.31h-4.48c-1.37,0-2.48,1.11-2.48,2.48v23.46c0,1.37,1.11,2.48,2.48,2.48h9.86c1.37,0,2.48-1.11,2.48-2.48v-23.46c0-1.37-1.11-2.48-2.48-2.48Z"></path></g><path class="neighborhood-illustration_cls4__3Hmd9" d="M1769.81,206.24h-4.49v13.31s6.91,0,6.91,0v.9h-6.9v14.21s-.9,0-.9,0v-14.21h-6.9v-.89h6.9v-13.31h-4.48c-1.37,0-2.48,1.11-2.48,2.48v23.46c0,1.37,1.11,2.48,2.48,2.48h9.86c1.37,0,2.48-1.11,2.48-2.48v-23.46c0-1.37-1.11-2.48-2.48-2.48Z"></path><path class="neighborhood-illustration_cls10__5n_hn" d="M1766.16,241.84h-2.55c-5.93,0-10.74,4.81-10.74,10.74v34.59h24.02v-34.59c0-5.93-4.81-10.74-10.74-10.74Z"></path><path class="neighborhood-illustration_cls10__5n_hn" d="M1687.96,275.99h12.17c2.06,0,3.73,1.67,3.73,3.73v7.48h-19.45v-7.66c0-1.96,1.59-3.55,3.55-3.55Z"></path><rect class="neighborhood-illustration_cls27__jgv4s" x="1687.93" y="201.84" width="12.43" height="74.14"></rect><path class="neighborhood-illustration_cls10__5n_hn" d="M1827.02,275.99h12.17c2.06,0,3.73,1.67,3.73,3.73v7.48h-19.45v-7.66c0-1.96,1.59-3.55,3.55-3.55Z"></path><path class="neighborhood-illustration_cls10__5n_hn" d="M1786.69,275.99h12.17c2.06,0,3.73,1.67,3.73,3.73v7.48h-19.45v-7.66c0-1.96,1.59-3.55,3.55-3.55Z"></path><path class="neighborhood-illustration_cls10__5n_hn" d="M1730.67,275.99h12.17c2.06,0,3.73,1.67,3.73,3.73v7.48h-19.45v-7.66c0-1.96,1.59-3.55,3.55-3.55Z"></path><path class="neighborhood-illustration_cls10__5n_hn" d="M1684.42,190.61h19.45v7.48c0,2.06-1.67,3.73-3.73,3.73h-12.17c-1.96,0-3.55-1.59-3.55-3.55v-7.66h0Z"></path><path class="neighborhood-illustration_cls16__iwgU0" d="M1823.47,190.61h19.45v7.48c0,2.06-1.67,3.73-3.73,3.73h-12.17c-1.96,0-3.55-1.59-3.55-3.55v-7.66h0Z"></path><path class="neighborhood-illustration_cls10__5n_hn" d="M1783.14,190.61h19.45v7.48c0,2.06-1.67,3.73-3.73,3.73h-12.17c-1.96,0-3.55-1.59-3.55-3.55v-7.66h0Z"></path><path class="neighborhood-illustration_cls10__5n_hn" d="M1727.12,190.61h19.45v7.48c0,2.06-1.67,3.73-3.73,3.73h-12.17c-1.96,0-3.55-1.59-3.55-3.55v-7.66h0Z"></path><rect class="neighborhood-illustration_cls18__RtiBe" x="1680.46" y="173" width="165.25" height="17.65" rx="2.31" ry="2.31"></rect><rect class="neighborhood-illustration_cls27__jgv4s" x="1730.62" y="201.84" width="12.43" height="74.14"></rect><rect class="neighborhood-illustration_cls27__jgv4s" x="1786.59" y="201.84" width="12.43" height="74.14"></rect><rect class="neighborhood-illustration_cls27__jgv4s" x="1826.97" y="201.84" width="12.43" height="74.14"></rect><path class="neighborhood-illustration_cls18__RtiBe" d="M1682.78,287.17h160.59c1.28,0,2.33,1.04,2.33,2.33v11.73h-165.25v-11.73c0-1.28,1.04-2.33,2.33-2.33Z"></path><path class="neighborhood-illustration_cls10__5n_hn" d="M1823.47,190.61h19.45v7.48c0,2.06-1.67,3.73-3.73,3.73h-12.17c-1.96,0-3.55-1.59-3.55-3.55v-7.66h0Z"></path></g><g id="Bank-2" data-name="Bank"><polygon class="neighborhood-illustration_cls15__9QAUS" points="167.43 192.57 298.23 192.57 233.88 141.44 167.43 192.57"></polygon><path class="neighborhood-illustration_cls19__d_1gh" d="M293.02,197.6h-120.24c-3.31,0-6.16-1.94-7.09-4.83-.85-2.64.14-5.45,2.52-7.15l61.79-44.2c2.72-1.95,6.63-1.9,9.3.11l58.45,44.2c2.32,1.76,3.22,4.48,2.34,7.11-.95,2.84-3.79,4.75-7.06,4.75ZM171.28,189.91c-.78.56-.62,1.07-.56,1.24.19.58.9,1.17,2.06,1.17h120.24c1.15,0,1.86-.58,2.06-1.15.06-.16.22-.66-.52-1.22l-58.45-44.2c-.83-.63-2.19-.64-3.04-.03l-61.79,44.2Z"></path><path class="neighborhood-illustration_cls19__d_1gh" d="M152.56,302.55h161.47c2.37,0,4.29,1.92,4.29,4.29v9.83h-170.06v-9.83c0-2.37,1.92-4.29,4.29-4.29Z"></path><path class="neighborhood-illustration_cls3__c_OYR" d="M163.92,290.16h136.84c2.42,0,4.38,1.96,4.38,4.38v8h-145.61v-8c0-2.42,1.96-4.38,4.38-4.38Z"></path><rect class="neighborhood-illustration_cls24__5iIMk" x="169.14" y="202.08" width="129.1" height="88.08"></rect><polygon class="neighborhood-illustration_cls15__9QAUS" points="298.19 202.08 169.14 202.08 169.14 290.04 298.19 202.08"></polygon><g><path class="neighborhood-illustration_cls4__3Hmd9" d="M195.05,251.39h-3.96v11.73s6.09,0,6.09,0v.8h-6.08v12.52s-.79,0-.79,0v-12.52h-6.08v-.79h6.08v-11.73h-3.95c-1.21,0-2.18.98-2.18,2.18v20.67c0,1.21.98,2.18,2.18,2.18h8.69c1.21,0,2.18-.98,2.18-2.18v-20.67c0-1.21-.98-2.18-2.18-2.18Z"></path><path class="neighborhood-illustration_cls4__3Hmd9" d="M195.05,218.85h-3.96v11.73s6.09,0,6.09,0v.8h-6.08v12.52s-.79,0-.79,0v-12.52h-6.08v-.79h6.08v-11.73h-3.95c-1.21,0-2.18.98-2.18,2.18v20.67c0,1.21.98,2.18,2.18,2.18h8.69c1.21,0,2.18-.98,2.18-2.18v-20.67c0-1.21-.98-2.18-2.18-2.18Z"></path></g><g><path class="neighborhood-illustration_cls4__3Hmd9" d="M280.8,251.39h-3.96v11.73s6.09,0,6.09,0v.8h-6.08v12.52s-.79,0-.79,0v-12.52h-6.08v-.79h6.08v-11.73h-3.95c-1.21,0-2.18.98-2.18,2.18v20.67c0,1.21.98,2.18,2.18,2.18h8.69c1.21,0,2.18-.98,2.18-2.18v-20.67c0-1.21-.98-2.18-2.18-2.18Z"></path><path class="neighborhood-illustration_cls4__3Hmd9" d="M280.8,218.85h-3.96v11.73s6.09,0,6.09,0v.8h-6.08v12.52s-.79,0-.79,0v-12.52h-6.08v-.79h6.08v-11.73h-3.95c-1.21,0-2.18.98-2.18,2.18v20.67c0,1.21.98,2.18,2.18,2.18h8.69c1.21,0,2.18-.98,2.18-2.18v-20.67c0-1.21-.98-2.18-2.18-2.18Z"></path></g><path class="neighborhood-illustration_cls4__3Hmd9" d="M238.27,218.85h-3.96v11.73s6.09,0,6.09,0v.8h-6.08v12.52s-.79,0-.79,0v-12.52h-6.08v-.79h6.08v-11.73h-3.95c-1.21,0-2.18.98-2.18,2.18v20.67c0,1.21.98,2.18,2.18,2.18h8.69c1.21,0,2.18-.98,2.18-2.18v-20.67c0-1.21-.98-2.18-2.18-2.18Z"></path><path class="neighborhood-illustration_cls10__5n_hn" d="M235.05,250.22h-2.25c-5.23,0-9.46,4.24-9.46,9.46v30.48h21.17v-30.48c0-5.23-4.24-9.46-9.46-9.46Z"></path><path class="neighborhood-illustration_cls10__5n_hn" d="M166.15,280.31h10.73c1.81,0,3.29,1.47,3.29,3.29v6.6h-17.14v-6.75c0-1.73,1.4-3.13,3.13-3.13Z"></path><rect class="neighborhood-illustration_cls6__8zwQq" x="166.12" y="214.98" width="10.95" height="65.33"></rect><path class="neighborhood-illustration_cls10__5n_hn" d="M288.68,280.31h10.73c1.81,0,3.29,1.47,3.29,3.29v6.6h-17.14v-6.75c0-1.73,1.4-3.13,3.13-3.13Z"></path><path class="neighborhood-illustration_cls10__5n_hn" d="M253.14,280.31h10.73c1.81,0,3.29,1.47,3.29,3.29v6.6h-17.14v-6.75c0-1.73,1.4-3.13,3.13-3.13Z"></path><path class="neighborhood-illustration_cls10__5n_hn" d="M203.78,280.31h10.73c1.81,0,3.29,1.47,3.29,3.29v6.6h-17.14v-6.75c0-1.73,1.4-3.13,3.13-3.13Z"></path><path class="neighborhood-illustration_cls10__5n_hn" d="M163.02,205.08h17.14v6.6c0,1.81-1.47,3.29-3.29,3.29h-10.73c-1.73,0-3.13-1.4-3.13-3.13v-6.75h0Z"></path><path class="neighborhood-illustration_cls16__iwgU0" d="M285.55,205.08h17.14v6.6c0,1.81-1.47,3.29-3.29,3.29h-10.73c-1.73,0-3.13-1.4-3.13-3.13v-6.75h0Z"></path><path class="neighborhood-illustration_cls10__5n_hn" d="M250.01,205.08h17.14v6.6c0,1.81-1.47,3.29-3.29,3.29h-10.73c-1.73,0-3.13-1.4-3.13-3.13v-6.75h0Z"></path><path class="neighborhood-illustration_cls10__5n_hn" d="M200.66,205.08h17.14v6.6c0,1.81-1.47,3.29-3.29,3.29h-10.73c-1.73,0-3.13-1.4-3.13-3.13v-6.75h0Z"></path><rect class="neighborhood-illustration_cls19__d_1gh" x="159.54" y="189.56" width="145.61" height="15.55" rx="2.03" ry="2.03"></rect><rect class="neighborhood-illustration_cls6__8zwQq" x="203.73" y="214.98" width="10.95" height="65.33"></rect><rect class="neighborhood-illustration_cls6__8zwQq" x="253.05" y="214.98" width="10.95" height="65.33"></rect><rect class="neighborhood-illustration_cls6__8zwQq" x="288.64" y="214.98" width="10.95" height="65.33"></rect><path class="neighborhood-illustration_cls15__9QAUS" d="M161.59,290.16h141.51c1.13,0,2.05.92,2.05,2.05v10.33h-145.61v-10.33c0-1.13.92-2.05,2.05-2.05Z"></path><path class="neighborhood-illustration_cls10__5n_hn" d="M285.55,205.08h17.14v6.6c0,1.81-1.47,3.29-3.29,3.29h-10.73c-1.73,0-3.13-1.4-3.13-3.13v-6.75h0Z"></path></g></g></svg>