<svg xmlns="http://www.w3.org/2000/svg" aria-hidden="true">
  <!-- Footer & contact -->
  <symbol id="icon-email" viewBox="0 0 24 24">
    <path fill="currentColor" d="M4.75 5.5h14.5A2.75 2.75 0 0 1 22 8.25v7.5a2.75 2.75 0 0 1-2.75 2.75H4.75A2.75 2.75 0 0 1 2 15.75v-7.5A2.75 2.75 0 0 1 4.75 5.5Zm.12 2.25 6.03 4.9a1.72 1.72 0 0 0 2.2 0l6.03-4.9H4.87Zm14.88 1.64-5.46 4.43a3.58 3.58 0 0 1-4.58 0L4.25 9.39v6.36c0 .28.22.5.5.5h14.5c.28 0 .5-.22.5-.5V9.39Z"/>
  </symbol>

  <symbol id="icon-whatsapp" viewBox="0 0 24 24">
    <path fill="currentColor" d="M12.02 2.25a9.68 9.68 0 0 0-8.24 14.78L2.5 21.75l4.84-1.23A9.68 9.68 0 1 0 12.02 2.25Zm0 2.06a7.62 7.62 0 1 1-3.82 14.2l-.36-.21-2.44.62.65-2.35-.23-.38a7.62 7.62 0 0 1 6.2-11.88Zm-3.2 3.9c-.18 0-.48.06-.73.34-.25.28-.96.94-.96 2.28 0 1.35.98 2.66 1.12 2.84.14.18 1.9 3.05 4.72 4.14 2.34.91 2.82.73 3.33.68.51-.05 1.65-.67 1.88-1.32.23-.65.23-1.2.16-1.32-.07-.12-.25-.18-.53-.32-.28-.14-1.66-.82-1.92-.91-.26-.1-.45-.14-.64.14-.19.28-.73.91-.9 1.1-.17.18-.33.21-.61.07-.28-.14-1.18-.43-2.25-1.38-.83-.74-1.4-1.66-1.56-1.94-.16-.28-.02-.43.12-.57.13-.13.28-.33.42-.49.14-.16.19-.28.28-.46.09-.18.05-.35-.02-.49-.07-.14-.62-1.5-.86-2.05-.23-.53-.46-.45-.64-.46h-.43Z"/>
  </symbol>

  <symbol id="icon-app" viewBox="0 0 24 24">
    <path fill="currentColor" d="M8.25 2.5h7.5A2.75 2.75 0 0 1 18.5 5.25v13.5a2.75 2.75 0 0 1-2.75 2.75h-7.5a2.75 2.75 0 0 1-2.75-2.75V5.25A2.75 2.75 0 0 1 8.25 2.5Zm0 2.1a.65.65 0 0 0-.65.65v13.5c0 .36.29.65.65.65h7.5c.36 0 .65-.29.65-.65V5.25a.65.65 0 0 0-.65-.65h-.95a.78.78 0 0 1-.72.5h-4.16a.78.78 0 0 1-.72-.5h-.95Zm1.25 5.3h1.75v1.75H9.5V9.9Zm3.25 0h1.75v1.75h-1.75V9.9ZM9.5 13.15h1.75v1.75H9.5v-1.75Zm3.25 0h1.75v1.75h-1.75v-1.75ZM12 17.2a.85.85 0 1 1 0 1.7.85.85 0 0 1 0-1.7Z"/>
  </symbol>

  <symbol id="icon-doctors" viewBox="0 0 24 24">
    <path fill="currentColor" d="M8.95 2.75a3.7 3.7 0 0 0-3.7 3.7v3.02a4.28 4.28 0 0 0 3.35 4.18v1.12c-2.83.36-5.1 2.34-5.1 5.03 0 .58.47 1.05 1.05 1.05h8.2a1.05 1.05 0 0 0 0-2.1H5.9c.46-1.2 1.82-1.98 3.72-1.98.85 0 1.57.15 2.17.43a1.05 1.05 0 0 0 .9-1.9 6.5 6.5 0 0 0-1.99-.55v-1.1a4.28 4.28 0 0 0 3.35-4.18V6.45a3.7 3.7 0 0 0-3.7-3.7h-1.4Zm0 2.1h1.4c.88 0 1.6.72 1.6 1.6v.27a5.2 5.2 0 0 1-5.53.02v-.29c0-.88.72-1.6 1.6-1.6h.93Zm-1.6 4.22a7.1 7.1 0 0 0 4.6-.02v.42a2.3 2.3 0 0 1-4.6 0v-.4Zm10.85 1.68c.58 0 1.05.47 1.05 1.05v1.45h1.45a1.05 1.05 0 1 1 0 2.1h-1.45v1.45a1.05 1.05 0 1 1-2.1 0v-1.45H15.7a1.05 1.05 0 1 1 0-2.1h1.45V11.8c0-.58.47-1.05 1.05-1.05Z"/>
  </symbol>

  <!-- Filter tabs -->
  <symbol id="icon-filter-all" viewBox="0 0 24 24" fill="none">
    <rect x="3.5" y="3.5" width="7" height="7" rx="1.8" stroke="currentColor" stroke-width="1.65"/>
    <rect x="13.5" y="3.5" width="7" height="7" rx="1.8" stroke="currentColor" stroke-width="1.65"/>
    <rect x="3.5" y="13.5" width="7" height="7" rx="1.8" stroke="currentColor" stroke-width="1.65"/>
    <rect x="13.5" y="13.5" width="7" height="7" rx="1.8" stroke="currentColor" stroke-width="1.65"/>
  </symbol>

  <symbol id="icon-heart" viewBox="0 0 24 24" fill="none">
    <path d="M12 20.2s-6.8-4.1-6.8-9.4C5.2 7.8 7.4 5.8 9.8 5.8c1.4 0 2.4.7 3.2 1.6.8-.9 1.8-1.6 3.2-1.6 2.4 0 4.6 2 4.6 5 0 5.3-6.8 9.4-6.8 9.4Z" stroke="currentColor" stroke-width="1.65" stroke-linejoin="round"/>
    <path d="M9.2 12.2h5.6M12 9.6v5.2" stroke="currentColor" stroke-width="1.45" stroke-linecap="round"/>
  </symbol>

  <symbol id="icon-diabetes" viewBox="0 0 24 24" fill="none">
    <path d="M12 4.2c-2.2 0-3.8 1.7-3.8 3.9 0 2.8 3.8 7.2 3.8 7.2s3.8-4.4 3.8-7.2c0-2.2-1.6-3.9-3.8-3.9Z" stroke="currentColor" stroke-width="1.65" stroke-linejoin="round"/>
    <path d="M10.2 8.2h3.6M12 6.6v3.2" stroke="currentColor" stroke-width="1.4" stroke-linecap="round"/>
    <rect x="5.5" y="16.2" width="13" height="3.6" rx="1.2" stroke="currentColor" stroke-width="1.45"/>
    <path d="M8.2 18h2.2M13.6 18h2.2" stroke="currentColor" stroke-width="1.35" stroke-linecap="round"/>
  </symbol>

  <symbol id="icon-women" viewBox="0 0 24 24" fill="none">
    <circle cx="12" cy="8.2" r="3.6" stroke="currentColor" stroke-width="1.65"/>
    <path d="M12 11.8v8.5M9.2 18.8h5.6" stroke="currentColor" stroke-width="1.65" stroke-linecap="round"/>
    <path d="M8.8 6.8c.9-1.1 2-1.7 3.2-1.7" stroke="currentColor" stroke-width="1.35" stroke-linecap="round" opacity=".55"/>
  </symbol>

  <symbol id="icon-thyroid" viewBox="0 0 24 24" fill="none">
    <path d="M6.5 10.2c1.8-2.8 4.2-4.2 5.5-4.2s3.7 1.4 5.5 4.2c1.5 2.3 1.5 5.1 0 7.4-1.8 2.8-4.2 4.2-5.5 4.2s-3.7-1.4-5.5-4.2c-1.5-2.3-1.5-5.1 0-7.4Z" stroke="currentColor" stroke-width="1.65" stroke-linejoin="round"/>
    <path d="M9.2 12.8h5.6M12 10.2v5.2" stroke="currentColor" stroke-width="1.45" stroke-linecap="round"/>
  </symbol>

  <symbol id="icon-full-body" viewBox="0 0 24 24" fill="none">
    <circle cx="12" cy="5.8" r="2.3" stroke="currentColor" stroke-width="1.65"/>
    <path d="M12 8.1v5.2M9 20.5l3-7.2 3 7.2M8.2 13.2h7.6" stroke="currentColor" stroke-width="1.65" stroke-linecap="round" stroke-linejoin="round"/>
    <path d="M6.5 11.2h11" stroke="currentColor" stroke-width="1.45" stroke-linecap="round" opacity=".55"/>
  </symbol>

  <!-- Category cards -->
  <symbol id="icon-cat-heart" viewBox="0 0 24 24" fill="none">
    <path d="M12 19.5s-5.5-3.3-5.5-7.6c0-2 1.8-3.6 3.9-3.6 1.2 0 2 .5 2.6 1.2.6-.7 1.4-1.2 2.6-1.2 2.1 0 3.9 1.6 3.9 3.6 0 4.3-5.5 7.6-5.5 7.6Z" stroke="currentColor" stroke-width="1.6" stroke-linejoin="round"/>
    <path d="M8.5 12.5c1.2 1.5 2.3 2.2 3.5 2.2s2.3-.7 3.5-2.2" stroke="currentColor" stroke-width="1.45" stroke-linecap="round"/>
  </symbol>

  <symbol id="icon-cat-diabetes" viewBox="0 0 24 24" fill="none">
    <path d="M12 4.5c-1.9 0-3.3 1.5-3.3 3.4 0 2.4 3.3 6.2 3.3 6.2s3.3-3.8 3.3-6.2c0-1.9-1.4-3.4-3.3-3.4Z" stroke="currentColor" stroke-width="1.6" stroke-linejoin="round"/>
    <rect x="6" y="15.5" width="12" height="4" rx="1.2" stroke="currentColor" stroke-width="1.45"/>
    <path d="M9 17.5h1.8M13.2 17.5h1.8" stroke="currentColor" stroke-width="1.3" stroke-linecap="round"/>
  </symbol>

  <symbol id="icon-cat-maternal" viewBox="0 0 24 24" fill="none">
    <circle cx="12" cy="7.2" r="2.5" stroke="currentColor" stroke-width="1.55"/>
    <path d="M8.5 19.5c.6-3.2 1.8-5 3.5-5s2.9 1.8 3.5 5" stroke="currentColor" stroke-width="1.55" stroke-linecap="round"/>
    <path d="M15.8 10.2a2.8 2.8 0 0 1 2.4 4.1" stroke="currentColor" stroke-width="1.4" stroke-linecap="round"/>
    <circle cx="17.8" cy="8.8" r="1.3" stroke="currentColor" stroke-width="1.3"/>
  </symbol>

  <symbol id="icon-cat-hormone" viewBox="0 0 24 24" fill="none">
    <path d="M12 3.5 14.8 9h5.7l-4.6 3.4 1.8 5.6L12 15.8 6.3 18l1.8-5.6L3.5 9h5.7L12 3.5Z" stroke="currentColor" stroke-width="1.55" stroke-linejoin="round"/>
    <circle cx="12" cy="11.2" r="1.6" stroke="currentColor" stroke-width="1.35"/>
  </symbol>

  <symbol id="icon-cat-liver" viewBox="0 0 24 24" fill="none">
    <path d="M7.5 8.5c0-2.2 2-4 4.5-4 2.2 0 4 1.4 4.5 3.3.8-.5 1.8-.8 2.8-.8 2.5 0 4.2 1.8 4.2 4.2 0 4.8-4.8 8.8-8.5 8.8-4.2 0-7.5-3.5-7.5-7.5 0-1.6.5-3 1.5-4Z" stroke="currentColor" stroke-width="1.55" stroke-linejoin="round"/>
    <path d="M10.5 12.2h5" stroke="currentColor" stroke-width="1.35" stroke-linecap="round" opacity=".6"/>
  </symbol>

  <symbol id="icon-cat-kidney" viewBox="0 0 24 24" fill="none">
    <path d="M8.2 7.5c-2.2.8-3.5 2.8-3.5 5.2s1.3 4.4 3.5 5.2c1.5.6 3.2.2 4.3-1 1.1 1.2 2.8 1.6 4.3 1 2.2-.8 3.5-2.8 3.5-5.2s-1.3-4.4-3.5-5.2c-1.8-.6-3.8.2-4.8 1.8-1-1.6-3-2.4-4.8-1.8Z" stroke="currentColor" stroke-width="1.55" stroke-linejoin="round"/>
  </symbol>

  <symbol id="icon-cat-vitamin" viewBox="0 0 24 24" fill="none">
    <circle cx="12" cy="12" r="4.2" stroke="currentColor" stroke-width="1.55"/>
    <path d="M12 3.5v2.2M12 18.3v2.2M3.5 12h2.2M18.3 12h2.2M5.8 5.8l1.6 1.6M16.6 16.6l1.6 1.6M5.8 18.2l1.6-1.6M16.6 7.4l1.6-1.6" stroke="currentColor" stroke-width="1.45" stroke-linecap="round"/>
    <path d="M10.6 12.2h2.8M12 10.8v2.8" stroke="currentColor" stroke-width="1.35" stroke-linecap="round"/>
  </symbol>

  <symbol id="icon-cat-fever" viewBox="0 0 24 24" fill="none">
    <path d="M12 3.5v11.8" stroke="currentColor" stroke-width="1.65" stroke-linecap="round"/>
    <circle cx="12" cy="18.8" r="2.2" stroke="currentColor" stroke-width="1.55"/>
    <path d="M14.2 6.2c1.2.8 2 2.2 2 3.8 0 2.6-2.1 4.7-4.7 4.7" stroke="currentColor" stroke-width="1.45" stroke-linecap="round" opacity=".65"/>
    <path d="M9.8 6.8c-.9.7-1.5 1.8-1.5 3.1" stroke="currentColor" stroke-width="1.35" stroke-linecap="round" opacity=".45"/>
  </symbol>

  <symbol id="icon-cat-checkup" viewBox="0 0 24 24" fill="none">
    <rect x="5.5" y="4.5" width="13" height="16" rx="2" stroke="currentColor" stroke-width="1.55"/>
    <path d="M9 4.5v2.8h6V4.5" stroke="currentColor" stroke-width="1.45" stroke-linejoin="round"/>
    <path d="M9.2 11.2l1.8 1.8 3.8-3.8M9.2 16.2h5.6" stroke="currentColor" stroke-width="1.45" stroke-linecap="round" stroke-linejoin="round"/>
  </symbol>

  <!-- Hero bullets -->
  <symbol id="icon-home-collection" viewBox="0 0 24 24" fill="none">
    <path d="M4.5 10.8 12 5.2l7.5 5.6V19a1.5 1.5 0 0 1-1.5 1.5H6a1.5 1.5 0 0 1-1.5-1.5V10.8Z" stroke="currentColor" stroke-width="1.65" stroke-linejoin="round"/>
    <path d="M9.5 20.5v-5.2a1.2 1.2 0 0 1 1.2-1.2h2.6a1.2 1.2 0 0 1 1.2 1.2v5.2" stroke="currentColor" stroke-width="1.55" stroke-linejoin="round"/>
    <rect x="14.2" y="9.2" width="4.8" height="5.2" rx="1" stroke="currentColor" stroke-width="1.4"/>
    <path d="M15.2 11.8h2.8" stroke="currentColor" stroke-width="1.2" stroke-linecap="round"/>
  </symbol>

  <symbol id="icon-results" viewBox="0 0 24 24" fill="none">
    <rect x="4.5" y="3.5" width="11.5" height="15" rx="2" stroke="currentColor" stroke-width="1.55"/>
    <path d="M8 8.2h4.5M8 11.2h3.2M8 14.2h4" stroke="currentColor" stroke-width="1.35" stroke-linecap="round"/>
    <rect x="15.5" y="8.5" width="4.5" height="7.5" rx="1.2" stroke="currentColor" stroke-width="1.45"/>
    <path d="M17 12.2h1.5M17 14.2h1.5" stroke="currentColor" stroke-width="1.2" stroke-linecap="round"/>
    <circle cx="17.8" cy="6.8" r="2.8" stroke="currentColor" stroke-width="1.45"/>
    <path d="M17.8 5.5v2.6M16.5 6.8h2.6" stroke="currentColor" stroke-width="1.2" stroke-linecap="round"/>
  </symbol>

  <symbol id="icon-insights" viewBox="0 0 24 24" fill="none">
    <rect x="3.5" y="4.5" width="17" height="15" rx="2.2" stroke="currentColor" stroke-width="1.55"/>
    <path d="M7 15.2 10.2 11.8l2.4 2.2L17 8.8" stroke="currentColor" stroke-width="1.65" stroke-linecap="round" stroke-linejoin="round"/>
    <circle cx="7" cy="15.2" r="1.1" fill="currentColor"/>
    <circle cx="10.2" cy="11.8" r="1.1" fill="currentColor"/>
    <circle cx="12.6" cy="14" r="1.1" fill="currentColor"/>
    <circle cx="17" cy="8.8" r="1.1" fill="currentColor"/>
  </symbol>

  <symbol id="icon-family" viewBox="0 0 24 24" fill="none">
    <circle cx="8.2" cy="8.2" r="2.2" stroke="currentColor" stroke-width="1.5"/>
    <circle cx="15.8" cy="8.8" r="2" stroke="currentColor" stroke-width="1.5"/>
    <circle cx="12" cy="6.5" r="1.8" stroke="currentColor" stroke-width="1.4"/>
    <path d="M4.5 18.5c.5-2.4 1.8-3.8 3.7-3.8s3.2 1.4 3.8 3.8M12 18.5c.6-2.2 1.7-3.5 3.3-3.8" stroke="currentColor" stroke-width="1.5" stroke-linecap="round"/>
    <path d="M15.2 14.7c1.9.3 3.2 1.7 3.8 3.8" stroke="currentColor" stroke-width="1.5" stroke-linecap="round"/>
  </symbol>

  <!-- Reports & trust features -->
  <symbol id="icon-report-trends" viewBox="0 0 24 24" fill="none">
    <path d="M4 4v14.5a1.5 1.5 0 0 0 1.5 1.5H20" stroke="currentColor" stroke-width="1.7" stroke-linecap="round" stroke-linejoin="round"/>
    <path d="M7 15.5l3.2-3.6 2.6 2.1 4.5-5.3" stroke="currentColor" stroke-width="1.7" stroke-linecap="round" stroke-linejoin="round"/>
    <path d="M14.7 8.7h2.6v2.6" stroke="currentColor" stroke-width="1.7" stroke-linecap="round" stroke-linejoin="round"/>
  </symbol>

  <symbol id="icon-report-pdf" viewBox="0 0 24 24" fill="none">
    <path d="M6.5 3.5h7l4 4V15a1.8 1.8 0 0 1-1.8 1.8H6.5A1.8 1.8 0 0 1 4.7 15V5.3A1.8 1.8 0 0 1 6.5 3.5Z" stroke="currentColor" stroke-width="1.7" stroke-linejoin="round"/>
    <path d="M13.3 3.6v3.6h3.6" stroke="currentColor" stroke-width="1.7" stroke-linejoin="round"/>
    <path d="M12 11.4v5.6" stroke="currentColor" stroke-width="1.7" stroke-linecap="round"/>
    <path d="M9.5 14.6 12 17.2l2.5-2.6" stroke="currentColor" stroke-width="1.7" stroke-linecap="round" stroke-linejoin="round"/>
    <path d="M7.5 20.3h9" stroke="currentColor" stroke-width="1.7" stroke-linecap="round"/>
  </symbol>

  <symbol id="icon-report-profiles" viewBox="0 0 24 24" fill="none">
    <circle cx="9" cy="8.4" r="3.1" stroke="currentColor" stroke-width="1.7"/>
    <path d="M3.7 19.4c0-3.2 2.4-5.2 5.3-5.2s5.3 2 5.3 5.2" stroke="currentColor" stroke-width="1.7" stroke-linecap="round"/>
    <path d="M16 6.4a3 3 0 0 1 0 6" stroke="currentColor" stroke-width="1.6" stroke-linecap="round"/>
    <path d="M16.6 14.4c2.3.5 3.7 2.3 3.7 5" stroke="currentColor" stroke-width="1.6" stroke-linecap="round"/>
  </symbol>

  <symbol id="icon-report-secure" viewBox="0 0 24 24" fill="none">
    <path d="M12 3.5 5 6.4v5c0 4.4 3 8.5 7 10.1 4-1.6 7-5.7 7-10.1v-5L12 3.5Z" stroke="currentColor" stroke-width="1.7" stroke-linejoin="round"/>
    <path d="m8.8 12 2.3 2.3 4.1-4.6" stroke="currentColor" stroke-width="1.7" stroke-linecap="round" stroke-linejoin="round"/>
  </symbol>

  <symbol id="icon-insight-cards" viewBox="0 0 24 24" fill="none">
    <rect x="3.5" y="4.5" width="7.5" height="6.5" rx="1.5" stroke="currentColor" stroke-width="1.5"/>
    <rect x="13" y="4.5" width="7.5" height="6.5" rx="1.5" stroke="currentColor" stroke-width="1.5"/>
    <rect x="3.5" y="13" width="7.5" height="6.5" rx="1.5" stroke="currentColor" stroke-width="1.5"/>
    <rect x="13" y="13" width="7.5" height="6.5" rx="1.5" stroke="currentColor" stroke-width="1.5"/>
    <circle cx="6.8" cy="7.8" r="1" fill="currentColor"/>
    <circle cx="16.8" cy="7.8" r="1" fill="currentColor" opacity=".45"/>
    <circle cx="6.8" cy="16.2" r="1" fill="currentColor" opacity=".45"/>
    <circle cx="16.8" cy="16.2" r="1" fill="currentColor"/>
  </symbol>

  <symbol id="icon-compare-results" viewBox="0 0 24 24" fill="none">
    <rect x="4" y="5" width="6.5" height="14" rx="1.5" stroke="currentColor" stroke-width="1.55"/>
    <rect x="13.5" y="5" width="6.5" height="14" rx="1.5" stroke="currentColor" stroke-width="1.55"/>
    <path d="M6.2 16V12.5M8.8 16V9.5" stroke="currentColor" stroke-width="1.65" stroke-linecap="round"/>
    <path d="M15.7 16V10.5M18.3 16V13" stroke="currentColor" stroke-width="1.65" stroke-linecap="round"/>
    <path d="M11.2 12h1.6" stroke="currentColor" stroke-width="1.4" stroke-linecap="round" opacity=".45"/>
    <path d="M10.5 7.8h3" stroke="currentColor" stroke-width="1.3" stroke-linecap="round" opacity=".4"/>
  </symbol>

  <symbol id="icon-web-portal" viewBox="0 0 24 24" fill="none">
    <rect x="3.5" y="5" width="17" height="13" rx="2" stroke="currentColor" stroke-width="1.6"/>
    <path d="M3.5 8.5h17" stroke="currentColor" stroke-width="1.5"/>
    <circle cx="6" cy="6.8" r=".7" fill="currentColor"/>
    <circle cx="8.2" cy="6.8" r=".7" fill="currentColor" opacity=".45"/>
    <path d="M7.5 12h9M7.5 14.8h6" stroke="currentColor" stroke-width="1.4" stroke-linecap="round" opacity=".7"/>
  </symbol>

  <symbol id="icon-fast-results" viewBox="0 0 24 24" fill="none">
    <circle cx="12" cy="12.5" r="7.5" stroke="currentColor" stroke-width="1.6"/>
    <path d="M12 8.5v4.2l2.8 1.6" stroke="currentColor" stroke-width="1.65" stroke-linecap="round" stroke-linejoin="round"/>
    <path d="M17.8 4.8 19 3.2" stroke="currentColor" stroke-width="1.5" stroke-linecap="round"/>
    <path d="m18.2 6.5 1.5-.3" stroke="currentColor" stroke-width="1.3" stroke-linecap="round" opacity=".55"/>
  </symbol>

  <symbol id="icon-accredited" viewBox="0 0 24 24" fill="none">
    <path d="M12 3.8 5.5 6.8v5.2c0 4.2 2.8 8.1 6.5 9.8 3.7-1.7 6.5-5.6 6.5-9.8V6.8L12 3.8Z" stroke="currentColor" stroke-width="1.6" stroke-linejoin="round"/>
    <path d="m9.4 12.2 1.8 1.8 3.6-3.8" stroke="currentColor" stroke-width="1.65" stroke-linecap="round" stroke-linejoin="round"/>
  </symbol>
</svg>
